<?xml version="1.0" encoding="utf-8"?>
<!-- Generator: Adobe Illustrator 18.0.0, SVG Export Plug-In . SVG Version: 6.00 Build 0)  -->
<!DOCTYPE svg PUBLIC "-//W3C//DTD SVG 1.1//EN" "http://www.w3.org/Graphics/SVG/1.1/DTD/svg11.dtd">
<svg version="1.1" id="Layer_1" xmlns="http://www.w3.org/2000/svg" xmlns:xlink="http://www.w3.org/1999/xlink" x="0px" y="0px"
	 viewBox="0 0 570.4 118.8" enable-background="new 0 0 570.4 118.8" xml:space="preserve">
<path fill-rule="evenodd" clip-rule="evenodd" fill="#2F1A45" d="M53.1,103.6c1.2,7.9,4.8,11.7,11.5,11.7c6.2,0,10.6-1.7,14.2-3.5
	V104c0,0-1.5,0-2.2,0c-7,0-8-2.4-8-6.6V56.5c0-16.4-11.1-23.9-30.1-23.9C18.7,32.6,8,40.5,8,52.5c0,3.9,0.4,5.7,1.2,8.8l15.6-1
	c-0.6-2.4-1.2-3.7-1.2-6.5c0-4.8,2.2-9.9,14.1-9.9c10.6,0,15.2,5.3,15.2,15.2c-1.2,4-11.3,7-26,10.6C15,72.6,5.1,79.4,5.1,92.1
	c0,14.2,7.2,23.9,23.8,23.9C38.8,116,48.2,112.6,53.1,103.6L53.1,103.6z M52.9,71.7l-0.7,15.1c-0.3,10.4-7.3,16.7-15.2,17.4
	c-10.5,1-15.1-4.4-15.1-11.3c0-7.9,5.4-12.2,18.2-15.1C45,76.6,51.2,74.3,52.9,71.7L52.9,71.7z M103.1,86.5v27.8H87.2V8.3h15.8v61.5
	l25.1-34.7h18.1l-22.9,29.7l31.7,49.6c0,0-18.1,0-18.1-0.1l-24.4-38.9L103.1,86.5L103.1,86.5z M177.1,114.4l-26.2-79.3H168L187,97
	L208,35.1h15.6l-23.6,70.1c-1.8,5.6-5.3,9.2-11.1,9.2H177.1L177.1,114.4z M293.1,76c0-28-11.2-43.4-33.6-43.4
	c-22,0-33.6,13.8-33.6,43.4c0,28.7,11.5,40.1,33.6,40.1C280.5,116,293.1,105,293.1,76L293.1,76z M243,75.4c0-22,5.1-30.1,16.6-30.1
	c11.2,0,16.6,8.2,16.6,30.1c0,19.6-4.8,27.2-16.6,27.2C247.8,102.6,243,95.4,243,75.4L243,75.4z"/>
<g>
	<path fill="#E27C00" d="M330.3,114.3h-16.5V45.8h-12.7V34.9h12.7c-0.1-3.3-0.3-6.2-0.3-9.4C313.5,13.3,319.6,5,333,5
		c13.3,0,20.5,5,20.5,13.6c0,3.2-0.4,5.8-1,8.2l-12.3-0.6c0.1-1.2,0.6-3,0.6-5.1c0-3.2-1.9-5.1-5.7-5.1c-3.3,0-5.5,2.1-6.2,5.4
		c-0.6,4.4-0.3,10.2,0.1,13.6h17.4v10.9h-16.2V114.3z"/>
	<path fill="#E27C00" d="M363.3,114.3V8.1h16.9v106.2H363.3z"/>
	<path fill="#E27C00" d="M426.4,115.9c-22.1,0-33.6-11.3-33.6-40.1c0-29.6,11.6-43.4,33.6-43.4c22.4,0,33.6,15.4,33.6,43.4
		C460,104.9,447.4,115.9,426.4,115.9z M426.4,102.5c11.8,0,16.6-7.6,16.6-27.2c0-22-5.4-30.1-16.6-30.1c-11.5,0-16.6,8.2-16.6,30.1
		C409.8,95.3,414.6,102.5,426.4,102.5z"/>
	<path fill="#E27C00" d="M544.8,114.3h-15.5l-13.8-54.1l-13.1,54.1h-16.2l-22.8-79.4h16.6l15.2,55l12.3-55h16.3l14.2,55l13.7-55
		h15.6L544.8,114.3z"/>
</g>
</svg>
