<svg id="Layer_1" data-name="Layer 1" xmlns="http://www.w3.org/2000/svg" xmlns:xlink="http://www.w3.org/1999/xlink" viewBox="0 0 66.08 66.08"><defs><symbol id="New_Symbol_101" data-name="New Symbol 101" viewBox="0 0 15 10"><path d="M14,2.25V9H1V2.25H14m1-1H0V10H15V1.25Z"/><path d="M7.27,8.33,5.78,5.9,4.31,8.2,2.87,6,2.24,7.82a.25.25,0,0,1-.48-.16l1-2.79L4.31,7.28,5.78,5,7.13,7.15l1-3.23a.25.25,0,0,1,.31-.16.24.24,0,0,1,.16.32Z"/><rect width="15" height="2"/><path d="M12.64,4.82A1.32,1.32,0,1,1,11.33,3.5,1.31,1.31,0,0,1,12.64,4.82Z"/><rect x="10" y="7" width="1" height="1"/><rect x="12" y="7" width="1" height="1"/></symbol></defs><title>Artboard 2</title><use id="New_Symbol_101-3" data-name="New Symbol 101" width="15" height="10" transform="translate(9.46 17.04) scale(3.17)" xlink:href="#New_Symbol_101"/></svg>