<?xml version="1.0" encoding="utf-8"?>
<!-- Generator: Adobe Illustrator 18.0.0, SVG Export Plug-In . SVG Version: 6.00 Build 0)  -->
<!DOCTYPE svg PUBLIC "-//W3C//DTD SVG 1.1//EN" "http://www.w3.org/Graphics/SVG/1.1/DTD/svg11.dtd">
<svg version="1.1" id="Layer_1" xmlns="http://www.w3.org/2000/svg" xmlns:xlink="http://www.w3.org/1999/xlink" x="0px" y="0px"
	 viewBox="132 52 696 508" enable-background="new 132 52 696 508" xml:space="preserve">
<g>
	<path fill="#F6A01A" d="M292.2,329.8c0,13.1,9.8,22.9,22.9,22.9h318.4c13.1,0,22.9-9.8,22.9-22.9V133.9c0-13.1-9.8-22.9-22.9-22.9
		H484.9c-13.1,0-29.4-8.2-37.6-18L435.9,80c-8.2-9.8-26.1-18-37.6-18h-81.6c-13.1,0-22.9,9.8-22.9,22.9v244.9H292.2z"/>
</g>
<polygon fill="#FFFFFF" points="520,306.9 386,229.5 520,152.2 "/>
<g>
	<text transform="matrix(1 0 0 1 136.3224 531.8253)" fill="#F6A01A" font-family="'FuturaPT-Book'" font-size="163.2653">GO BACK</text>
</g>
<text transform="matrix(1 0 0 1 744 -116)" font-family="'MyriadPro-Regular'" font-size="12">#f6a01a</text>
</svg>
