<?xml version="1.0" encoding="utf-8"?>
<!-- Generator: Adobe Illustrator 18.1.0, SVG Export Plug-In . SVG Version: 6.00 Build 0)  -->
<!DOCTYPE svg PUBLIC "-//W3C//DTD SVG 1.1//EN" "http://www.w3.org/Graphics/SVG/1.1/DTD/svg11.dtd">
<svg version="1.1" id="Layer_1" xmlns="http://www.w3.org/2000/svg" xmlns:xlink="http://www.w3.org/1999/xlink" x="0px" y="0px"
	 viewBox="0 0 960 560" enable-background="new 0 0 960 560" xml:space="preserve">
<g>
	<g>
		<path fill="#B7B7B7" d="M373,115.1c10.3,0,26.9,7.5,33.5,15.1l0.1,0.1l0.1,0.1l13.6,15.4c10.4,11.9,24,19.4,33.5,23.7
			c13.2,5.9,27.1,9.1,39,9.1h193.5c4.5,0,6.5,3.9,6.5,6.5v255.2c0,4.5-3.9,6.5-6.5,6.5H270.2c-4.5,0-6.5-3.9-6.5-6.5V119.9
			c0-2.8,2.1-4.8,4.8-4.8H373 M373,89.1H268.5c-17.1,0-30.8,13.7-30.8,30.8v320.2c0,17.1,13.7,32.5,32.5,32.5h416.1
			c17.1,0,32.5-13.7,32.5-32.5V185c0-17.1-13.7-32.5-32.5-32.5H492.8c-17.1,0-41.1-10.3-53.1-24L426.1,113
			C414.1,99.3,390.1,89.1,373,89.1L373,89.1z"/>
	</g>
</g>
</svg>
