<?xml version="1.0" encoding="utf-8"?>
<!-- Generator: Adobe Illustrator 18.1.0, SVG Export Plug-In . SVG Version: 6.00 Build 0)  -->
<!DOCTYPE svg PUBLIC "-//W3C//DTD SVG 1.1//EN" "http://www.w3.org/Graphics/SVG/1.1/DTD/svg11.dtd">
<svg version="1.1" id="Layer_1" xmlns="http://www.w3.org/2000/svg" xmlns:xlink="http://www.w3.org/1999/xlink" x="0px" y="0px"
	 viewBox="0 0 960 560" enable-background="new 0 0 960 560" xml:space="preserve">
<g>
	<path fill="#4A585D" d="M269.6,450.1c-5.1,0-9.4-4.3-9.4-9.4V121c0-5.1,4.3-9.4,9.4-9.4h103.9c11.2,0,28.7,7.9,36,16.3l13.8,15.8
		c15.9,18.1,46,31.8,70,31.8h191.8c5.1,0,9.4,4.3,9.4,9.4v255.7c0,5.1-4.3,9.4-9.4,9.4H269.6z"/>
	<path fill="#FFFFFF" d="M373.5,134.3c4.8,0.1,15.8,5.1,19,8.6l13.8,15.8c12.5,14.3,28.4,23.3,39.6,28.4
		c11.2,5.1,28.5,11.1,47.4,11.1H672v229.3H282.9V134.3H373.5 M373.5,89.1H269.6c-17.6,0-32,14.4-32,32v319.7c0,17.6,14.4,32,32,32
		h415.6c17.6,0,32-14.4,32-32V185c0-17.6-14.4-32-32-32H493.4c-17.6,0-41.4-10.8-53-24.1l-13.8-15.8C415,99.9,391.1,89.1,373.5,89.1
		L373.5,89.1z"/>
	<path fill="#A7A9AC" d="M373.5,111.7c11.2,0,28.7,7.9,36,16.3l13.8,15.8c15.9,18.1,46,31.8,70,31.8h191.8c5.1,0,9.4,4.3,9.4,9.4
		v255.7c0,5.1-4.3,9.4-9.4,9.4H269.6c-5.1,0-9.4-4.3-9.4-9.4V121c0-5.1,4.3-9.4,9.4-9.4H373.5 M373.5,89.1H269.6
		c-17.6,0-32,14.4-32,32v319.7c0,17.6,14.4,32,32,32h415.6c17.6,0,32-14.4,32-32V185c0-17.6-14.4-32-32-32H493.4
		c-17.6,0-41.4-10.8-53-24.1l-13.8-15.8C415,99.9,391.1,89.1,373.5,89.1L373.5,89.1z"/>
</g>
</svg>
