<?xml version="1.0" encoding="utf-8"?>
<!-- Generator: Adobe Illustrator 18.1.0, SVG Export Plug-In . SVG Version: 6.00 Build 0)  -->
<!DOCTYPE svg PUBLIC "-//W3C//DTD SVG 1.1//EN" "http://www.w3.org/Graphics/SVG/1.1/DTD/svg11.dtd">
<svg version="1.1" id="Layer_1" xmlns="http://www.w3.org/2000/svg" xmlns:xlink="http://www.w3.org/1999/xlink" x="0px" y="0px"
	 viewBox="0 0 1900 1200" enable-background="new 0 0 1900 1200" xml:space="preserve">
<g>
	<path opacity="0.3" fill="#4A585D" d="M531.8,926.5c-3.8-0.9-6.8-4.4-6.8-8.4V285.3c0-4.6,4-8.6,8.6-8.6h205.6
		c19.1,0,51.3,14.5,63.7,28.8l27.3,31.3c33.2,37.8,96,66.4,146.1,66.4h379.6c4.6,0,8.6,4,8.6,8.6v506.1c0,4.6-4,8.6-8.6,8.6H531.8z"
		/>
	<path fill="#FFFFFF" d="M739.2,286.7c7.6,0,19.2,3.1,30.3,8.1c11.1,5,21,11.6,25.9,17.3l27.3,31.3l0,0l0,0
		c17.1,19.4,41.9,37.1,70,49.9c28.1,12.8,57.8,19.8,83.6,19.8h378.2v503.3H535V286.7H739.2 M739.2,266.7H533.6
		c-10.1,0-18.6,8.5-18.6,18.6v632.7c0,10.1,8.5,18.6,18.6,18.6v-0.2h822.3c10.1,0,18.6-8.5,18.6-18.6V411.8
		c0-10.1-8.5-18.6-18.6-18.6H976.3c-47.5,0-107.1-27.1-138.5-62.9L810.5,299C796,282.3,761.4,266.7,739.2,266.7L739.2,266.7z"/>
</g>
<path fill="#A7A9AC" d="M739.2,266.9c22.2,0,56.8,15.6,71.2,32.3l27.3,31.3c31.5,35.8,91,62.9,138.5,62.9h379.6
	c10.1,0,18.6,8.5,18.6,18.6v506.1c0,10.1-8.5,18.6-18.6,18.6H533.6c-10.1,0-18.6-8.5-18.6-18.6V285.3c0-10.1,8.5-18.6,18.6-18.6
	h205.6 M739.2,222.2H533.6c-34.8,0-63.3,28.5-63.3,63.3v632.7c0,34.8,28.5,63.3,63.3,63.3h822.5c34.8,0,63.3-28.5,63.3-63.3V412
	c0-34.8-28.5-63.3-63.3-63.3H976.5c-34.8,0-81.9-21.4-104.9-47.7l-27.3-31.3C821.4,243.6,774.1,222.2,739.2,222.2L739.2,222.2z"/>
</svg>
