<?xml version="1.0" encoding="utf-8"?>
<!-- Generator: Adobe Illustrator 22.0.1, SVG Export Plug-In . SVG Version: 6.00 Build 0)  -->
<svg version="1.1" id="Layer_1" xmlns="http://www.w3.org/2000/svg" xmlns:xlink="http://www.w3.org/1999/xlink" x="0px" y="0px"
	 viewBox="0 0 292.8 157.7" style="enable-background:new 0 0 292.8 157.7;" xml:space="preserve">
<style type="text/css">
	.st0{opacity:0.3;}
	.st1{fill:#2380AF;}
	.st2{fill:#F5F5F5;}
	.st3{stroke:#000000;stroke-miterlimit:10;}
	.st4{font-family:'BrandonGrotesque-Medium';}
	.st5{font-size:14px;}
	.st6{opacity:6.000000e-02;fill:#2380AF;}
	.st7{opacity:6.000000e-02;fill:#004D8B;}
	.st8{fill:#004D8B;}
</style>
<g>
	<g class="st0">
		<path class="st1" d="M287.6,156.2H6.8c-2.1,0-3.8-1.7-3.8-3.8V7.3c0-2.1,1.7-3.8,3.8-3.8h280.8c2.1,0,3.8,1.7,3.8,3.8v145.1
			C291.4,154.5,289.7,156.2,287.6,156.2z"/>
	</g>
	<g>
		<path class="st2" d="M286.6,155.2H5.8c-2.1,0-3.8-1.7-3.8-3.8V6.3c0-2.1,1.7-3.8,3.8-3.8h280.8c2.1,0,3.8,1.7,3.8,3.8v145.1
			C290.4,153.5,288.7,155.2,286.6,155.2z"/>
	</g>
</g>
<g>
	<polygon class="st3" points="30.9,24.1 30.9,22.6 22.8,22.6 26.8,18.6 25.7,17.6 19.9,23.4 25.7,29.2 26.8,28.1 22.7,24.1 	"/>
	<text transform="matrix(1 0 0 1 39.9242 27.1694)" class="st4 st5">Settings</text>
</g>
<g>
	<g class="st0">
		<path class="st6" d="M273,126.6H22.1c-0.7,0-1.2-0.5-1.2-1.2V47c0-0.7,0.5-1.2,1.2-1.2H273c0.7,0,1.2,0.5,1.2,1.2v78.4
			C274.2,126.1,273.6,126.6,273,126.6z"/>
	</g>
	<g>
		<path class="st7" d="M272,125.6H21.1c-0.7,0-1.2-0.5-1.2-1.2V46c0-0.7,0.5-1.2,1.2-1.2H272c0.7,0,1.2,0.5,1.2,1.2v78.4
			C273.2,125.1,272.6,125.6,272,125.6z"/>
	</g>
</g>
<g>
	<rect x="39.9" y="81.6" class="st8" width="111.4" height="12.2"/>
</g>
<g>
	<rect x="154" y="81.6" class="st8" width="35.3" height="12.2"/>
</g>
<g>
	<rect x="187.6" y="81.6" class="st8" width="21.7" height="12.2"/>
</g>
<g>
	<rect x="171.6" y="98.5" class="st8" width="8.1" height="12.2"/>
</g>
<g>
	<rect x="39.9" y="98.5" class="st8" width="129.3" height="12.2"/>
</g>
<text transform="matrix(1 0 0 1 38.6742 66.1694)" class="st4 st5">Publish data</text>
</svg>
