<?xml version="1.0" encoding="utf-8"?>
<!-- Generator: Adobe Illustrator 22.0.1, SVG Export Plug-In . SVG Version: 6.00 Build 0)  -->
<svg version="1.1" id="Layer_1" xmlns="http://www.w3.org/2000/svg" xmlns:xlink="http://www.w3.org/1999/xlink" x="0px" y="0px"
	 viewBox="0 0 292.8 157.7" style="enable-background:new 0 0 292.8 157.7;" xml:space="preserve">
<style type="text/css">
	.st0{opacity:0.3;}
	.st1{fill:#2380AF;}
	.st2{fill:#F5F5F5;}
	.st3{stroke:#000000;stroke-miterlimit:10;}
	.st4{font-family:'BrandonGrotesque-Medium';}
	.st5{font-size:14px;}
	.st6{opacity:6.000000e-02;fill:#2380AF;}
	.st7{opacity:6.000000e-02;fill:#004D8B;}
	.st8{fill:#396680;}
</style>
<g>
	<g class="st0">
		<path class="st1" d="M287.5,156.8H6.7c-2.1,0-3.8-1.7-3.8-3.8V8c0-2.1,1.7-3.8,3.8-3.8h280.8c2.1,0,3.8,1.7,3.8,3.8V153
			C291.3,155.1,289.6,156.8,287.5,156.8z"/>
	</g>
	<g>
		<path class="st2" d="M286.5,155.8H5.7c-2.1,0-3.8-1.7-3.8-3.8V7c0-2.1,1.7-3.8,3.8-3.8h280.8c2.1,0,3.8,1.7,3.8,3.8V152
			C290.3,154.1,288.6,155.8,286.5,155.8z"/>
	</g>
</g>
<g>
	<polygon class="st3" points="30.7,24.8 30.7,23.3 22.6,23.3 26.6,19.3 25.6,18.2 19.8,24 25.6,29.8 26.6,28.8 22.6,24.7 	"/>
	<text transform="matrix(1 0 0 1 39.7931 27.836)" class="st4 st5">Settings</text>
</g>
<g>
	<g class="st0">
		<path class="st6" d="M272.9,127.3H22c-0.7,0-1.2-0.5-1.2-1.2V47.7c0-0.7,0.5-1.2,1.2-1.2h250.9c0.7,0,1.2,0.5,1.2,1.2v78.4
			C274,126.7,273.5,127.3,272.9,127.3z"/>
	</g>
	<g>
		<path class="st7" d="M271.9,126.3H21c-0.7,0-1.2-0.5-1.2-1.2V46.7c0-0.7,0.5-1.2,1.2-1.2h250.9c0.7,0,1.2,0.5,1.2,1.2v78.4
			C273,125.7,272.5,126.3,271.9,126.3z"/>
	</g>
</g>
<g>
	<rect x="39.8" y="82.3" class="st8" width="111.4" height="12.2"/>
</g>
<g>
	<rect x="153.9" y="82.3" class="st8" width="35.3" height="12.2"/>
</g>
<g>
	<rect x="187.4" y="82.3" class="st8" width="21.7" height="12.2"/>
</g>
<g>
	<rect x="171.5" y="99.2" class="st8" width="8.1" height="12.2"/>
</g>
<g>
	<rect x="39.8" y="99.2" class="st8" width="129.3" height="12.2"/>
</g>
<text transform="matrix(1 0 0 1 38.5431 66.8361)" class="st4 st5">Publish data</text>
</svg>
