<svg xmlns="http://www.w3.org/2000/svg" viewBox="0 0 290.88 124.65"><defs><style>.cls-1{isolation:isolate;}.cls-2{fill:#fff;}.cls-3,.cls-4{fill:#004d8b;}.cls-4{opacity:0.05;}.cls-5,.cls-7{opacity:0.3;}.cls-5{mix-blend-mode:multiply;}.cls-6{fill:#003144;}</style></defs><title>Artboard 3</title><g class="cls-1"><g id="Layer_1" data-name="Layer 1"><rect class="cls-2" x="28.06" y="21.13" width="24.75" height="55.11"/><path class="cls-3" d="M51.56,77H29.05a3,3,0,0,1-3-3V23.66a3,3,0,0,1,3-3H51.56a3,3,0,0,1,3,3V74A3,3,0,0,1,51.56,77ZM40.31,71.4a2.42,2.42,0,1,0,2.34,2.42A2.38,2.38,0,0,0,40.31,71.4ZM36.57,22.82H44a.47.47,0,0,0,0-.94H36.57a.47.47,0,0,0,0,.94Zm-8.1,1V70.58H52.15V23.82Z"/><rect class="cls-4" x="30.5" y="25.56" width="19.17" height="42.86"/><g class="cls-5"><path class="cls-6" d="M48.87,45.28a.71.71,0,0,0-.61-.22h-2V43.69a.83.83,0,0,0-.82-.83H38.56l-.11-.06-.86-1.28a.67.67,0,0,0-.57-.31H33.88a.82.82,0,0,0-.82.82v11a.82.82,0,0,0,.82.82H46.49a1,1,0,0,0,.87-.76L49,45.9A.72.72,0,0,0,48.87,45.28Zm-15,8a.27.27,0,0,1-.27-.27V42a.27.27,0,0,1,.27-.27H37l.11.06L38,43.1a.69.69,0,0,0,.57.31h6.89a.27.27,0,0,1,.27.28v1.37h-9a.88.88,0,0,0-.88.66l-1.64,7.1a.51.51,0,0,0,0,.09v.15a.75.75,0,0,0,.05.26Zm14.57-7.43-.32,1.37-1.26,5.51-.07.28a.37.37,0,0,1-.34.27H34.9a.21.21,0,0,1-.21-.27l1.56-6.77.06-.26,0-.13a.38.38,0,0,1,.29-.27H48.23A.22.22,0,0,1,48.45,45.89Z"/><path class="cls-6" d="M48.45,45.89l-.32,1.37-1.26,5.51-.07.28a.37.37,0,0,1-.34.27H34.9a.21.21,0,0,1-.21-.27l1.56-6.77.06-.26,0-.13a.38.38,0,0,1,.29-.27H48.23A.22.22,0,0,1,48.45,45.89Z"/><path class="cls-6" d="M33.88,53.32a.27.27,0,0,1-.27-.27V42a.27.27,0,0,1,.27-.27H37l.11.06L38,43.1a.69.69,0,0,0,.57.31h6.89a.27.27,0,0,1,.27.28v1.37h-9a.88.88,0,0,0-.88.66l-1.64,7.1a.51.51,0,0,0,0,.09v.15a.75.75,0,0,0,.05.26Z"/></g><path class="cls-3" d="M48.15,44.56a.72.72,0,0,0-.6-.21h-2V43a.83.83,0,0,0-.83-.83H37.84l-.11-.06-.86-1.28a.68.68,0,0,0-.57-.31H33.17a.83.83,0,0,0-.83.83v11a.83.83,0,0,0,.83.83h12.6a1,1,0,0,0,.88-.76l1.64-7.21A.71.71,0,0,0,48.15,44.56Zm-15,8a.29.29,0,0,1-.28-.28v-11a.28.28,0,0,1,.28-.28H36.3l.12.06.85,1.29a.7.7,0,0,0,.57.3h6.89A.28.28,0,0,1,45,43v1.38H36a.87.87,0,0,0-.87.65l-1.65,7.11s0,.06,0,.09v.15a.88.88,0,0,0,.06.26Zm14.56-7.44-.31,1.38-1.27,5.5-.06.28a.38.38,0,0,1-.35.28H34.18a.21.21,0,0,1-.21-.28l1.56-6.77.06-.26,0-.13a.38.38,0,0,1,.28-.27H47.52A.21.21,0,0,1,47.73,45.17Z"/><path class="cls-2" d="M47.73,45.17l-.31,1.38-1.27,5.5-.06.28a.38.38,0,0,1-.35.28H34.18a.21.21,0,0,1-.21-.28l1.56-6.77.06-.26,0-.13a.38.38,0,0,1,.28-.27H47.52A.21.21,0,0,1,47.73,45.17Z"/><path class="cls-2" d="M33.17,52.61a.29.29,0,0,1-.28-.28v-11a.28.28,0,0,1,.28-.28H36.3l.12.06.85,1.29a.7.7,0,0,0,.57.3h6.89A.28.28,0,0,1,45,43v1.38H36a.87.87,0,0,0-.87.65l-1.65,7.11s0,.06,0,.09v.15a.88.88,0,0,0,.06.26Z"/><path class="cls-2" d="M251.05,13.27H130.87a3.14,3.14,0,0,0-3.07,3.22V89.2a3.14,3.14,0,0,0,3.07,3.22H251.05a3.15,3.15,0,0,0,3.08-3.22V16.49A3.15,3.15,0,0,0,251.05,13.27Z"/><rect class="cls-4" x="135.39" y="23.14" width="110.57" height="61.01"/><g class="cls-7"><path class="cls-6" d="M43.92,83.36V78.89H39v4.47a1.34,1.34,0,0,0,1.34,1.34h2.25A1.34,1.34,0,0,0,43.92,83.36Z"/><path class="cls-6" d="M112,97.53a1.5,1.5,0,0,0-1.5,1.5V101a1.5,1.5,0,0,0,1.5,1.5h5.32V97.53Z"/><path class="cls-6" d="M89.69,93.94a10.24,10.24,0,0,0-6.52,2.46,11.53,11.53,0,0,1-7.68,2.65,10.67,10.67,0,0,1-7.55-2.85c-1.71-1.35-3.48-2.73-6.7-2.73s-5.38,1.33-7.34,2.62-3.59,2.37-6.5,2.37a4.79,4.79,0,0,1-3.62-1.34,6.69,6.69,0,0,1-1.5-4.37c0-3.68,0-6,0-6.47h-1.9c-.05.66,0,4.86,0,6.43a8.58,8.58,0,0,0,2,5.72,6.61,6.61,0,0,0,5,1.93c3.48,0,5.55-1.36,7.54-2.68,1.81-1.19,3.51-2.31,6.3-2.31,2.56,0,3.94,1.07,5.53,2.32A12.48,12.48,0,0,0,75.49,101a13.38,13.38,0,0,0,8.79-3c1.58-1.13,2.94-2.11,5.41-2.11A6.11,6.11,0,0,1,94,97.38c2.11,1.51,5,3.57,14.83,3.57v-1.9c-9.22,0-11.71-1.79-13.72-3.22A8,8,0,0,0,89.69,93.94Z"/></g><path class="cls-3" d="M42.92,82.36V77.89H38v4.47a1.34,1.34,0,0,0,1.34,1.34h2.25A1.34,1.34,0,0,0,42.92,82.36Z"/><path class="cls-3" d="M111,96.53a1.5,1.5,0,0,0-1.5,1.5V100a1.5,1.5,0,0,0,1.5,1.5h5.32V96.53Z"/><path class="cls-3" d="M88.69,92.94a10.24,10.24,0,0,0-6.52,2.46,11.53,11.53,0,0,1-7.68,2.65,10.67,10.67,0,0,1-7.55-2.85c-1.71-1.35-3.48-2.73-6.7-2.73s-5.38,1.33-7.34,2.62-3.59,2.37-6.5,2.37a4.79,4.79,0,0,1-3.62-1.34,6.69,6.69,0,0,1-1.5-4.37c0-3.68,0-6,0-6.47h-1.9c-.05.66,0,4.86,0,6.43a8.58,8.58,0,0,0,2,5.72,6.61,6.61,0,0,0,5,1.93c3.48,0,5.55-1.36,7.54-2.68,1.81-1.19,3.51-2.31,6.3-2.31,2.56,0,3.94,1.07,5.53,2.32A12.48,12.48,0,0,0,74.49,100a13.38,13.38,0,0,0,8.79-3c1.58-1.13,2.94-2.11,5.41-2.11A6.11,6.11,0,0,1,93,96.38c2.11,1.51,5,3.57,14.83,3.57v-1.9c-9.22,0-11.71-1.79-13.72-3.22A8,8,0,0,0,88.69,92.94Z"/><path class="cls-3" d="M257.39,108.48H124.65A6.68,6.68,0,0,1,118,101.8V96.53H264.06v5.27A6.68,6.68,0,0,1,257.39,108.48ZM177.07,100v1.59a3.52,3.52,0,0,0,3.52,3.52H205v-1.59a3.52,3.52,0,0,0-3.52-3.52Z"/><g class="cls-7"><polygon class="cls-6" points="81.13 78.67 76.49 78.67 80.34 82.53 63.45 82.53 63.45 85.75 80.34 85.75 76.49 89.6 81.13 89.6 86.59 84.14 81.13 78.67"/></g><polygon class="cls-3" points="80.05 77.6 75.41 77.6 79.27 81.45 62.38 81.45 62.38 84.68 79.27 84.68 75.41 88.53 80.05 88.53 85.52 83.06 80.05 77.6"/><g class="cls-5"><path class="cls-6" d="M211.45,46.79a1.75,1.75,0,0,0-1.47-.52h-4.81V42.93a2,2,0,0,0-2-2h-16.7l-.26-.15-2.09-3.11a1.64,1.64,0,0,0-1.39-.75h-7.59a2,2,0,0,0-2,2v26.7a2,2,0,0,0,2,2h30.56a2.34,2.34,0,0,0,2.12-1.84l4-17.48A1.73,1.73,0,0,0,211.45,46.79Zm-36.32,19.5a.66.66,0,0,1-.67-.66V38.93a.66.66,0,0,1,.67-.67h7.59l.28.15,2.07,3.11a1.72,1.72,0,0,0,1.39.74h16.7a.66.66,0,0,1,.67.67v3.34H182a2.11,2.11,0,0,0-2.12,1.59l-4,17.23a1,1,0,0,0,0,.21v.37a1.68,1.68,0,0,0,.13.62Zm35.31-18-.76,3.34L206.61,65l-.16.67a.9.9,0,0,1-.83.66h-28a.5.5,0,0,1-.51-.66l3.78-16.41.14-.63.07-.32a.89.89,0,0,1,.68-.65.3.3,0,0,1,.13,0h28A.52.52,0,0,1,210.44,48.27Z"/><path class="cls-6" d="M210.44,48.27l-.76,3.34L206.61,65l-.16.67a.9.9,0,0,1-.83.66h-28a.5.5,0,0,1-.51-.66l3.78-16.41.14-.63.07-.32a.89.89,0,0,1,.68-.65.3.3,0,0,1,.13,0h28A.52.52,0,0,1,210.44,48.27Z"/><path class="cls-6" d="M175.13,66.29a.66.66,0,0,1-.67-.66V38.93a.66.66,0,0,1,.67-.67h7.59l.28.15,2.07,3.11a1.72,1.72,0,0,0,1.39.74h16.7a.66.66,0,0,1,.67.67v3.34H182a2.11,2.11,0,0,0-2.12,1.59l-4,17.23a1,1,0,0,0,0,.21v.37a1.68,1.68,0,0,0,.13.62Z"/></g><path class="cls-3" d="M210,45.31a1.76,1.76,0,0,0-1.47-.52h-4.82V41.45a2,2,0,0,0-2-2H185l-.27-.14-2.08-3.12a1.68,1.68,0,0,0-1.39-.74h-7.6a2,2,0,0,0-2,2v26.7a2,2,0,0,0,2,2h30.56a2.32,2.32,0,0,0,2.12-1.84l4-17.48A1.72,1.72,0,0,0,210,45.31ZM173.65,64.82a.67.67,0,0,1-.67-.67V37.45a.67.67,0,0,1,.67-.67h7.6l.28.15L183.6,40a1.69,1.69,0,0,0,1.39.75h16.7a.65.65,0,0,1,.66.66v3.34H180.47a2.14,2.14,0,0,0-2.12,1.59l-4,17.23a2.07,2.07,0,0,0,0,.22v.36a1.73,1.73,0,0,0,.13.63Zm35.31-18-.76,3.34-3.07,13.35-.16.67a.89.89,0,0,1-.83.67h-28a.52.52,0,0,1-.51-.67l3.78-16.41.15-.63.06-.32a.9.9,0,0,1,.68-.65h28.17A.51.51,0,0,1,209,46.79Z"/><path class="cls-2" d="M209,46.79l-.76,3.34-3.07,13.35-.16.67a.89.89,0,0,1-.83.67h-28a.52.52,0,0,1-.51-.67l3.78-16.41.15-.63.06-.32a.9.9,0,0,1,.68-.65h28.17A.51.51,0,0,1,209,46.79Z"/><path class="cls-2" d="M173.65,64.82a.67.67,0,0,1-.67-.67V37.45a.67.67,0,0,1,.67-.67h7.6l.28.15L183.6,40a1.69,1.69,0,0,0,1.39.75h16.7a.65.65,0,0,1,.66.66v3.34H180.47a2.14,2.14,0,0,0-2.12,1.59l-4,17.23a2.07,2.07,0,0,0,0,.22v.36a1.73,1.73,0,0,0,.13.63Z"/><path class="cls-3" d="M255.18,94.13H127.1a2.39,2.39,0,0,1-2.4-2.4v-77a2.4,2.4,0,0,1,2.4-2.4H255.18a2.41,2.41,0,0,1,2.4,2.4v77A2.4,2.4,0,0,1,255.18,94.13Zm-64-78.39a1.24,1.24,0,1,0-1.23-1.24A1.24,1.24,0,0,0,191.14,15.74Zm-62,.5v75H253.32v-75Z"/></g></g></svg>