<?xml version="1.0" encoding="utf-8"?>
<!-- Generator: Adobe Illustrator 22.0.1, SVG Export Plug-In . SVG Version: 6.00 Build 0)  -->
<svg version="1.1" id="Layer_1" xmlns="http://www.w3.org/2000/svg" xmlns:xlink="http://www.w3.org/1999/xlink" x="0px" y="0px"
	 viewBox="0 0 292.8 157.7" style="enable-background:new 0 0 292.8 157.7;" xml:space="preserve">
<style type="text/css">
	.st0{opacity:0.3;}
	.st1{fill:#2380AF;}
	.st2{fill:#F5F5F5;}
	.st3{fill:#FFD561;}
	.st4{fill:#004D8B;}
	.st5{fill:#396680;}
	.st6{fill:#FFFFFF;}
	.st7{opacity:6.000000e-02;fill:#2380AF;}
	.st8{opacity:0.29;fill:none;stroke:#2380AF;stroke-width:1.1128;stroke-miterlimit:10;stroke-dasharray:5.3835,3.2301;}
	.st9{opacity:6.000000e-02;fill:#396680;}
	.st10{opacity:0.29;fill:none;stroke:#396680;stroke-width:1.1128;stroke-miterlimit:10;stroke-dasharray:5.3835,3.2301;}
	.st11{opacity:0.75;}
</style>
<g>
	<g>
		<g class="st0">
			<path class="st1" d="M286.5,156.8H6.4c-2.3,0-4.2-1.9-4.2-4.2V8.3c0-2.3,1.9-4.2,4.2-4.2h280.1c2.3,0,4.2,1.9,4.2,4.2v144.3
				C290.6,155,288.8,156.8,286.5,156.8z"/>
		</g>
		<g>
			<path class="st2" d="M285.5,155.8H5.4c-2.3,0-4.2-1.9-4.2-4.2V7.3c0-2.3,1.9-4.2,4.2-4.2h280.1c2.3,0,4.2,1.9,4.2,4.2v144.3
				C289.6,154,287.8,155.8,285.5,155.8z"/>
		</g>
	</g>
	<path class="st3" d="M45.7,145.5c-0.1,0.5-0.1,0.9-0.2,1L45.7,145.5z"/>
	<path class="st3" d="M104.2,146.4c-0.1,0.5-0.1,0.9-0.2,1L104.2,146.4z"/>
	<g>
		<g class="st0">
			<path class="st4" d="M276.6,69.1v-5.6c0-1.9-1.5-3.4-3.4-3.4h-7.6h-2.5h-9h-2.5h-6.5l-0.4-0.2l-3.5-5.2c-0.5-0.8-1.4-1.3-2.3-1.3
				h-12.8c-1.9,0-3.4,1.5-3.4,3.4v44.9c0,1.9,1.5,3.4,3.4,3.4h47c1.7,0,3.2-1.4,3.6-3.1V69.1z M274.6,100.6l-0.3,1.1
				c-0.2,0.6-0.8,1.1-1.4,1.1h-42.7h-2.8h-1.3c-0.6,0-1.1-0.5-1.1-1.1V56.7c0-0.6,0.5-1.1,1.1-1.1h12.8l0.5,0.2l3.5,5.2
				c0.5,0.8,1.4,1.3,2.3,1.3h6.5h2.5h9h2.5h7.6c0.6,0,1.1,0.5,1.1,1.1v5.6L274.6,100.6z"/>
			<path class="st4" d="M274.6,100.6l-0.3,1.1c-0.2,0.6-0.8,1.1-1.4,1.1h-42.7h-2.8h-1.3c-0.6,0-1.1-0.5-1.1-1.1V56.7
				c0-0.6,0.5-1.1,1.1-1.1h12.8l0.5,0.2l3.5,5.2c0.5,0.8,1.4,1.3,2.3,1.3h6.5h2.5h9h2.5h7.6c0.6,0,1.1,0.5,1.1,1.1v5.6L274.6,100.6z
				"/>
			<g>
				<g>
					<path class="st4" d="M235.2,88.9l6.2-11.2v-0.1h-5.2c-0.2,0-0.4-0.2-0.4-0.4v-1.7c0-0.2,0.2-0.4,0.4-0.4h8.7
						c0.2,0,0.4,0.2,0.4,0.4v0.3l-6.1,11.3v0h5.3c0.2,0,0.4,0.2,0.4,0.4v1.7c0,0.2-0.2,0.4-0.4,0.4h-8.9c-0.2,0-0.4-0.2-0.4-0.4
						V88.9z"/>
					<path class="st4" d="M247.7,75.6c0-0.2,0.2-0.4,0.4-0.4h1.9c0.2,0,0.4,0.2,0.4,0.4v13.7c0,0.2-0.2,0.4-0.4,0.4h-1.9
						c-0.2,0-0.4-0.2-0.4-0.4V75.6z"/>
					<path class="st4" d="M254.2,75.6c0-0.2,0.2-0.4,0.4-0.4h4.9c2.6,0,4.6,2.1,4.6,4.6c0,2.6-2.1,4.7-4.6,4.7h-2.6v4.9
						c0,0.2-0.2,0.4-0.4,0.4h-1.9c-0.2,0-0.4-0.2-0.4-0.4V75.6z M259.3,81.9c1.2,0,2.1-0.9,2.1-2.2c0-1.1-1-2-2.1-2h-2.4v4.2H259.3z
						"/>
				</g>
				<g>
					<path class="st4" d="M235.2,88.9l6.2-11.2v-0.1h-5.2c-0.2,0-0.4-0.2-0.4-0.4v-1.7c0-0.2,0.2-0.4,0.4-0.4h8.7
						c0.2,0,0.4,0.2,0.4,0.4v0.3l-6.1,11.3v0h5.3c0.2,0,0.4,0.2,0.4,0.4v1.7c0,0.2-0.2,0.4-0.4,0.4h-8.9c-0.2,0-0.4-0.2-0.4-0.4
						V88.9z"/>
					<path class="st4" d="M247.7,75.6c0-0.2,0.2-0.4,0.4-0.4h1.9c0.2,0,0.4,0.2,0.4,0.4v13.7c0,0.2-0.2,0.4-0.4,0.4h-1.9
						c-0.2,0-0.4-0.2-0.4-0.4V75.6z"/>
					<path class="st4" d="M254.2,75.6c0-0.2,0.2-0.4,0.4-0.4h4.9c2.6,0,4.6,2.1,4.6,4.6c0,2.6-2.1,4.7-4.6,4.7h-2.6v4.9
						c0,0.2-0.2,0.4-0.4,0.4h-1.9c-0.2,0-0.4-0.2-0.4-0.4V75.6z M259.3,81.9c1.2,0,2.1-0.9,2.1-2.2c0-1.1-1-2-2.1-2h-2.4v4.2H259.3z
						"/>
				</g>
				<g>
					<path class="st4" d="M235.2,88.9l6.2-11.2v-0.1h-5.2c-0.2,0-0.4-0.2-0.4-0.4v-1.7c0-0.2,0.2-0.4,0.4-0.4h8.7
						c0.2,0,0.4,0.2,0.4,0.4v0.3l-6.1,11.3v0h5.3c0.2,0,0.4,0.2,0.4,0.4v1.7c0,0.2-0.2,0.4-0.4,0.4h-8.9c-0.2,0-0.4-0.2-0.4-0.4
						V88.9z"/>
					<path class="st4" d="M247.7,75.6c0-0.2,0.2-0.4,0.4-0.4h1.9c0.2,0,0.4,0.2,0.4,0.4v13.7c0,0.2-0.2,0.4-0.4,0.4h-1.9
						c-0.2,0-0.4-0.2-0.4-0.4V75.6z"/>
					<path class="st4" d="M254.2,75.6c0-0.2,0.2-0.4,0.4-0.4h4.9c2.6,0,4.6,2.1,4.6,4.6c0,2.6-2.1,4.7-4.6,4.7h-2.6v4.9
						c0,0.2-0.2,0.4-0.4,0.4h-1.9c-0.2,0-0.4-0.2-0.4-0.4V75.6z M259.3,81.9c1.2,0,2.1-0.9,2.1-2.2c0-1.1-1-2-2.1-2h-2.4v4.2H259.3z
						"/>
				</g>
			</g>
			<path class="st4" d="M273.1,65.6V60c0-1.9-1.5-3.4-3.4-3.4h-7.6h-2.5h-9h-2.5h-6.5l-0.4-0.2l-3.5-5.2c-0.5-0.8-1.4-1.3-2.3-1.3
				h-12.8c-1.9,0-3.4,1.5-3.4,3.4v44.9c0,1.9,1.5,3.4,3.4,3.4h47c1.7,0,3.2-1.4,3.6-3.1V65.6z M271.1,97l-0.3,1.1
				c-0.2,0.6-0.8,1.1-1.4,1.1h-42.7h-2.8h-1.3c-0.6,0-1.1-0.5-1.1-1.1V53.2c0-0.6,0.5-1.1,1.1-1.1h12.8l0.5,0.2l3.5,5.2
				c0.5,0.8,1.4,1.3,2.3,1.3h6.5h2.5h9h2.5h7.6c0.6,0,1.1,0.5,1.1,1.1v5.6L271.1,97z"/>
			<path class="st4" d="M271.1,97l-0.3,1.1c-0.2,0.6-0.8,1.1-1.4,1.1h-42.7h-2.8h-1.3c-0.6,0-1.1-0.5-1.1-1.1V53.2
				c0-0.6,0.5-1.1,1.1-1.1h12.8l0.5,0.2l3.5,5.2c0.5,0.8,1.4,1.3,2.3,1.3h6.5h2.5h9h2.5h7.6c0.6,0,1.1,0.5,1.1,1.1v5.6L271.1,97z"/>
			<path class="st4" d="M276.4,90.9h-58.5c-1.6,0-3-1.4-3-3V71.9c0-1.7,1.4-3,3-3h58.5c1.6,0,3,1.3,3,3v15.9
				C279.4,89.5,278,90.9,276.4,90.9z"/>
			<g>
				<g>
					<path class="st4" d="M232.6,86.4l6.2-11.2v-0.1h-5.2c-0.2,0-0.4-0.2-0.4-0.4V73c0-0.2,0.2-0.4,0.4-0.4h8.7
						c0.2,0,0.4,0.2,0.4,0.4v0.3l-6.1,11.3v0h5.3c0.2,0,0.4,0.2,0.4,0.4v1.7c0,0.2-0.2,0.4-0.4,0.4H233c-0.2,0-0.4-0.2-0.4-0.4V86.4
						z"/>
					<path class="st4" d="M245.2,73c0-0.2,0.2-0.4,0.4-0.4h1.9c0.2,0,0.4,0.2,0.4,0.4v13.7c0,0.2-0.2,0.4-0.4,0.4h-1.9
						c-0.2,0-0.4-0.2-0.4-0.4V73z"/>
					<path class="st4" d="M251.7,73c0-0.2,0.2-0.4,0.4-0.4h4.9c2.6,0,4.6,2.1,4.6,4.6c0,2.6-2.1,4.7-4.6,4.7h-2.6v4.9
						c0,0.2-0.2,0.4-0.4,0.4h-1.9c-0.2,0-0.4-0.2-0.4-0.4V73z M256.8,79.4c1.2,0,2.1-0.9,2.1-2.2c0-1.1-1-2-2.1-2h-2.4v4.2H256.8z"
						/>
				</g>
				<g>
					<path class="st4" d="M232.6,86.4l6.2-11.2v-0.1h-5.2c-0.2,0-0.4-0.2-0.4-0.4V73c0-0.2,0.2-0.4,0.4-0.4h8.7
						c0.2,0,0.4,0.2,0.4,0.4v0.3l-6.1,11.3v0h5.3c0.2,0,0.4,0.2,0.4,0.4v1.7c0,0.2-0.2,0.4-0.4,0.4H233c-0.2,0-0.4-0.2-0.4-0.4V86.4
						z"/>
					<path class="st4" d="M245.2,73c0-0.2,0.2-0.4,0.4-0.4h1.9c0.2,0,0.4,0.2,0.4,0.4v13.7c0,0.2-0.2,0.4-0.4,0.4h-1.9
						c-0.2,0-0.4-0.2-0.4-0.4V73z"/>
					<path class="st4" d="M251.7,73c0-0.2,0.2-0.4,0.4-0.4h4.9c2.6,0,4.6,2.1,4.6,4.6c0,2.6-2.1,4.7-4.6,4.7h-2.6v4.9
						c0,0.2-0.2,0.4-0.4,0.4h-1.9c-0.2,0-0.4-0.2-0.4-0.4V73z M256.8,79.4c1.2,0,2.1-0.9,2.1-2.2c0-1.1-1-2-2.1-2h-2.4v4.2H256.8z"
						/>
				</g>
				<g>
					<path class="st4" d="M232.6,86.4l6.2-11.2v-0.1h-5.2c-0.2,0-0.4-0.2-0.4-0.4V73c0-0.2,0.2-0.4,0.4-0.4h8.7
						c0.2,0,0.4,0.2,0.4,0.4v0.3l-6.1,11.3v0h5.3c0.2,0,0.4,0.2,0.4,0.4v1.7c0,0.2-0.2,0.4-0.4,0.4H233c-0.2,0-0.4-0.2-0.4-0.4V86.4
						z"/>
					<path class="st4" d="M245.2,73c0-0.2,0.2-0.4,0.4-0.4h1.9c0.2,0,0.4,0.2,0.4,0.4v13.7c0,0.2-0.2,0.4-0.4,0.4h-1.9
						c-0.2,0-0.4-0.2-0.4-0.4V73z"/>
					<path class="st4" d="M251.7,73c0-0.2,0.2-0.4,0.4-0.4h4.9c2.6,0,4.6,2.1,4.6,4.6c0,2.6-2.1,4.7-4.6,4.7h-2.6v4.9
						c0,0.2-0.2,0.4-0.4,0.4h-1.9c-0.2,0-0.4-0.2-0.4-0.4V73z M256.8,79.4c1.2,0,2.1-0.9,2.1-2.2c0-1.1-1-2-2.1-2h-2.4v4.2H256.8z"
						/>
				</g>
			</g>
		</g>
		<g>
			<path class="st5" d="M274.6,67.1v-5.6c0-1.9-1.5-3.4-3.4-3.4h-7.6h-2.5h-9h-2.5h-6.5l-0.4-0.2l-3.5-5.2c-0.5-0.8-1.4-1.3-2.3-1.3
				h-12.8c-1.9,0-3.4,1.5-3.4,3.4v44.9c0,1.9,1.5,3.4,3.4,3.4h47c1.7,0,3.2-1.4,3.6-3.1V67.1z M272.6,98.6l-0.3,1.1
				c-0.2,0.6-0.8,1.1-1.4,1.1h-42.7h-2.8h-1.3c-0.6,0-1.1-0.5-1.1-1.1V54.7c0-0.6,0.5-1.1,1.1-1.1h12.8l0.5,0.2l3.5,5.2
				c0.5,0.8,1.4,1.3,2.3,1.3h6.5h2.5h9h2.5h7.6c0.6,0,1.1,0.5,1.1,1.1v5.6L272.6,98.6z"/>
			<path class="st6" d="M272.6,98.6l-0.3,1.1c-0.2,0.6-0.8,1.1-1.4,1.1h-42.7h-2.8h-1.3c-0.6,0-1.1-0.5-1.1-1.1V54.7
				c0-0.6,0.5-1.1,1.1-1.1h12.8l0.5,0.2l3.5,5.2c0.5,0.8,1.4,1.3,2.3,1.3h6.5h2.5h9h2.5h7.6c0.6,0,1.1,0.5,1.1,1.1v5.6L272.6,98.6z"
				/>
			<g>
				<g>
					<path class="st6" d="M233.2,86.9l6.2-11.2v-0.1h-5.2c-0.2,0-0.4-0.2-0.4-0.4v-1.7c0-0.2,0.2-0.4,0.4-0.4h8.7
						c0.2,0,0.4,0.2,0.4,0.4v0.3l-6.1,11.3v0h5.3c0.2,0,0.4,0.2,0.4,0.4v1.7c0,0.2-0.2,0.4-0.4,0.4h-8.9c-0.2,0-0.4-0.2-0.4-0.4
						V86.9z"/>
					<path class="st6" d="M245.7,73.6c0-0.2,0.2-0.4,0.4-0.4h1.9c0.2,0,0.4,0.2,0.4,0.4v13.7c0,0.2-0.2,0.4-0.4,0.4h-1.9
						c-0.2,0-0.4-0.2-0.4-0.4V73.6z"/>
					<path class="st6" d="M252.2,73.6c0-0.2,0.2-0.4,0.4-0.4h4.9c2.6,0,4.6,2.1,4.6,4.6c0,2.6-2.1,4.7-4.6,4.7h-2.6v4.9
						c0,0.2-0.2,0.4-0.4,0.4h-1.9c-0.2,0-0.4-0.2-0.4-0.4V73.6z M257.3,79.9c1.2,0,2.1-0.9,2.1-2.2c0-1.1-1-2-2.1-2h-2.4v4.2H257.3z
						"/>
				</g>
			</g>
			<path class="st5" d="M271.1,63.6V58c0-1.9-1.5-3.4-3.4-3.4h-7.6h-2.5h-9h-2.5h-6.5l-0.4-0.2l-3.5-5.2c-0.5-0.8-1.4-1.3-2.3-1.3
				h-12.8c-1.9,0-3.4,1.5-3.4,3.4v44.9c0,1.9,1.5,3.4,3.4,3.4h47c1.7,0,3.2-1.4,3.6-3.1V63.6z M269.1,95l-0.3,1.1
				c-0.2,0.6-0.8,1.1-1.4,1.1h-42.7h-2.8h-1.3c-0.6,0-1.1-0.5-1.1-1.1V51.2c0-0.6,0.5-1.1,1.1-1.1h12.8l0.5,0.2l3.5,5.2
				c0.5,0.8,1.4,1.3,2.3,1.3h6.5h2.5h9h2.5h7.6c0.6,0,1.1,0.5,1.1,1.1v5.6L269.1,95z"/>
			<path class="st6" d="M269.1,95l-0.3,1.1c-0.2,0.6-0.8,1.1-1.4,1.1h-42.7h-2.8h-1.3c-0.6,0-1.1-0.5-1.1-1.1V51.2
				c0-0.6,0.5-1.1,1.1-1.1h12.8l0.5,0.2l3.5,5.2c0.5,0.8,1.4,1.3,2.3,1.3h6.5h2.5h9h2.5h7.6c0.6,0,1.1,0.5,1.1,1.1v5.6L269.1,95z"/>
			<path class="st5" d="M274.4,88.9h-58.5c-1.6,0-3-1.4-3-3V69.9c0-1.7,1.4-3,3-3h58.5c1.6,0,3,1.3,3,3v15.9
				C277.4,87.5,276,88.9,274.4,88.9z"/>
			<g>
				<g>
					<path class="st6" d="M230.6,84.4l6.2-11.2v-0.1h-5.2c-0.2,0-0.4-0.2-0.4-0.4V71c0-0.2,0.2-0.4,0.4-0.4h8.7
						c0.2,0,0.4,0.2,0.4,0.4v0.3l-6.1,11.3v0h5.3c0.2,0,0.4,0.2,0.4,0.4v1.7c0,0.2-0.2,0.4-0.4,0.4H231c-0.2,0-0.4-0.2-0.4-0.4V84.4
						z"/>
					<path class="st6" d="M243.2,71c0-0.2,0.2-0.4,0.4-0.4h1.9c0.2,0,0.4,0.2,0.4,0.4v13.7c0,0.2-0.2,0.4-0.4,0.4h-1.9
						c-0.2,0-0.4-0.2-0.4-0.4V71z"/>
					<path class="st6" d="M249.7,71c0-0.2,0.2-0.4,0.4-0.4h4.9c2.6,0,4.6,2.1,4.6,4.6c0,2.6-2.1,4.7-4.6,4.7h-2.6v4.9
						c0,0.2-0.2,0.4-0.4,0.4h-1.9c-0.2,0-0.4-0.2-0.4-0.4V71z M254.8,77.4c1.2,0,2.1-0.9,2.1-2.2c0-1.1-1-2-2.1-2h-2.4v4.2H254.8z"
						/>
				</g>
			</g>
		</g>
	</g>
	<g>
		<path class="st5" d="M199.1,51.6l-3.3-2.4l0.8,4.7c-33.6-21.8-63.2,2.9-63.5,3.2c-0.6,0.5-0.7,1.4-0.2,2c0.3,0.3,0.7,0.5,1.1,0.5
			c0.3,0,0.6-0.1,0.9-0.3c0.1-0.1,7.4-6.3,18.7-9.5c14.3-4.2,28.2-2,41.3,6.5l-4.6,0.7l3.3,2.4l6.6-1.1L199.1,51.6z"/>
	</g>
	<g>
		<path class="st5" d="M199.1,104.6l-3.3,2.4l0.8-4.7C162.9,124,133.3,99.3,133,99c-0.6-0.5-0.7-1.4-0.2-2c0.3-0.3,0.7-0.5,1.1-0.5
			c0.3,0,0.6,0.1,0.9,0.3c0.1,0.1,7.4,6.3,18.7,9.5c14.3,4.2,28.2,2,41.3-6.5l-4.6-0.7l3.3-2.4l6.6,1.1L199.1,104.6z"/>
	</g>
	<path class="st4" d="M16.6,64.7h-0.2v-1C16.4,64,16.5,64.4,16.6,64.7z"/>
	<path class="st4" d="M12.4,56.9c-0.1,0.5-0.1,0.9-0.2,1L12.4,56.9z"/>
	<path class="st4" d="M70.9,57.8c-0.1,0.5-0.1,0.9-0.2,1L70.9,57.8z"/>
	<g>
		<g class="st0">
			<ellipse class="st7" cx="66.2" cy="82.8" rx="57.6" ry="52"/>
			<ellipse class="st8" cx="66.2" cy="82.8" rx="57.6" ry="52"/>
		</g>
		<g>
			<ellipse class="st9" cx="65.1" cy="81.6" rx="57.6" ry="52"/>
			<ellipse class="st10" cx="65.1" cy="81.6" rx="57.6" ry="52"/>
		</g>
	</g>
	<g class="st11">
		
			<image style="overflow:visible;opacity:0.3;" width="35" height="28" xlink:href="281922D00E1E1F5E.png"  transform="matrix(1 0 0 1 60.5 46.2)">
		</image>
		<g>
			<g>
				<path class="st4" d="M92.2,55.4C91.9,55.1,91.5,55,91,55h-3.8v-2.6c0-0.9-0.7-1.6-1.6-1.6h-3.6h-1.2h-4.2h-1.2h-3.1l-0.2-0.1
					l-1.6-2.4c-0.2-0.4-0.7-0.6-1.1-0.6h-6c-0.9,0-1.6,0.7-1.6,1.6v21c0,0.9,0.7,1.6,1.6,1.6h24c0.8,0,1.5-0.7,1.7-1.4l3.1-13.7
					C92.6,56.2,92.5,55.8,92.2,55.4z M63.6,70.8c-0.3,0-0.5-0.2-0.5-0.5v-21c0-0.3,0.2-0.5,0.5-0.5h6l0.2,0.1l1.6,2.4
					c0.3,0.4,0.7,0.6,1.1,0.6h3.1h1.2h4.2h1.2h3.6c0.3,0,0.5,0.2,0.5,0.5V55H69c-0.8,0-1.5,0.5-1.7,1.2l-3.1,13.6c0,0.1,0,0.1,0,0.2
					v0.3c0,0.2,0,0.3,0.1,0.5H63.6z M91.4,56.6l-0.6,2.6l-2.4,10.5l-0.1,0.5c-0.1,0.3-0.4,0.5-0.7,0.5H65.6c-0.3,0-0.5-0.2-0.4-0.5
					l3-12.9l0.1-0.5l0.1-0.3c0.1-0.3,0.3-0.5,0.5-0.5c0,0,0.1,0,0.1,0H91C91.3,56.1,91.5,56.3,91.4,56.6z"/>
				<path class="st6" d="M91.4,56.6l-0.6,2.6l-2.4,10.5l-0.1,0.5c-0.1,0.3-0.4,0.5-0.7,0.5H65.6c-0.3,0-0.5-0.2-0.4-0.5l3-12.9
					l0.1-0.5l0.1-0.3c0.1-0.3,0.3-0.5,0.5-0.5c0,0,0.1,0,0.1,0H91C91.3,56.1,91.5,56.3,91.4,56.6z"/>
				<path class="st6" d="M63.6,70.8c-0.3,0-0.5-0.2-0.5-0.5v-21c0-0.3,0.2-0.5,0.5-0.5h6l0.2,0.1l1.6,2.4c0.3,0.4,0.7,0.6,1.1,0.6
					h3.1h1.2h4.2h1.2h3.6c0.3,0,0.5,0.2,0.5,0.5V55H69c-0.8,0-1.5,0.5-1.7,1.2l-3.1,13.6c0,0.1,0,0.1,0,0.2v0.3c0,0.2,0,0.3,0.1,0.5
					H63.6z"/>
			</g>
		</g>
	</g>
	<g class="st11">
		
			<image style="overflow:visible;opacity:0.3;" width="21" height="17" xlink:href="281922D00E1E1F5D.png"  transform="matrix(1 0 0 1 39.1214 34.8214)">
		</image>
		<g>
			<g>
				<path class="st4" d="M58.1,40.3c-0.2-0.2-0.4-0.2-0.7-0.2h-2.2v-1.5c0-0.5-0.4-0.9-0.9-0.9h-2.1h-0.7h-2.5h-0.7h-1.8l-0.1-0.1
					l-1-1.4c-0.1-0.2-0.4-0.3-0.6-0.3h-3.5c-0.5,0-0.9,0.4-0.9,0.9v12.3c0,0.5,0.4,0.9,0.9,0.9h14.1c0.5,0,0.9-0.4,1-0.8l1.8-8.1
					C58.3,40.7,58.3,40.5,58.1,40.3z M41.4,49.3c-0.2,0-0.3-0.1-0.3-0.3V36.6c0-0.2,0.1-0.3,0.3-0.3h3.5l0.1,0.1l1,1.4
					c0.1,0.2,0.4,0.3,0.6,0.3h1.8h0.7h2.5h0.7h2.1c0.2,0,0.3,0.1,0.3,0.3V40H44.5c-0.5,0-0.9,0.3-1,0.7l-1.8,7.9c0,0,0,0.1,0,0.1V49
					c0,0.1,0,0.2,0.1,0.3H41.4z M57.6,41l-0.4,1.5l-1.4,6.2l-0.1,0.3c0,0.2-0.2,0.3-0.4,0.3H42.5c-0.2,0-0.3-0.1-0.2-0.3l1.7-7.6
					l0.1-0.3l0-0.1c0-0.1,0.2-0.3,0.3-0.3c0,0,0,0,0.1,0h12.9C57.6,40.6,57.7,40.8,57.6,41z"/>
				<path class="st6" d="M57.6,41l-0.4,1.5l-1.4,6.2l-0.1,0.3c0,0.2-0.2,0.3-0.4,0.3H42.5c-0.2,0-0.3-0.1-0.2-0.3l1.7-7.6l0.1-0.3
					l0-0.1c0-0.1,0.2-0.3,0.3-0.3c0,0,0,0,0.1,0h12.9C57.6,40.6,57.7,40.8,57.6,41z"/>
				<path class="st6" d="M41.4,49.3c-0.2,0-0.3-0.1-0.3-0.3V36.6c0-0.2,0.1-0.3,0.3-0.3h3.5l0.1,0.1l1,1.4c0.1,0.2,0.4,0.3,0.6,0.3
					h1.8h0.7h2.5h0.7h2.1c0.2,0,0.3,0.1,0.3,0.3V40H44.5c-0.5,0-0.9,0.3-1,0.7l-1.8,7.9c0,0,0,0.1,0,0.1V49c0,0.1,0,0.2,0.1,0.3
					H41.4z"/>
			</g>
		</g>
	</g>
	<g class="st11">
		
			<image style="overflow:visible;opacity:0.3;" width="34" height="28" xlink:href="281922D00E1E1F5A.png"  transform="matrix(1 0 0 1 68.5 80.2)">
		</image>
		<g>
			<g>
				<path class="st4" d="M100.2,89.7c-0.3-0.3-0.7-0.4-1.2-0.4h-3.8v-2.6c0-0.9-0.7-1.6-1.6-1.6h-3.6h-1.2h-4.2h-1.2h-3.1L80.3,85
					l-1.6-2.4c-0.2-0.4-0.7-0.6-1.1-0.6h-6c-0.9,0-1.6,0.7-1.6,1.6v21c0,0.9,0.7,1.6,1.6,1.6h24c0.8,0,1.5-0.7,1.7-1.4l3.1-13.7
					C100.6,90.4,100.5,90,100.2,89.7z M71.6,105c-0.3,0-0.5-0.2-0.5-0.5v-21c0-0.3,0.2-0.5,0.5-0.5h6l0.2,0.1l1.6,2.4
					c0.3,0.4,0.7,0.6,1.1,0.6h3.1h1.2h4.2h1.2h3.6c0.3,0,0.5,0.2,0.5,0.5v2.6H77c-0.8,0-1.5,0.5-1.7,1.2l-3.1,13.6
					c0,0.1,0,0.1,0,0.2v0.3c0,0.2,0,0.3,0.1,0.5H71.6z M99.4,90.9l-0.6,2.6L96.4,104l-0.1,0.5c-0.1,0.3-0.4,0.5-0.7,0.5H73.5
					c-0.3,0-0.5-0.2-0.4-0.5l3-12.9l0.1-0.5l0.1-0.3c0.1-0.3,0.3-0.5,0.5-0.5c0,0,0.1,0,0.1,0H99C99.3,90.3,99.4,90.6,99.4,90.9z"/>
				<path class="st6" d="M99.4,90.9l-0.6,2.6L96.4,104l-0.1,0.5c-0.1,0.3-0.4,0.5-0.7,0.5H73.5c-0.3,0-0.5-0.2-0.4-0.5l3-12.9
					l0.1-0.5l0.1-0.3c0.1-0.3,0.3-0.5,0.5-0.5c0,0,0.1,0,0.1,0H99C99.3,90.3,99.4,90.6,99.4,90.9z"/>
				<path class="st6" d="M71.6,105c-0.3,0-0.5-0.2-0.5-0.5v-21c0-0.3,0.2-0.5,0.5-0.5h6l0.2,0.1l1.6,2.4c0.3,0.4,0.7,0.6,1.1,0.6
					h3.1h1.2h4.2h1.2h3.6c0.3,0,0.5,0.2,0.5,0.5v2.6H77c-0.8,0-1.5,0.5-1.7,1.2l-3.1,13.6c0,0.1,0,0.1,0,0.2v0.3
					c0,0.2,0,0.3,0.1,0.5H71.6z"/>
			</g>
		</g>
	</g>
	<g class="st11">
		
			<image style="overflow:visible;opacity:0.3;" width="26" height="24" xlink:href="281922D00E1E1F55.png"  transform="matrix(1 0 0 1 104.8358 62.5358)">
		</image>
		<g>
			<g>
				<path class="st4" d="M128.1,70.1c-0.2-0.3-0.5-0.3-0.8-0.3h-2.8v-2.2c0-0.7-0.5-1.3-1.1-1.3h-2.6h-0.8h-3.1H116h-2.2l-0.2-0.1
					l-1.2-2c-0.2-0.3-0.5-0.5-0.8-0.5h-4.4c-0.6,0-1.1,0.6-1.1,1.3v17.3c0,0.7,0.5,1.3,1.1,1.3h17.5c0.6,0,1.1-0.6,1.2-1.2l2.3-11.4
					C128.4,70.7,128.3,70.4,128.1,70.1z M107.3,82.8c-0.2,0-0.4-0.2-0.4-0.4V65c0-0.2,0.2-0.4,0.4-0.4h4.4l0.2,0.1l1.2,2
					c0.2,0.3,0.5,0.5,0.8,0.5h2.2h0.8h3.1h0.8h2.6c0.2,0,0.4,0.2,0.4,0.4v2.2h-12.5c-0.6,0-1.1,0.4-1.2,1L107.7,82
					c0,0.1,0,0.1,0,0.1v0.2c0,0.1,0,0.3,0.1,0.4H107.3z M127.6,71.1l-0.4,2.2l-1.8,8.7l-0.1,0.4c-0.1,0.2-0.3,0.4-0.5,0.4h-16.1
					c-0.2,0-0.3-0.2-0.3-0.4l2.2-10.7l0.1-0.4l0-0.2c0-0.2,0.2-0.4,0.4-0.4c0,0,0.1,0,0.1,0h16.1C127.5,70.7,127.6,70.8,127.6,71.1z
					"/>
				<path class="st6" d="M127.6,71.1l-0.4,2.2l-1.8,8.7l-0.1,0.4c-0.1,0.2-0.3,0.4-0.5,0.4h-16.1c-0.2,0-0.3-0.2-0.3-0.4l2.2-10.7
					l0.1-0.4l0-0.2c0-0.2,0.2-0.4,0.4-0.4c0,0,0.1,0,0.1,0h16.1C127.5,70.7,127.6,70.8,127.6,71.1z"/>
				<path class="st6" d="M107.3,82.8c-0.2,0-0.4-0.2-0.4-0.4V65c0-0.2,0.2-0.4,0.4-0.4h4.4l0.2,0.1l1.2,2c0.2,0.3,0.5,0.5,0.8,0.5
					h2.2h0.8h3.1h0.8h2.6c0.2,0,0.4,0.2,0.4,0.4v2.2h-12.5c-0.6,0-1.1,0.4-1.2,1L107.7,82c0,0.1,0,0.1,0,0.1v0.2
					c0,0.1,0,0.3,0.1,0.4H107.3z"/>
			</g>
		</g>
	</g>
	<g class="st11">
		
			<image style="overflow:visible;opacity:0.3;" width="27" height="24" xlink:href="281922D00E1E1F54.png"  transform="matrix(1 0 0 1 8.8358 49.5358)">
		</image>
		<g>
			<g>
				<path class="st4" d="M32.4,57.5c-0.2-0.3-0.5-0.3-0.8-0.3h-2.8V55c0-0.7-0.5-1.3-1.1-1.3h-2.6h-0.8h-3.1h-0.8h-2.2L18,53.6
					l-1.2-2c-0.2-0.3-0.5-0.5-0.8-0.5h-4.4c-0.6,0-1.1,0.6-1.1,1.3v17.3c0,0.7,0.5,1.3,1.1,1.3h17.5c0.6,0,1.1-0.6,1.2-1.2l2.3-11.4
					C32.7,58.1,32.6,57.8,32.4,57.5z M11.6,70.1c-0.2,0-0.4-0.2-0.4-0.4V52.4c0-0.2,0.2-0.4,0.4-0.4H16l0.2,0.1l1.2,2
					c0.2,0.3,0.5,0.5,0.8,0.5h2.2h0.8h3.1h0.8h2.6c0.2,0,0.4,0.2,0.4,0.4v2.2H15.5c-0.6,0-1.1,0.4-1.2,1L12,69.4c0,0.1,0,0.1,0,0.1
					v0.2c0,0.1,0,0.3,0.1,0.4H11.6z M31.9,58.4l-0.4,2.2l-1.8,8.7l-0.1,0.4c-0.1,0.2-0.3,0.4-0.5,0.4H13c-0.2,0-0.3-0.2-0.3-0.4
					L14.9,59l0.1-0.4l0-0.2c0-0.2,0.2-0.4,0.4-0.4c0,0,0.1,0,0.1,0h16.1C31.8,58,31.9,58.2,31.9,58.4z"/>
				<path class="st6" d="M31.9,58.4l-0.4,2.2l-1.8,8.7l-0.1,0.4c-0.1,0.2-0.3,0.4-0.5,0.4H13c-0.2,0-0.3-0.2-0.3-0.4L14.9,59
					l0.1-0.4l0-0.2c0-0.2,0.2-0.4,0.4-0.4c0,0,0.1,0,0.1,0h16.1C31.8,58,31.9,58.2,31.9,58.4z"/>
				<path class="st6" d="M11.6,70.1c-0.2,0-0.4-0.2-0.4-0.4V52.4c0-0.2,0.2-0.4,0.4-0.4H16l0.2,0.1l1.2,2c0.2,0.3,0.5,0.5,0.8,0.5
					h2.2h0.8h3.1h0.8h2.6c0.2,0,0.4,0.2,0.4,0.4v2.2H15.5c-0.6,0-1.1,0.4-1.2,1L12,69.4c0,0.1,0,0.1,0,0.1v0.2c0,0.1,0,0.3,0.1,0.4
					H11.6z"/>
			</g>
		</g>
	</g>
	<g class="st11">
		
			<image style="overflow:visible;opacity:0.3;" width="34" height="28" xlink:href="281922D00E1E1F53.png"  transform="matrix(1 0 0 1 25.5 81.2)">
		</image>
		<g>
			<g>
				<path class="st4" d="M57.2,90.4C56.9,90.1,56.5,90,56,90h-3.8v-2.6c0-0.9-0.7-1.6-1.6-1.6h-3.6h-1.2h-4.2h-1.2h-3.1l-0.2-0.1
					l-1.6-2.4c-0.2-0.4-0.7-0.6-1.1-0.6h-6c-0.9,0-1.6,0.7-1.6,1.6v21c0,0.9,0.7,1.6,1.6,1.6h24c0.8,0,1.5-0.7,1.7-1.4l3.1-13.7
					C57.5,91.1,57.4,90.7,57.2,90.4z M28.6,105.7c-0.3,0-0.5-0.2-0.5-0.5v-21c0-0.3,0.2-0.5,0.5-0.5h6l0.2,0.1l1.6,2.4
					c0.3,0.4,0.7,0.6,1.1,0.6h3.1h1.2h4.2h1.2h3.6c0.3,0,0.5,0.2,0.5,0.5V90H34c-0.8,0-1.5,0.5-1.7,1.2l-3.1,13.6c0,0.1,0,0.1,0,0.2
					v0.3c0,0.2,0,0.3,0.1,0.5H28.6z M56.4,91.6l-0.6,2.6l-2.4,10.5l-0.1,0.5c-0.1,0.3-0.4,0.5-0.7,0.5H30.5c-0.3,0-0.5-0.2-0.4-0.5
					l3-12.9l0.1-0.5l0.1-0.3c0.1-0.3,0.3-0.5,0.5-0.5c0,0,0.1,0,0.1,0H56C56.2,91,56.4,91.3,56.4,91.6z"/>
				<path class="st6" d="M56.4,91.6l-0.6,2.6l-2.4,10.5l-0.1,0.5c-0.1,0.3-0.4,0.5-0.7,0.5H30.5c-0.3,0-0.5-0.2-0.4-0.5l3-12.9
					l0.1-0.5l0.1-0.3c0.1-0.3,0.3-0.5,0.5-0.5c0,0,0.1,0,0.1,0H56C56.2,91,56.4,91.3,56.4,91.6z"/>
				<path class="st6" d="M28.6,105.7c-0.3,0-0.5-0.2-0.5-0.5v-21c0-0.3,0.2-0.5,0.5-0.5h6l0.2,0.1l1.6,2.4c0.3,0.4,0.7,0.6,1.1,0.6
					h3.1h1.2h4.2h1.2h3.6c0.3,0,0.5,0.2,0.5,0.5V90H34c-0.8,0-1.5,0.5-1.7,1.2l-3.1,13.6c0,0.1,0,0.1,0,0.2v0.3c0,0.2,0,0.3,0.1,0.5
					H28.6z"/>
			</g>
		</g>
	</g>
	<g class="st11">
		
			<image style="overflow:visible;opacity:0.3;" width="30" height="25" xlink:href="281922D00E1E1F68.png"  transform="matrix(1 0 0 1 44.7478 114.4478)">
		</image>
		<g>
			<g>
				<path class="st4" d="M71.4,122.7c-0.2-0.3-0.6-0.3-1-0.3h-3.2v-2.2c0-0.7-0.6-1.3-1.3-1.3h-3h-1h-3.5h-1H55l-0.2-0.1l-1.4-2
					c-0.2-0.3-0.5-0.5-0.9-0.5h-5c-0.7,0-1.3,0.6-1.3,1.3V135c0,0.7,0.6,1.3,1.3,1.3h20.1c0.6,0,1.3-0.6,1.4-1.2l2.6-11.5
					C71.7,123.3,71.6,123,71.4,122.7z M47.5,135.5c-0.2,0-0.4-0.2-0.4-0.4v-17.5c0-0.2,0.2-0.4,0.4-0.4h5l0.2,0.1l1.4,2
					c0.2,0.3,0.6,0.5,0.9,0.5h2.6h1H62h1h3c0.2,0,0.4,0.2,0.4,0.4v2.2H52c-0.6,0-1.2,0.4-1.4,1L48,134.7c0,0.1,0,0.1,0,0.1v0.2
					c0,0.1,0,0.3,0.1,0.4H47.5z M70.7,123.6l-0.5,2.2l-2,8.8l-0.1,0.4c-0.1,0.2-0.3,0.4-0.5,0.4H49.1c-0.2,0-0.4-0.2-0.3-0.4
					l2.5-10.8l0.1-0.4l0-0.2c0-0.2,0.2-0.4,0.4-0.4c0,0,0.1,0,0.1,0h18.4C70.6,123.2,70.8,123.4,70.7,123.6z"/>
				<path class="st6" d="M70.7,123.6l-0.5,2.2l-2,8.8l-0.1,0.4c-0.1,0.2-0.3,0.4-0.5,0.4H49.1c-0.2,0-0.4-0.2-0.3-0.4l2.5-10.8
					l0.1-0.4l0-0.2c0-0.2,0.2-0.4,0.4-0.4c0,0,0.1,0,0.1,0h18.4C70.6,123.2,70.8,123.4,70.7,123.6z"/>
				<path class="st6" d="M47.5,135.5c-0.2,0-0.4-0.2-0.4-0.4v-17.5c0-0.2,0.2-0.4,0.4-0.4h5l0.2,0.1l1.4,2c0.2,0.3,0.6,0.5,0.9,0.5
					h2.6h1H62h1h3c0.2,0,0.4,0.2,0.4,0.4v2.2H52c-0.6,0-1.2,0.4-1.4,1L48,134.7c0,0.1,0,0.1,0,0.1v0.2c0,0.1,0,0.3,0.1,0.4H47.5z"/>
			</g>
		</g>
	</g>
</g>
</svg>
