<svg id="Layer_1" data-name="Layer 1" xmlns="http://www.w3.org/2000/svg" viewBox="0 0 290.88 124.65"><defs><style>.cls-1{opacity:0.3;}.cls-2,.cls-3{fill:#003144;}.cls-3,.cls-5{opacity:0.05;}.cls-4{fill:#fff;}.cls-5,.cls-6{fill:#004d8b;}</style></defs><title>Artboard 2</title><g class="cls-1"><rect class="cls-2" x="121.4" y="20.67" width="36.58" height="81.46"/><rect class="cls-3" x="123.25" y="26.22" width="32.47" height="66.04"/><path class="cls-2" d="M157.57,103.24H121.43a3,3,0,0,1-3-3V23a3,3,0,0,1,3-3h36.14a3,3,0,0,1,3,3v77.26A3,3,0,0,1,157.57,103.24ZM139.5,95A3.58,3.58,0,1,0,143,98.55,3.54,3.54,0,0,0,139.5,95ZM134,23.17h11a.7.7,0,0,0,0-1.39H134a.7.7,0,0,0,0,1.39Zm-12,1.47V93.76h35V24.64Z"/></g><rect class="cls-4" x="120.4" y="18.67" width="36.58" height="81.46"/><rect class="cls-5" x="122.25" y="24.22" width="32.47" height="66.04"/><path class="cls-6" d="M156.57,101.24H120.43a3,3,0,0,1-3-3V21a3,3,0,0,1,3-3h36.14a3,3,0,0,1,3,3V98.24A3,3,0,0,1,156.57,101.24ZM138.5,93A3.58,3.58,0,1,0,142,96.55,3.54,3.54,0,0,0,138.5,93ZM133,21.17h11a.7.7,0,0,0,0-1.39H133a.7.7,0,0,0,0,1.39Zm-12,1.47V91.76h35V22.64Z"/><g class="cls-1"><path class="cls-2" d="M138.37,46.49a2.85,2.85,0,0,1-2-.87,2.82,2.82,0,0,1-.81-2l.17-15.05a2.87,2.87,0,0,1,2.86-2.83h1a2.87,2.87,0,0,1,2.83,2.9l-.18,15.05a2.87,2.87,0,0,1-2.86,2.83Z"/><path class="cls-2" d="M138.58,26.21h1a2.37,2.37,0,0,1,2.34,2.39l-.18,15A2.36,2.36,0,0,1,139.38,46h-1a2.36,2.36,0,0,1-2.33-2.39l.17-15.06a2.36,2.36,0,0,1,2.36-2.33m0-1a3.37,3.37,0,0,0-3.36,3.32l-.17,15.06a3.37,3.37,0,0,0,3.32,3.4h1a3.38,3.38,0,0,0,3.4-3.32l.18-15.06a3.36,3.36,0,0,0-3.33-3.4h-1Z"/><path class="cls-2" d="M150.68,51.69a2.82,2.82,0,0,1-2.05-.86l-.68-.69a2.92,2.92,0,0,1-.82-2,2.83,2.83,0,0,1,.87-2l10.76-10.52a2.86,2.86,0,0,1,4.05,0l.68.7a2.86,2.86,0,0,1,.81,2,2.77,2.77,0,0,1-.86,2L152.68,50.88A2.87,2.87,0,0,1,150.68,51.69Z"/><path class="cls-2" d="M160.76,35.25a2.35,2.35,0,0,1,1.69.71l.68.7a2.36,2.36,0,0,1,0,3.34L152.33,50.52a2.37,2.37,0,0,1-3.34,0l-.68-.69a2.36,2.36,0,0,1,0-3.34l10.76-10.53a2.4,2.4,0,0,1,1.65-.67m0-1h0a3.36,3.36,0,0,0-2.35,1L147.65,45.73a3.37,3.37,0,0,0-1,2.37,3.32,3.32,0,0,0,1,2.38l.68.7a3.35,3.35,0,0,0,2.41,1,3.32,3.32,0,0,0,2.34-1l10.77-10.52a3.36,3.36,0,0,0,.06-4.75l-.68-.7a3.35,3.35,0,0,0-2.41-1Z"/><path class="cls-2" d="M155,63.35a2.85,2.85,0,0,1-2.83-2.89v-1A2.87,2.87,0,0,1,155,56.66l15.09.17a2.87,2.87,0,0,1,2,.86,2.83,2.83,0,0,1,.82,2v1A2.88,2.88,0,0,1,170,63.53Z"/><path class="cls-2" d="M155,57.16h0l15.05.17a2.37,2.37,0,0,1,2.34,2.39v1A2.37,2.37,0,0,1,170,63h0L155,62.85a2.35,2.35,0,0,1-2.33-2.39v-1A2.36,2.36,0,0,1,155,57.16m0-1a3.37,3.37,0,0,0-3.36,3.32v1a3.36,3.36,0,0,0,3.32,3.4L170,64a3.4,3.4,0,0,0,3.41-3.33v-1a3.37,3.37,0,0,0-3.33-3.4L155,56.16h0Z"/><path class="cls-2" d="M116.75,85a2.81,2.81,0,0,1-2-.86l-.68-.69a2.83,2.83,0,0,1-.82-2,2.87,2.87,0,0,1,.86-2l10.77-10.52a2.85,2.85,0,0,1,4,0l.68.69a2.87,2.87,0,0,1,0,4.05L118.75,84.17A2.87,2.87,0,0,1,116.75,85Z"/><path class="cls-2" d="M126.84,68.54a2.37,2.37,0,0,1,1.69.71l.68.7a2.37,2.37,0,0,1,0,3.34L118.4,83.81a2.37,2.37,0,0,1-3.34,0l-.68-.69a2.37,2.37,0,0,1,0-3.34l10.77-10.52a2.37,2.37,0,0,1,1.65-.68m0-1h0a3.34,3.34,0,0,0-2.35,1L113.72,79a3.37,3.37,0,0,0,0,4.76l.68.69a3.37,3.37,0,0,0,4.75.06L129.87,74a3.36,3.36,0,0,0,0-4.76l-.67-.69a3.34,3.34,0,0,0-2.41-1Z"/><path class="cls-2" d="M107.43,62.91A2.87,2.87,0,0,1,104.6,60V59a2.87,2.87,0,0,1,2.86-2.83l15.09.17a2.89,2.89,0,0,1,2.83,2.9v1a2.87,2.87,0,0,1-2.86,2.83Z"/><path class="cls-2" d="M107.47,56.71h0l15,.17a2.37,2.37,0,0,1,2.34,2.39v1a2.36,2.36,0,0,1-2.36,2.33h0l-15.06-.17A2.36,2.36,0,0,1,105.1,60V59a2.36,2.36,0,0,1,2.36-2.33m0-1A3.37,3.37,0,0,0,104.11,59v1a3.38,3.38,0,0,0,3.32,3.41l15.06.17a3.38,3.38,0,0,0,3.4-3.32v-1a3.38,3.38,0,0,0-3.32-3.4l-15.06-.17h0Z"/><path class="cls-2" d="M127,51.49a2.82,2.82,0,0,1-2-.86L114.46,39.86a2.86,2.86,0,0,1,0-4l.7-.68a2.84,2.84,0,0,1,2-.82,2.88,2.88,0,0,1,2,.86L129.77,46a2.87,2.87,0,0,1-.05,4l-.69.68A2.87,2.87,0,0,1,127,51.49Z"/><path class="cls-2" d="M117.2,34.82a2.37,2.37,0,0,1,1.69.71L129.41,46.3a2.37,2.37,0,0,1,0,3.34l-.69.68a2.37,2.37,0,0,1-3.34,0L114.81,39.51a2.37,2.37,0,0,1,0-3.34l.7-.68a2.34,2.34,0,0,1,1.65-.67m0-1h0a3.34,3.34,0,0,0-2.35,1l-.7.68a3.36,3.36,0,0,0-.05,4.75L124.62,51A3.35,3.35,0,0,0,127,52a3.32,3.32,0,0,0,2.34-1l.7-.67a3.38,3.38,0,0,0,.06-4.76L119.6,34.83a3.33,3.33,0,0,0-2.4-1Z"/></g><path class="cls-6" d="M137.37,44.49a2.85,2.85,0,0,1-2-.87,2.82,2.82,0,0,1-.81-2l.17-15.05a2.87,2.87,0,0,1,2.86-2.83h1a2.87,2.87,0,0,1,2.83,2.9l-.18,15.05a2.87,2.87,0,0,1-2.86,2.83Z"/><path class="cls-4" d="M137.58,24.21h1a2.37,2.37,0,0,1,2.34,2.39l-.18,15A2.36,2.36,0,0,1,138.38,44h-1a2.36,2.36,0,0,1-2.33-2.39l.17-15.06a2.36,2.36,0,0,1,2.36-2.33m0-1a3.37,3.37,0,0,0-3.36,3.32l-.17,15.06a3.37,3.37,0,0,0,3.32,3.4h1a3.38,3.38,0,0,0,3.4-3.32l.18-15.06a3.36,3.36,0,0,0-3.33-3.4h-1Z"/><path class="cls-6" d="M149.68,49.69a2.82,2.82,0,0,1-2.05-.86l-.68-.69a2.92,2.92,0,0,1-.82-2,2.83,2.83,0,0,1,.87-2l10.76-10.52a2.86,2.86,0,0,1,4.05,0l.68.7a2.86,2.86,0,0,1,.81,2,2.77,2.77,0,0,1-.86,2L151.68,48.88A2.87,2.87,0,0,1,149.68,49.69Z"/><path class="cls-4" d="M159.76,33.25a2.35,2.35,0,0,1,1.69.71l.68.7a2.36,2.36,0,0,1,0,3.34L151.33,48.52a2.37,2.37,0,0,1-3.34,0l-.68-.69a2.36,2.36,0,0,1,0-3.34l10.76-10.53a2.4,2.4,0,0,1,1.65-.67m0-1h0a3.36,3.36,0,0,0-2.35,1L146.65,43.73a3.37,3.37,0,0,0-1,2.37,3.32,3.32,0,0,0,1,2.38l.68.7a3.35,3.35,0,0,0,2.41,1,3.32,3.32,0,0,0,2.34-1l10.77-10.52a3.36,3.36,0,0,0,.06-4.75l-.68-.7a3.35,3.35,0,0,0-2.41-1Z"/><path class="cls-6" d="M154,61.35a2.85,2.85,0,0,1-2.83-2.89v-1A2.87,2.87,0,0,1,154,54.66l15.09.17a2.87,2.87,0,0,1,2,.86,2.83,2.83,0,0,1,.82,2v1A2.88,2.88,0,0,1,169,61.53Z"/><path class="cls-4" d="M154,55.16h0l15.05.17a2.37,2.37,0,0,1,2.34,2.39v1A2.37,2.37,0,0,1,169,61h0L154,60.85a2.35,2.35,0,0,1-2.33-2.39v-1A2.36,2.36,0,0,1,154,55.16m0-1a3.37,3.37,0,0,0-3.36,3.32v1a3.36,3.36,0,0,0,3.32,3.4L169,62a3.4,3.4,0,0,0,3.41-3.33v-1a3.37,3.37,0,0,0-3.33-3.4L154,54.16h0Z"/><path class="cls-6" d="M115.75,83a2.81,2.81,0,0,1-2-.86l-.68-.69a2.83,2.83,0,0,1-.82-2,2.87,2.87,0,0,1,.86-2l10.77-10.52a2.85,2.85,0,0,1,4,0l.68.69a2.87,2.87,0,0,1,0,4.05L117.75,82.17A2.87,2.87,0,0,1,115.75,83Z"/><path class="cls-4" d="M125.84,66.54a2.37,2.37,0,0,1,1.69.71l.68.7a2.37,2.37,0,0,1,0,3.34L117.4,81.81a2.37,2.37,0,0,1-3.34,0l-.68-.69a2.37,2.37,0,0,1,0-3.34l10.77-10.52a2.37,2.37,0,0,1,1.65-.68m0-1h0a3.34,3.34,0,0,0-2.35,1L112.72,77a3.37,3.37,0,0,0,0,4.76l.68.69a3.37,3.37,0,0,0,4.75.06L128.87,72a3.36,3.36,0,0,0,0-4.76l-.67-.69a3.34,3.34,0,0,0-2.41-1Z"/><path class="cls-6" d="M106.43,60.91A2.87,2.87,0,0,1,103.6,58V57a2.87,2.87,0,0,1,2.86-2.83l15.09.17a2.89,2.89,0,0,1,2.83,2.9v1a2.87,2.87,0,0,1-2.86,2.83Z"/><path class="cls-4" d="M106.47,54.71h0l15,.17a2.37,2.37,0,0,1,2.34,2.39v1a2.36,2.36,0,0,1-2.36,2.33h0l-15.06-.17A2.36,2.36,0,0,1,104.1,58V57a2.36,2.36,0,0,1,2.36-2.33m0-1A3.37,3.37,0,0,0,103.11,57v1a3.38,3.38,0,0,0,3.32,3.41l15.06.17a3.38,3.38,0,0,0,3.4-3.32v-1a3.38,3.38,0,0,0-3.32-3.4l-15.06-.17h0Z"/><path class="cls-6" d="M126,49.49a2.82,2.82,0,0,1-2-.86L113.46,37.86a2.86,2.86,0,0,1,0-4l.7-.68a2.84,2.84,0,0,1,2-.82,2.88,2.88,0,0,1,2,.86L128.77,44a2.87,2.87,0,0,1-.05,4l-.69.68A2.87,2.87,0,0,1,126,49.49Z"/><path class="cls-4" d="M116.2,32.82a2.37,2.37,0,0,1,1.69.71L128.41,44.3a2.37,2.37,0,0,1,0,3.34l-.69.68a2.37,2.37,0,0,1-3.34,0L113.81,37.51a2.37,2.37,0,0,1,0-3.34l.7-.68a2.34,2.34,0,0,1,1.65-.67m0-1h0a3.34,3.34,0,0,0-2.35,1l-.7.68a3.36,3.36,0,0,0-.05,4.75L123.62,49A3.35,3.35,0,0,0,126,50a3.32,3.32,0,0,0,2.34-1l.7-.67a3.38,3.38,0,0,0,.06-4.76L118.6,32.83a3.33,3.33,0,0,0-2.4-1Z"/><g class="cls-1"><path class="cls-2" d="M156.55,112a2,2,0,0,1-1.43-.71L142.4,96.11a4.59,4.59,0,0,0-.59-.58l-7.59-6.64a3.3,3.3,0,0,1-1.12-2.49,3.27,3.27,0,0,1,1.16-2.48,3.11,3.11,0,0,1,2.07-.76,3.5,3.5,0,0,1,2.3.87l6.09,5.33,1.2-.42-8.78-24.61A3.27,3.27,0,0,1,139.6,60a2.48,2.48,0,0,1,.61-.07,3.44,3.44,0,0,1,3.15,2.3L151,83.51l1.56-.56L149,73.15a3.28,3.28,0,0,1,.24-2.72,3.2,3.2,0,0,1,2.22-1.61,3.26,3.26,0,0,1,.62-.06,3.42,3.42,0,0,1,3.14,2.29l3.84,10.75,1.56-.55-2.8-7.83a3.29,3.29,0,0,1,.24-2.72,3.22,3.22,0,0,1,2.22-1.6,3.15,3.15,0,0,1,.61-.06A3.43,3.43,0,0,1,164,71.33l3.53,9.88,1.55-.56-2.39-6.71a3.29,3.29,0,0,1,2-4.2,2.9,2.9,0,0,1,3.82,2.13c0,.06,2.49,7.39,2.87,9.77.31,1.93,2.38,17.17,2.91,21.46a1.53,1.53,0,0,1-1.14,1.61L157,111.91a1.06,1.06,0,0,1-.43.08Z"/><path class="cls-2" d="M140.21,60.57h0a2.8,2.8,0,0,1,2.56,1.88l7.38,20.68.42,1.18,1.18-.42.38-.14,1.18-.42-.42-1.18-3.3-9.21a2.71,2.71,0,0,1,.19-2.21,2.67,2.67,0,0,1,1.81-1.3,2.63,2.63,0,0,1,.49-.05,2.79,2.79,0,0,1,2.55,1.89l3.63,10.15.42,1.18,1.18-.42.38-.13,1.18-.42L161,80.45l-2.59-7.24a2.66,2.66,0,0,1,2-3.5,2.61,2.61,0,0,1,.48,0,2.81,2.81,0,0,1,2.56,1.88l3.32,9.29.42,1.18,1.18-.42.37-.14,1.18-.42-.42-1.18-2.18-6.12a2.66,2.66,0,0,1,1.6-3.4,2.37,2.37,0,0,1,.77-.14,2.52,2.52,0,0,1,2.24,1.87c0,.07,2.48,7.35,2.86,9.68.31,1.93,2.36,17.15,2.89,21.43.08.58-.49.86-.71.94l-20.21,7.22a.71.71,0,0,1-.21,0,1.4,1.4,0,0,1-1-.47L142.88,95.7a6,6,0,0,0-.68-.66l-.08-.07-7.48-6.55a2.66,2.66,0,0,1,0-4,2.53,2.53,0,0,1,1.66-.6,2.84,2.84,0,0,1,1.89.72L144,89.59l.56.49.69-.25.26-.09,1.18-.43-.42-1.18-8.57-24a2.66,2.66,0,0,1,2-3.5,2.72,2.72,0,0,1,.49,0m0-1.25a3.78,3.78,0,0,0-.74.07,3.91,3.91,0,0,0-2.92,5.15l8.57,24-.26.09-5.81-5.09a4.16,4.16,0,0,0-2.72-1,3.73,3.73,0,0,0-2.47.9,3.91,3.91,0,0,0-.05,5.93l7.48,6.54.13.11a3.31,3.31,0,0,1,.5.49l12.72,15.18a2.62,2.62,0,0,0,1.91.93,1.73,1.73,0,0,0,.64-.12l20.2-7.21a2.14,2.14,0,0,0,1.54-2.27c-.54-4.34-2.59-19.51-2.91-21.48-.4-2.46-2.9-9.88-2.9-9.88a3.76,3.76,0,0,0-3.43-2.72,3.69,3.69,0,0,0-1.19.21,3.91,3.91,0,0,0-2.36,5l2.18,6.12-.37.14-3.32-9.29a4,4,0,0,0-3.74-2.71,3.61,3.61,0,0,0-.73.07,3.92,3.92,0,0,0-2.93,5.15l2.59,7.24-.38.13-3.63-10.16a4,4,0,0,0-3.73-2.71,3.72,3.72,0,0,0-.74.08,3.91,3.91,0,0,0-2.93,5.15l3.3,9.21-.38.14L144,62a4,4,0,0,0-3.74-2.71Z"/><path class="cls-2" d="M160.24,121.11a.88.88,0,0,1-.83-.59l-2.17-6.06a.89.89,0,0,1,.54-1.14l19.77-7.07a.76.76,0,0,1,.3,0,.87.87,0,0,1,.83.59l2.17,6.06a.88.88,0,0,1-.53,1.13l-19.78,7.08A.94.94,0,0,1,160.24,121.11Z"/><path class="cls-2" d="M177.85,106.82a.26.26,0,0,1,.24.18l2.17,6.06a.25.25,0,0,1-.16.33l-19.77,7.08-.09,0a.26.26,0,0,1-.24-.18l-2.17-6.06a.26.26,0,0,1,.16-.34l19.77-7.07.09,0m0-1.25a1.48,1.48,0,0,0-.51.09l-19.78,7.07a1.53,1.53,0,0,0-.91,1.94l2.17,6.06a1.51,1.51,0,0,0,1.42,1,1.48,1.48,0,0,0,.51-.09l19.78-7.08a1.51,1.51,0,0,0,.91-1.93l-2.17-6.06a1.51,1.51,0,0,0-1.42-1Z"/></g><path class="cls-4" d="M155.55,110a2,2,0,0,1-1.43-.71L141.4,94.11a4.59,4.59,0,0,0-.59-.58l-7.59-6.64a3.3,3.3,0,0,1-1.12-2.49,3.27,3.27,0,0,1,1.16-2.48,3.11,3.11,0,0,1,2.07-.76,3.5,3.5,0,0,1,2.3.87l6.09,5.33,1.2-.42-8.78-24.61A3.27,3.27,0,0,1,138.6,58a2.48,2.48,0,0,1,.61-.07,3.44,3.44,0,0,1,3.15,2.3L150,81.51l1.56-.56L148,71.15a3.28,3.28,0,0,1,.24-2.72,3.2,3.2,0,0,1,2.22-1.61,3.26,3.26,0,0,1,.62-.06,3.42,3.42,0,0,1,3.14,2.29l3.84,10.75,1.56-.55-2.8-7.83a3.29,3.29,0,0,1,.24-2.72,3.22,3.22,0,0,1,2.22-1.6,3.15,3.15,0,0,1,.61-.06A3.43,3.43,0,0,1,163,69.33l3.53,9.88,1.55-.56-2.39-6.71a3.29,3.29,0,0,1,2-4.2,2.9,2.9,0,0,1,3.82,2.13c0,.06,2.49,7.39,2.87,9.77.31,1.93,2.38,17.17,2.91,21.46a1.53,1.53,0,0,1-1.14,1.61L156,109.91a1.06,1.06,0,0,1-.43.08Z"/><path class="cls-6" d="M139.21,58.57h0a2.8,2.8,0,0,1,2.56,1.88l7.38,20.68.42,1.18,1.18-.42.38-.14,1.18-.42-.42-1.18-3.3-9.21a2.71,2.71,0,0,1,.19-2.21,2.67,2.67,0,0,1,1.81-1.3,2.63,2.63,0,0,1,.49-.05,2.79,2.79,0,0,1,2.55,1.89l3.63,10.15.42,1.18,1.18-.42.38-.13,1.18-.42L160,78.45l-2.59-7.24a2.66,2.66,0,0,1,2-3.5,2.61,2.61,0,0,1,.48,0,2.81,2.81,0,0,1,2.56,1.88l3.32,9.29.42,1.18,1.18-.42.37-.14,1.18-.42-.42-1.18-2.18-6.12a2.66,2.66,0,0,1,1.6-3.4,2.37,2.37,0,0,1,.77-.14,2.52,2.52,0,0,1,2.24,1.87c0,.07,2.48,7.35,2.86,9.68.31,1.93,2.36,17.15,2.89,21.43.08.58-.49.86-.71.94l-20.21,7.22a.71.71,0,0,1-.21,0,1.4,1.4,0,0,1-1-.47L141.88,93.7a6,6,0,0,0-.68-.66l-.08-.07-7.48-6.55a2.66,2.66,0,0,1,0-4,2.53,2.53,0,0,1,1.66-.6,2.84,2.84,0,0,1,1.89.72L143,87.59l.56.49.69-.25.26-.09,1.18-.43-.42-1.18-8.57-24a2.66,2.66,0,0,1,2-3.5,2.72,2.72,0,0,1,.49,0m0-1.25a3.78,3.78,0,0,0-.74.07,3.91,3.91,0,0,0-2.92,5.15l8.57,24-.26.09-5.81-5.09a4.16,4.16,0,0,0-2.72-1,3.73,3.73,0,0,0-2.47.9,3.91,3.91,0,0,0-.05,5.93l7.48,6.54.13.11a3.31,3.31,0,0,1,.5.49l12.72,15.18a2.62,2.62,0,0,0,1.91.93,1.73,1.73,0,0,0,.64-.12l20.2-7.21a2.14,2.14,0,0,0,1.54-2.27c-.54-4.34-2.59-19.51-2.91-21.48-.4-2.46-2.9-9.88-2.9-9.88a3.76,3.76,0,0,0-3.43-2.72,3.69,3.69,0,0,0-1.19.21,3.91,3.91,0,0,0-2.36,5l2.18,6.12-.37.14-3.32-9.29a4,4,0,0,0-3.74-2.71,3.61,3.61,0,0,0-.73.07,3.92,3.92,0,0,0-2.93,5.15l2.59,7.24-.38.13-3.63-10.16a4,4,0,0,0-3.73-2.71,3.72,3.72,0,0,0-.74.08,3.91,3.91,0,0,0-2.93,5.15l3.3,9.21-.38.14L143,60a4,4,0,0,0-3.74-2.71Z"/><path class="cls-4" d="M159.24,119.11a.88.88,0,0,1-.83-.59l-2.17-6.06a.89.89,0,0,1,.54-1.14l19.77-7.07a.76.76,0,0,1,.3,0,.87.87,0,0,1,.83.59l2.17,6.06a.88.88,0,0,1-.53,1.13l-19.78,7.08A.94.94,0,0,1,159.24,119.11Z"/><path class="cls-6" d="M176.85,104.82a.26.26,0,0,1,.24.18l2.17,6.06a.25.25,0,0,1-.16.33l-19.77,7.08-.09,0a.26.26,0,0,1-.24-.18l-2.17-6.06a.26.26,0,0,1,.16-.34l19.77-7.07.09,0m0-1.25a1.48,1.48,0,0,0-.51.09l-19.78,7.07a1.53,1.53,0,0,0-.91,1.94l2.17,6.06a1.51,1.51,0,0,0,1.42,1,1.48,1.48,0,0,0,.51-.09l19.78-7.08a1.51,1.51,0,0,0,.91-1.93l-2.17-6.06a1.51,1.51,0,0,0-1.42-1Z"/></svg>