<svg id="Layer_1" data-name="Layer 1" xmlns="http://www.w3.org/2000/svg" viewBox="0 0 290.88 124.65"><defs><style>.cls-1{opacity:0.3;}.cls-2,.cls-4{fill:#004d8b;}.cls-3{fill:#fff;}.cls-4{opacity:0.05;}</style></defs><title>Artboard 4</title><g class="cls-1"><path class="cls-2" d="M164.64,86.18V81.53a2.77,2.77,0,0,0-2.78-2.78H138.61l-.37-.21-2.9-4.33a2.31,2.31,0,0,0-1.93-1H122.84A2.78,2.78,0,0,0,120.05,76v37.16a2.78,2.78,0,0,0,2.79,2.79h38.85a3.24,3.24,0,0,0,2.95-2.57Zm-1.67,26-.22.93a1.26,1.26,0,0,1-1.16.93H122.84a.92.92,0,0,1-.93-.93V76a.92.92,0,0,1,.93-.93h10.57l.39.2,2.88,4.33a2.35,2.35,0,0,0,1.93,1h23.25a.92.92,0,0,1,.93.93v4.65Z"/><path class="cls-2" d="M163,112.19l-.22.93a1.26,1.26,0,0,1-1.16.93H122.84a.92.92,0,0,1-.93-.93V76a.92.92,0,0,1,.93-.93h10.57l.39.2,2.88,4.33a2.35,2.35,0,0,0,1.93,1h23.25a.92.92,0,0,1,.93.93v4.65Z"/><path class="cls-2" d="M130.37,102.58l5.11-9.24v-.07h-4.29a.34.34,0,0,1-.33-.33V91.52a.35.35,0,0,1,.33-.33h7.18a.34.34,0,0,1,.32.33v.22l-5,9.36v0H138a.33.33,0,0,1,.33.33v1.43a.32.32,0,0,1-.33.32h-7.33a.33.33,0,0,1-.32-.32Z"/><path class="cls-2" d="M140.74,91.52a.35.35,0,0,1,.33-.33h1.59a.34.34,0,0,1,.33.33v11.37a.33.33,0,0,1-.33.32h-1.59a.34.34,0,0,1-.33-.32Z"/><path class="cls-2" d="M146.12,91.52a.33.33,0,0,1,.33-.33h4a3.83,3.83,0,1,1,0,7.66h-2.15v4a.33.33,0,0,1-.32.32h-1.58a.32.32,0,0,1-.33-.32Zm4.22,5.24A1.78,1.78,0,0,0,152.11,95a1.72,1.72,0,0,0-1.77-1.67h-2v3.46Z"/><path class="cls-2" d="M130.37,102.58l5.11-9.24v-.07h-4.29a.34.34,0,0,1-.33-.33V91.52a.35.35,0,0,1,.33-.33h7.18a.34.34,0,0,1,.32.33v.22l-5,9.36v0H138a.33.33,0,0,1,.33.33v1.43a.32.32,0,0,1-.33.32h-7.33a.33.33,0,0,1-.32-.32Z"/><path class="cls-2" d="M140.74,91.52a.35.35,0,0,1,.33-.33h1.59a.34.34,0,0,1,.33.33v11.37a.33.33,0,0,1-.33.32h-1.59a.34.34,0,0,1-.33-.32Z"/><path class="cls-2" d="M146.12,91.52a.33.33,0,0,1,.33-.33h4a3.83,3.83,0,1,1,0,7.66h-2.15v4a.33.33,0,0,1-.32.32h-1.58a.32.32,0,0,1-.33-.32Zm4.22,5.24A1.78,1.78,0,0,0,152.11,95a1.72,1.72,0,0,0-1.77-1.67h-2v3.46Z"/><path class="cls-2" d="M130.37,102.58l5.11-9.24v-.07h-4.29a.34.34,0,0,1-.33-.33V91.52a.35.35,0,0,1,.33-.33h7.18a.34.34,0,0,1,.32.33v.22l-5,9.36v0H138a.33.33,0,0,1,.33.33v1.43a.32.32,0,0,1-.33.32h-7.33a.33.33,0,0,1-.32-.32Z"/><path class="cls-2" d="M140.74,91.52a.35.35,0,0,1,.33-.33h1.59a.34.34,0,0,1,.33.33v11.37a.33.33,0,0,1-.33.32h-1.59a.34.34,0,0,1-.33-.32Z"/><path class="cls-2" d="M146.12,91.52a.33.33,0,0,1,.33-.33h4a3.83,3.83,0,1,1,0,7.66h-2.15v4a.33.33,0,0,1-.32.32h-1.58a.32.32,0,0,1-.33-.32Zm4.22,5.24A1.78,1.78,0,0,0,152.11,95a1.72,1.72,0,0,0-1.77-1.67h-2v3.46Z"/><path class="cls-2" d="M161.73,83.26V78.62a2.78,2.78,0,0,0-2.79-2.79H135.7l-.38-.2-2.89-4.33a2.33,2.33,0,0,0-1.94-1H119.92A2.78,2.78,0,0,0,117.13,73V110.2a2.78,2.78,0,0,0,2.79,2.79h38.85a3.26,3.26,0,0,0,3-2.56Zm-1.68,26-.22.92a1.24,1.24,0,0,1-1.15.93H119.92a.92.92,0,0,1-.93-.93V73a.92.92,0,0,1,.93-.93h10.57l.39.21,2.88,4.33a2.37,2.37,0,0,0,1.94,1h23.24a.92.92,0,0,1,.93.93v4.64Z"/><path class="cls-2" d="M160.05,109.28l-.22.92a1.24,1.24,0,0,1-1.15.93H119.92a.92.92,0,0,1-.93-.93V73a.92.92,0,0,1,.93-.93h10.57l.39.21,2.88,4.33a2.37,2.37,0,0,0,1.94,1h23.24a.92.92,0,0,1,.93.93v4.64Z"/><rect class="cls-2" x="113.6" y="86.04" width="53.32" height="18.15" rx="3" ry="3"/><path class="cls-2" d="M128.28,100.49l5.11-9.24v-.07H129.1a.33.33,0,0,1-.32-.32V89.43a.34.34,0,0,1,.32-.33h7.18a.35.35,0,0,1,.33.33v.22L131.56,99v0h4.38a.32.32,0,0,1,.32.32v1.43a.32.32,0,0,1-.32.32H128.6a.33.33,0,0,1-.32-.32Z"/><path class="cls-2" d="M138.65,89.43a.35.35,0,0,1,.33-.33h1.6a.34.34,0,0,1,.32.33V100.8a.33.33,0,0,1-.32.32H139a.34.34,0,0,1-.33-.32Z"/><path class="cls-2" d="M144,89.43a.33.33,0,0,1,.33-.33h4a3.83,3.83,0,1,1,0,7.66h-2.15v4a.33.33,0,0,1-.32.32h-1.58a.32.32,0,0,1-.33-.32Zm4.23,5.24A1.76,1.76,0,0,0,150,92.88a1.7,1.7,0,0,0-1.76-1.66h-2v3.45Z"/><path class="cls-2" d="M128.28,100.49l5.11-9.24v-.07H129.1a.33.33,0,0,1-.32-.32V89.43a.34.34,0,0,1,.32-.33h7.18a.35.35,0,0,1,.33.33v.22L131.56,99v0h4.38a.32.32,0,0,1,.32.32v1.43a.32.32,0,0,1-.32.32H128.6a.33.33,0,0,1-.32-.32Z"/><path class="cls-2" d="M138.65,89.43a.35.35,0,0,1,.33-.33h1.6a.34.34,0,0,1,.32.33V100.8a.33.33,0,0,1-.32.32H139a.34.34,0,0,1-.33-.32Z"/><path class="cls-2" d="M144,89.43a.33.33,0,0,1,.33-.33h4a3.83,3.83,0,1,1,0,7.66h-2.15v4a.33.33,0,0,1-.32.32h-1.58a.32.32,0,0,1-.33-.32Zm4.23,5.24A1.76,1.76,0,0,0,150,92.88a1.7,1.7,0,0,0-1.76-1.66h-2v3.45Z"/><path class="cls-2" d="M128.28,100.49l5.11-9.24v-.07H129.1a.33.33,0,0,1-.32-.32V89.43a.34.34,0,0,1,.32-.33h7.18a.35.35,0,0,1,.33.33v.22L131.56,99v0h4.38a.32.32,0,0,1,.32.32v1.43a.32.32,0,0,1-.32.32H128.6a.33.33,0,0,1-.32-.32Z"/><path class="cls-2" d="M138.65,89.43a.35.35,0,0,1,.33-.33h1.6a.34.34,0,0,1,.32.33V100.8a.33.33,0,0,1-.32.32H139a.34.34,0,0,1-.33-.32Z"/><path class="cls-2" d="M144,89.43a.33.33,0,0,1,.33-.33h4a3.83,3.83,0,1,1,0,7.66h-2.15v4a.33.33,0,0,1-.32.32h-1.58a.32.32,0,0,1-.33-.32Zm4.23,5.24A1.76,1.76,0,0,0,150,92.88a1.7,1.7,0,0,0-1.76-1.66h-2v3.45Z"/></g><path class="cls-2" d="M163,84.52V79.88a2.79,2.79,0,0,0-2.79-2.79H137l-.37-.2-2.9-4.33a2.33,2.33,0,0,0-1.94-1H121.18a2.78,2.78,0,0,0-2.79,2.78v37.17a2.78,2.78,0,0,0,2.79,2.78H160a3.26,3.26,0,0,0,3-2.56Zm-1.68,26-.22.93a1.23,1.23,0,0,1-1.15.92H121.18a.91.91,0,0,1-.93-.92V74.3a.92.92,0,0,1,.93-.93h10.57l.39.21L135,77.91A2.38,2.38,0,0,0,137,79H160.2a.92.92,0,0,1,.93.93v4.64Z"/><path class="cls-3" d="M161.31,110.54l-.22.93a1.23,1.23,0,0,1-1.15.92H121.18a.91.91,0,0,1-.93-.92V74.3a.92.92,0,0,1,.93-.93h10.57l.39.21L135,77.91A2.38,2.38,0,0,0,137,79H160.2a.92.92,0,0,1,.93.93v4.64Z"/><path class="cls-3" d="M128.71,100.92l5.12-9.23v-.07h-4.29a.34.34,0,0,1-.33-.33V89.86a.33.33,0,0,1,.33-.32h7.17a.34.34,0,0,1,.33.32v.23l-5,9.36v0h4.38a.33.33,0,0,1,.33.33v1.42a.33.33,0,0,1-.33.33H129a.35.35,0,0,1-.33-.33Z"/><path class="cls-3" d="M139.09,89.86a.33.33,0,0,1,.32-.32H141a.34.34,0,0,1,.33.32v11.37a.35.35,0,0,1-.33.33h-1.6a.34.34,0,0,1-.32-.33Z"/><path class="cls-3" d="M144.46,89.86a.32.32,0,0,1,.33-.32h4a3.83,3.83,0,1,1,0,7.66H146.7v4a.35.35,0,0,1-.33.33h-1.58a.33.33,0,0,1-.33-.33Zm4.23,5.24a1.77,1.77,0,0,0,1.77-1.78,1.72,1.72,0,0,0-1.77-1.67h-2V95.1Z"/><path class="cls-2" d="M160.07,81.61V77a2.77,2.77,0,0,0-2.78-2.78H134l-.37-.21-2.9-4.33a2.31,2.31,0,0,0-1.93-1H118.27a2.78,2.78,0,0,0-2.79,2.79v37.16a2.78,2.78,0,0,0,2.79,2.79h38.85a3.24,3.24,0,0,0,2.95-2.57Zm-1.67,26-.22.93a1.26,1.26,0,0,1-1.16.93H118.27a.92.92,0,0,1-.93-.93V71.39a.92.92,0,0,1,.93-.93h10.57l.39.2L132.11,75A2.36,2.36,0,0,0,134,76h23.25a.92.92,0,0,1,.93.93v4.65Z"/><path class="cls-3" d="M158.4,107.62l-.22.93a1.26,1.26,0,0,1-1.16.93H118.27a.92.92,0,0,1-.93-.93V71.39a.92.92,0,0,1,.93-.93h10.57l.39.2L132.11,75A2.36,2.36,0,0,0,134,76h23.25a.92.92,0,0,1,.93.93v4.65Z"/><rect class="cls-2" x="111.94" y="84.38" width="53.32" height="18.15" rx="3" ry="3"/><path class="cls-3" d="M126.62,98.83l5.12-9.23v-.07h-4.29a.35.35,0,0,1-.33-.33V87.78a.34.34,0,0,1,.33-.33h7.17a.33.33,0,0,1,.33.33V88l-5,9.36v0h4.38a.33.33,0,0,1,.33.33v1.42a.33.33,0,0,1-.33.33H127a.34.34,0,0,1-.33-.33Z"/><path class="cls-3" d="M137,87.78a.33.33,0,0,1,.33-.33h1.59a.34.34,0,0,1,.33.33V99.14a.34.34,0,0,1-.33.33h-1.59a.33.33,0,0,1-.33-.33Z"/><path class="cls-3" d="M142.38,87.78a.32.32,0,0,1,.32-.33h4a3.83,3.83,0,1,1,0,7.66h-2.15v4a.34.34,0,0,1-.33.33H142.7a.32.32,0,0,1-.32-.33ZM146.6,93a1.77,1.77,0,0,0,1.77-1.78,1.72,1.72,0,0,0-1.77-1.67h-2V93Z"/><path class="cls-3" d="M147.54,50.65h.33c2.81,0,5.63,0,8.45,0a11.49,11.49,0,0,0,2.47-.29c5.73-1.31,9.53-7.5,8.45-13.71a11.78,11.78,0,0,0-5.13-8.06.48.48,0,0,1-.22-.41c-.06-.76-.1-1.53-.21-2.27-1.43-9.24-9.14-15.7-17.77-14.84-5.32.53-9.45,3.32-12.42,8.11-.12.19-.21.25-.43.19a10.76,10.76,0,0,0-7.27.36,12.3,12.3,0,0,0-7,7.32.53.53,0,0,1-.27.28c-5.39,1.75-8.66,7.42-7.75,13.43.85,5.62,5.49,9.89,10.75,9.9h28Z"/><path class="cls-4" d="M147.5,48.08h.26c2.29,0,4.58,0,6.87,0a10.48,10.48,0,0,0,2-.22,9,9,0,0,0,6.86-10.39,8.88,8.88,0,0,0-4.16-6.11.33.33,0,0,1-.18-.31c0-.58-.08-1.16-.18-1.72a13.39,13.39,0,0,0-14.43-11.25,13.12,13.12,0,0,0-10.09,6.15c-.1.15-.17.19-.35.14a9.45,9.45,0,0,0-5.9.27,9.64,9.64,0,0,0-5.65,5.55.38.38,0,0,1-.22.21,9,9,0,0,0,2.43,17.69H147.5Z"/><g class="cls-1"><path class="cls-2" d="M150.21,50.69V46.62h.38c3.23,0,6.47,0,9.7,0a8.12,8.12,0,0,0,1.86-16l-.26-.08a14.19,14.19,0,0,0-3.58-11.83,13.71,13.71,0,0,0-8.1-4.43,14.22,14.22,0,0,0-16,9.88l-.23-.16a9.15,9.15,0,0,0-14.5,6.09c0,.25-.16.25-.34.26a8.12,8.12,0,0,0,.32,16.24c3.12,0,6.24,0,9.36,0h.37v4.07h-9.92a12.2,12.2,0,0,1-3.32-23.91.57.57,0,0,0,.3-.29,13.07,13.07,0,0,1,7.7-7.5,12.86,12.86,0,0,1,8-.37.36.36,0,0,0,.48-.19,17.88,17.88,0,0,1,13.76-8.31,18.22,18.22,0,0,1,19.67,15.2c.13.77.17,1.55.23,2.33a.49.49,0,0,0,.25.42A12,12,0,0,1,172,36.33a12.17,12.17,0,0,1-9.35,14.05,13.93,13.93,0,0,1-2.74.29c-3.12,0-6.24,0-9.36,0Z"/><path class="cls-2" d="M142.22,44.23V61.78c0,.61-.21.82-.82.82H138c-.61,0-.81-.21-.81-.83,0-3.69,0-13.48,0-17.18v-.35h-5.29c-.25,0-.5,0-.62-.28a.6.6,0,0,1,.19-.71c3-3.07,4.86-6.13,7.82-9.19.31-.32.56-.32.86,0,3,3.07,4.88,6.14,7.85,9.21a.62.62,0,0,1,.17.7c-.11.26-.35.28-.6.28h-5.31Z"/></g><path class="cls-2" d="M148.35,48.83V44.75h.37c3.24,0,6.47,0,9.71,0a8.12,8.12,0,0,0,1.85-15.95L160,28.7a14.15,14.15,0,0,0-3.57-11.83,13.81,13.81,0,0,0-8.1-4.44,14.22,14.22,0,0,0-16,9.89l-.23-.16a9.15,9.15,0,0,0-14.5,6.09c0,.25-.16.25-.34.26a8.12,8.12,0,0,0,.32,16.24h9.73v4.08h-9.92a12.2,12.2,0,0,1-3.32-23.91.52.52,0,0,0,.3-.28,13,13,0,0,1,7.7-7.5,12.86,12.86,0,0,1,8-.37c.24.07.34,0,.47-.19a17.91,17.91,0,0,1,13.77-8.31A18.21,18.21,0,0,1,164,23.46c.13.77.18,1.55.24,2.32a.49.49,0,0,0,.25.43,12,12,0,0,1,5.67,8.26,12.19,12.19,0,0,1-9.35,14.05,13.93,13.93,0,0,1-2.74.29c-3.12,0-6.24,0-9.36,0Z"/><path class="cls-2" d="M140.36,42.37V59.92c0,.61-.21.82-.82.82h-3.43c-.61,0-.82-.21-.82-.83V42.38H130c-.26,0-.5,0-.62-.29a.59.59,0,0,1,.18-.71c3-3.06,4.87-6.12,7.83-9.19a.51.51,0,0,1,.86,0c3,3.07,4.87,6.14,7.84,9.21a.59.59,0,0,1,.18.69c-.12.27-.35.29-.6.29h-5.31Z"/></svg>