<?xml version="1.0" encoding="utf-8"?>
<!-- Generator: Adobe Illustrator 22.0.1, SVG Export Plug-In . SVG Version: 6.00 Build 0)  -->
<svg version="1.1" id="Layer_1" xmlns="http://www.w3.org/2000/svg" xmlns:xlink="http://www.w3.org/1999/xlink" x="0px" y="0px"
	 viewBox="0 0 292.8 157.7" style="enable-background:new 0 0 292.8 157.7;" xml:space="preserve">
<style type="text/css">
	.st0{opacity:0.3;}
	.st1{fill:#2380AF;}
	.st2{fill:#F5F5F5;}
	.st3{fill:#FFD561;}
	.st4{fill:#004D8B;}
	.st5{fill:#FFFFFF;}
	.st6{opacity:6.000000e-02;fill:#2380AF;}
	.st7{opacity:0.29;fill:none;stroke:#2380AF;stroke-width:1.1128;stroke-miterlimit:10;stroke-dasharray:5.3835,3.2301;}
	.st8{opacity:6.000000e-02;fill:#004D8B;}
	.st9{opacity:0.29;fill:none;stroke:#004D8B;stroke-width:1.1128;stroke-miterlimit:10;stroke-dasharray:5.3835,3.2301;}
	.st10{opacity:0.75;}
</style>
<g>
	<g>
		<g class="st0">
			<path class="st1" d="M287.5,155.8H7.4c-2.3,0-4.2-1.9-4.2-4.2V7.3c0-2.3,1.9-4.2,4.2-4.2h280.1c2.3,0,4.2,1.9,4.2,4.2v144.3
				C291.6,154,289.8,155.8,287.5,155.8z"/>
		</g>
		<g>
			<path class="st2" d="M286.5,154.8H6.4c-2.3,0-4.2-1.9-4.2-4.2V6.3c0-2.3,1.9-4.2,4.2-4.2h280.1c2.3,0,4.2,1.9,4.2,4.2v144.3
				C290.6,153,288.8,154.8,286.5,154.8z"/>
		</g>
	</g>
	<path class="st3" d="M46.7,144.5c-0.1,0.5-0.1,0.9-0.2,1L46.7,144.5z"/>
	<path class="st3" d="M105.2,145.4c-0.1,0.5-0.1,0.9-0.2,1L105.2,145.4z"/>
	<g>
		<g class="st0">
			<path class="st4" d="M277.6,68.1v-5.6c0-1.9-1.5-3.4-3.4-3.4h-7.6h-2.5h-9h-2.5h-6.5l-0.4-0.2l-3.5-5.2c-0.5-0.8-1.4-1.3-2.3-1.3
				h-12.8c-1.9,0-3.4,1.5-3.4,3.4v44.9c0,1.9,1.5,3.4,3.4,3.4h47c1.7,0,3.2-1.4,3.6-3.1V68.1z M275.6,99.6l-0.3,1.1
				c-0.2,0.6-0.8,1.1-1.4,1.1h-42.7h-2.8h-1.3c-0.6,0-1.1-0.5-1.1-1.1V55.7c0-0.6,0.5-1.1,1.1-1.1h12.8l0.5,0.2l3.5,5.2
				c0.5,0.8,1.4,1.3,2.3,1.3h6.5h2.5h9h2.5h7.6c0.6,0,1.1,0.5,1.1,1.1v5.6L275.6,99.6z"/>
			<path class="st4" d="M275.6,99.6l-0.3,1.1c-0.2,0.6-0.8,1.1-1.4,1.1h-42.7h-2.8h-1.3c-0.6,0-1.1-0.5-1.1-1.1V55.7
				c0-0.6,0.5-1.1,1.1-1.1h12.8l0.5,0.2l3.5,5.2c0.5,0.8,1.4,1.3,2.3,1.3h6.5h2.5h9h2.5h7.6c0.6,0,1.1,0.5,1.1,1.1v5.6L275.6,99.6z"
				/>
			<g>
				<g>
					<path class="st4" d="M236.2,87.9l6.2-11.2v-0.1h-5.2c-0.2,0-0.4-0.2-0.4-0.4v-1.7c0-0.2,0.2-0.4,0.4-0.4h8.7
						c0.2,0,0.4,0.2,0.4,0.4v0.3l-6.1,11.3v0h5.3c0.2,0,0.4,0.2,0.4,0.4v1.7c0,0.2-0.2,0.4-0.4,0.4h-8.9c-0.2,0-0.4-0.2-0.4-0.4
						V87.9z"/>
					<path class="st4" d="M248.7,74.6c0-0.2,0.2-0.4,0.4-0.4h1.9c0.2,0,0.4,0.2,0.4,0.4v13.7c0,0.2-0.2,0.4-0.4,0.4h-1.9
						c-0.2,0-0.4-0.2-0.4-0.4V74.6z"/>
					<path class="st4" d="M255.2,74.6c0-0.2,0.2-0.4,0.4-0.4h4.9c2.6,0,4.6,2.1,4.6,4.6c0,2.6-2.1,4.7-4.6,4.7h-2.6v4.9
						c0,0.2-0.2,0.4-0.4,0.4h-1.9c-0.2,0-0.4-0.2-0.4-0.4V74.6z M260.3,80.9c1.2,0,2.1-0.9,2.1-2.2c0-1.1-1-2-2.1-2h-2.4v4.2H260.3z
						"/>
				</g>
				<g>
					<path class="st4" d="M236.2,87.9l6.2-11.2v-0.1h-5.2c-0.2,0-0.4-0.2-0.4-0.4v-1.7c0-0.2,0.2-0.4,0.4-0.4h8.7
						c0.2,0,0.4,0.2,0.4,0.4v0.3l-6.1,11.3v0h5.3c0.2,0,0.4,0.2,0.4,0.4v1.7c0,0.2-0.2,0.4-0.4,0.4h-8.9c-0.2,0-0.4-0.2-0.4-0.4
						V87.9z"/>
					<path class="st4" d="M248.7,74.6c0-0.2,0.2-0.4,0.4-0.4h1.9c0.2,0,0.4,0.2,0.4,0.4v13.7c0,0.2-0.2,0.4-0.4,0.4h-1.9
						c-0.2,0-0.4-0.2-0.4-0.4V74.6z"/>
					<path class="st4" d="M255.2,74.6c0-0.2,0.2-0.4,0.4-0.4h4.9c2.6,0,4.6,2.1,4.6,4.6c0,2.6-2.1,4.7-4.6,4.7h-2.6v4.9
						c0,0.2-0.2,0.4-0.4,0.4h-1.9c-0.2,0-0.4-0.2-0.4-0.4V74.6z M260.3,80.9c1.2,0,2.1-0.9,2.1-2.2c0-1.1-1-2-2.1-2h-2.4v4.2H260.3z
						"/>
				</g>
				<g>
					<path class="st4" d="M236.2,87.9l6.2-11.2v-0.1h-5.2c-0.2,0-0.4-0.2-0.4-0.4v-1.7c0-0.2,0.2-0.4,0.4-0.4h8.7
						c0.2,0,0.4,0.2,0.4,0.4v0.3l-6.1,11.3v0h5.3c0.2,0,0.4,0.2,0.4,0.4v1.7c0,0.2-0.2,0.4-0.4,0.4h-8.9c-0.2,0-0.4-0.2-0.4-0.4
						V87.9z"/>
					<path class="st4" d="M248.7,74.6c0-0.2,0.2-0.4,0.4-0.4h1.9c0.2,0,0.4,0.2,0.4,0.4v13.7c0,0.2-0.2,0.4-0.4,0.4h-1.9
						c-0.2,0-0.4-0.2-0.4-0.4V74.6z"/>
					<path class="st4" d="M255.2,74.6c0-0.2,0.2-0.4,0.4-0.4h4.9c2.6,0,4.6,2.1,4.6,4.6c0,2.6-2.1,4.7-4.6,4.7h-2.6v4.9
						c0,0.2-0.2,0.4-0.4,0.4h-1.9c-0.2,0-0.4-0.2-0.4-0.4V74.6z M260.3,80.9c1.2,0,2.1-0.9,2.1-2.2c0-1.1-1-2-2.1-2h-2.4v4.2H260.3z
						"/>
				</g>
			</g>
			<path class="st4" d="M274.1,64.6V59c0-1.9-1.5-3.4-3.4-3.4h-7.6h-2.5h-9h-2.5h-6.5l-0.4-0.2l-3.5-5.2c-0.5-0.8-1.4-1.3-2.3-1.3
				h-12.8c-1.9,0-3.4,1.5-3.4,3.4v44.9c0,1.9,1.5,3.4,3.4,3.4h47c1.7,0,3.2-1.4,3.6-3.1V64.6z M272.1,96l-0.3,1.1
				c-0.2,0.6-0.8,1.1-1.4,1.1h-42.7h-2.8h-1.3c-0.6,0-1.1-0.5-1.1-1.1V52.2c0-0.6,0.5-1.1,1.1-1.1h12.8l0.5,0.2l3.5,5.2
				c0.5,0.8,1.4,1.3,2.3,1.3h6.5h2.5h9h2.5h7.6c0.6,0,1.1,0.5,1.1,1.1v5.6L272.1,96z"/>
			<path class="st4" d="M272.1,96l-0.3,1.1c-0.2,0.6-0.8,1.1-1.4,1.1h-42.7h-2.8h-1.3c-0.6,0-1.1-0.5-1.1-1.1V52.2
				c0-0.6,0.5-1.1,1.1-1.1h12.8l0.5,0.2l3.5,5.2c0.5,0.8,1.4,1.3,2.3,1.3h6.5h2.5h9h2.5h7.6c0.6,0,1.1,0.5,1.1,1.1v5.6L272.1,96z"/>
			<path class="st4" d="M277.4,89.9h-58.5c-1.6,0-3-1.4-3-3V70.9c0-1.7,1.4-3,3-3h58.5c1.6,0,3,1.3,3,3v15.9
				C280.4,88.5,279,89.9,277.4,89.9z"/>
			<g>
				<g>
					<path class="st4" d="M233.6,85.4l6.2-11.2v-0.1h-5.2c-0.2,0-0.4-0.2-0.4-0.4V72c0-0.2,0.2-0.4,0.4-0.4h8.7
						c0.2,0,0.4,0.2,0.4,0.4v0.3l-6.1,11.3v0h5.3c0.2,0,0.4,0.2,0.4,0.4v1.7c0,0.2-0.2,0.4-0.4,0.4H234c-0.2,0-0.4-0.2-0.4-0.4V85.4
						z"/>
					<path class="st4" d="M246.2,72c0-0.2,0.2-0.4,0.4-0.4h1.9c0.2,0,0.4,0.2,0.4,0.4v13.7c0,0.2-0.2,0.4-0.4,0.4h-1.9
						c-0.2,0-0.4-0.2-0.4-0.4V72z"/>
					<path class="st4" d="M252.7,72c0-0.2,0.2-0.4,0.4-0.4h4.9c2.6,0,4.6,2.1,4.6,4.6c0,2.6-2.1,4.7-4.6,4.7h-2.6v4.9
						c0,0.2-0.2,0.4-0.4,0.4h-1.9c-0.2,0-0.4-0.2-0.4-0.4V72z M257.8,78.4c1.2,0,2.1-0.9,2.1-2.2c0-1.1-1-2-2.1-2h-2.4v4.2H257.8z"
						/>
				</g>
				<g>
					<path class="st4" d="M233.6,85.4l6.2-11.2v-0.1h-5.2c-0.2,0-0.4-0.2-0.4-0.4V72c0-0.2,0.2-0.4,0.4-0.4h8.7
						c0.2,0,0.4,0.2,0.4,0.4v0.3l-6.1,11.3v0h5.3c0.2,0,0.4,0.2,0.4,0.4v1.7c0,0.2-0.2,0.4-0.4,0.4H234c-0.2,0-0.4-0.2-0.4-0.4V85.4
						z"/>
					<path class="st4" d="M246.2,72c0-0.2,0.2-0.4,0.4-0.4h1.9c0.2,0,0.4,0.2,0.4,0.4v13.7c0,0.2-0.2,0.4-0.4,0.4h-1.9
						c-0.2,0-0.4-0.2-0.4-0.4V72z"/>
					<path class="st4" d="M252.7,72c0-0.2,0.2-0.4,0.4-0.4h4.9c2.6,0,4.6,2.1,4.6,4.6c0,2.6-2.1,4.7-4.6,4.7h-2.6v4.9
						c0,0.2-0.2,0.4-0.4,0.4h-1.9c-0.2,0-0.4-0.2-0.4-0.4V72z M257.8,78.4c1.2,0,2.1-0.9,2.1-2.2c0-1.1-1-2-2.1-2h-2.4v4.2H257.8z"
						/>
				</g>
				<g>
					<path class="st4" d="M233.6,85.4l6.2-11.2v-0.1h-5.2c-0.2,0-0.4-0.2-0.4-0.4V72c0-0.2,0.2-0.4,0.4-0.4h8.7
						c0.2,0,0.4,0.2,0.4,0.4v0.3l-6.1,11.3v0h5.3c0.2,0,0.4,0.2,0.4,0.4v1.7c0,0.2-0.2,0.4-0.4,0.4H234c-0.2,0-0.4-0.2-0.4-0.4V85.4
						z"/>
					<path class="st4" d="M246.2,72c0-0.2,0.2-0.4,0.4-0.4h1.9c0.2,0,0.4,0.2,0.4,0.4v13.7c0,0.2-0.2,0.4-0.4,0.4h-1.9
						c-0.2,0-0.4-0.2-0.4-0.4V72z"/>
					<path class="st4" d="M252.7,72c0-0.2,0.2-0.4,0.4-0.4h4.9c2.6,0,4.6,2.1,4.6,4.6c0,2.6-2.1,4.7-4.6,4.7h-2.6v4.9
						c0,0.2-0.2,0.4-0.4,0.4h-1.9c-0.2,0-0.4-0.2-0.4-0.4V72z M257.8,78.4c1.2,0,2.1-0.9,2.1-2.2c0-1.1-1-2-2.1-2h-2.4v4.2H257.8z"
						/>
				</g>
			</g>
		</g>
		<g>
			<path class="st4" d="M275.6,66.1v-5.6c0-1.9-1.5-3.4-3.4-3.4h-7.6h-2.5h-9h-2.5h-6.5l-0.4-0.2l-3.5-5.2c-0.5-0.8-1.4-1.3-2.3-1.3
				h-12.8c-1.9,0-3.4,1.5-3.4,3.4v44.9c0,1.9,1.5,3.4,3.4,3.4h47c1.7,0,3.2-1.4,3.6-3.1V66.1z M273.6,97.6l-0.3,1.1
				c-0.2,0.6-0.8,1.1-1.4,1.1h-42.7h-2.8h-1.3c-0.6,0-1.1-0.5-1.1-1.1V53.7c0-0.6,0.5-1.1,1.1-1.1h12.8l0.5,0.2l3.5,5.2
				c0.5,0.8,1.4,1.3,2.3,1.3h6.5h2.5h9h2.5h7.6c0.6,0,1.1,0.5,1.1,1.1v5.6L273.6,97.6z"/>
			<path class="st5" d="M273.6,97.6l-0.3,1.1c-0.2,0.6-0.8,1.1-1.4,1.1h-42.7h-2.8h-1.3c-0.6,0-1.1-0.5-1.1-1.1V53.7
				c0-0.6,0.5-1.1,1.1-1.1h12.8l0.5,0.2l3.5,5.2c0.5,0.8,1.4,1.3,2.3,1.3h6.5h2.5h9h2.5h7.6c0.6,0,1.1,0.5,1.1,1.1v5.6L273.6,97.6z"
				/>
			<g>
				<g>
					<path class="st5" d="M234.2,85.9l6.2-11.2v-0.1h-5.2c-0.2,0-0.4-0.2-0.4-0.4v-1.7c0-0.2,0.2-0.4,0.4-0.4h8.7
						c0.2,0,0.4,0.2,0.4,0.4v0.3l-6.1,11.3v0h5.3c0.2,0,0.4,0.2,0.4,0.4v1.7c0,0.2-0.2,0.4-0.4,0.4h-8.9c-0.2,0-0.4-0.2-0.4-0.4
						V85.9z"/>
					<path class="st5" d="M246.7,72.6c0-0.2,0.2-0.4,0.4-0.4h1.9c0.2,0,0.4,0.2,0.4,0.4v13.7c0,0.2-0.2,0.4-0.4,0.4h-1.9
						c-0.2,0-0.4-0.2-0.4-0.4V72.6z"/>
					<path class="st5" d="M253.2,72.6c0-0.2,0.2-0.4,0.4-0.4h4.9c2.6,0,4.6,2.1,4.6,4.6c0,2.6-2.1,4.7-4.6,4.7h-2.6v4.9
						c0,0.2-0.2,0.4-0.4,0.4h-1.9c-0.2,0-0.4-0.2-0.4-0.4V72.6z M258.3,78.9c1.2,0,2.1-0.9,2.1-2.2c0-1.1-1-2-2.1-2h-2.4v4.2H258.3z
						"/>
				</g>
			</g>
			<path class="st4" d="M272.1,62.6V57c0-1.9-1.5-3.4-3.4-3.4h-7.6h-2.5h-9h-2.5h-6.5l-0.4-0.2l-3.5-5.2c-0.5-0.8-1.4-1.3-2.3-1.3
				h-12.8c-1.9,0-3.4,1.5-3.4,3.4v44.9c0,1.9,1.5,3.4,3.4,3.4h47c1.7,0,3.2-1.4,3.6-3.1V62.6z M270.1,94l-0.3,1.1
				c-0.2,0.6-0.8,1.1-1.4,1.1h-42.7h-2.8h-1.3c-0.6,0-1.1-0.5-1.1-1.1V50.2c0-0.6,0.5-1.1,1.1-1.1h12.8l0.5,0.2l3.5,5.2
				c0.5,0.8,1.4,1.3,2.3,1.3h6.5h2.5h9h2.5h7.6c0.6,0,1.1,0.5,1.1,1.1v5.6L270.1,94z"/>
			<path class="st5" d="M270.1,94l-0.3,1.1c-0.2,0.6-0.8,1.1-1.4,1.1h-42.7h-2.8h-1.3c-0.6,0-1.1-0.5-1.1-1.1V50.2
				c0-0.6,0.5-1.1,1.1-1.1h12.8l0.5,0.2l3.5,5.2c0.5,0.8,1.4,1.3,2.3,1.3h6.5h2.5h9h2.5h7.6c0.6,0,1.1,0.5,1.1,1.1v5.6L270.1,94z"/>
			<path class="st4" d="M275.4,87.9h-58.5c-1.6,0-3-1.4-3-3V68.9c0-1.7,1.4-3,3-3h58.5c1.6,0,3,1.3,3,3v15.9
				C278.4,86.5,277,87.9,275.4,87.9z"/>
			<g>
				<g>
					<path class="st5" d="M231.6,83.4l6.2-11.2v-0.1h-5.2c-0.2,0-0.4-0.2-0.4-0.4V70c0-0.2,0.2-0.4,0.4-0.4h8.7
						c0.2,0,0.4,0.2,0.4,0.4v0.3l-6.1,11.3v0h5.3c0.2,0,0.4,0.2,0.4,0.4v1.7c0,0.2-0.2,0.4-0.4,0.4H232c-0.2,0-0.4-0.2-0.4-0.4V83.4
						z"/>
					<path class="st5" d="M244.2,70c0-0.2,0.2-0.4,0.4-0.4h1.9c0.2,0,0.4,0.2,0.4,0.4v13.7c0,0.2-0.2,0.4-0.4,0.4h-1.9
						c-0.2,0-0.4-0.2-0.4-0.4V70z"/>
					<path class="st5" d="M250.7,70c0-0.2,0.2-0.4,0.4-0.4h4.9c2.6,0,4.6,2.1,4.6,4.6c0,2.6-2.1,4.7-4.6,4.7h-2.6v4.9
						c0,0.2-0.2,0.4-0.4,0.4h-1.9c-0.2,0-0.4-0.2-0.4-0.4V70z M255.8,76.4c1.2,0,2.1-0.9,2.1-2.2c0-1.1-1-2-2.1-2h-2.4v4.2H255.8z"
						/>
				</g>
			</g>
		</g>
	</g>
	<g>
		<path class="st4" d="M200.1,50.6l-3.3-2.4l0.8,4.7c-33.6-21.8-63.2,2.9-63.5,3.2c-0.6,0.5-0.7,1.4-0.2,2c0.3,0.3,0.7,0.5,1.1,0.5
			c0.3,0,0.6-0.1,0.9-0.3c0.1-0.1,7.4-6.3,18.7-9.5c14.3-4.2,28.2-2,41.3,6.5l-4.6,0.7l3.3,2.4l6.6-1.1L200.1,50.6z"/>
	</g>
	<g>
		<path class="st4" d="M200.1,103.6l-3.3,2.4l0.8-4.7C163.9,123,134.3,98.3,134,98c-0.6-0.5-0.7-1.4-0.2-2c0.3-0.3,0.7-0.5,1.1-0.5
			c0.3,0,0.6,0.1,0.9,0.3c0.1,0.1,7.4,6.3,18.7,9.5c14.3,4.2,28.2,2,41.3-6.5l-4.6-0.7l3.3-2.4l6.6,1.1L200.1,103.6z"/>
	</g>
	<path class="st4" d="M17.6,63.7h-0.2v-1C17.4,63,17.5,63.4,17.6,63.7z"/>
	<path class="st4" d="M13.4,55.9c-0.1,0.5-0.1,0.9-0.2,1L13.4,55.9z"/>
	<path class="st4" d="M71.9,56.8c-0.1,0.5-0.1,0.9-0.2,1L71.9,56.8z"/>
	<g>
		<g class="st0">
			<ellipse class="st6" cx="67.2" cy="81.8" rx="57.6" ry="52"/>
			<ellipse class="st7" cx="67.2" cy="81.8" rx="57.6" ry="52"/>
		</g>
		<g>
			<ellipse class="st8" cx="66.1" cy="80.6" rx="57.6" ry="52"/>
			<ellipse class="st9" cx="66.1" cy="80.6" rx="57.6" ry="52"/>
		</g>
	</g>
	<g class="st10">
		
			<image style="overflow:visible;opacity:0.3;" width="34" height="28" xlink:href="228A5E594A083F6E.png"  transform="matrix(1 0 0 1 61.6311 44.8333)">
		</image>
		<g>
			<g>
				<path class="st4" d="M93.2,54.4C92.9,54.1,92.5,54,92,54h-3.8v-2.6c0-0.9-0.7-1.6-1.6-1.6h-3.6h-1.2h-4.2h-1.2h-3.1l-0.2-0.1
					l-1.6-2.4c-0.2-0.4-0.7-0.6-1.1-0.6h-6c-0.9,0-1.6,0.7-1.6,1.6v21c0,0.9,0.7,1.6,1.6,1.6h24c0.8,0,1.5-0.7,1.7-1.4l3.1-13.7
					C93.6,55.2,93.5,54.8,93.2,54.4z M64.6,69.8c-0.3,0-0.5-0.2-0.5-0.5v-21c0-0.3,0.2-0.5,0.5-0.5h6l0.2,0.1l1.6,2.4
					c0.3,0.4,0.7,0.6,1.1,0.6h3.1h1.2h4.2h1.2h3.6c0.3,0,0.5,0.2,0.5,0.5V54H70c-0.8,0-1.5,0.5-1.7,1.2l-3.1,13.6c0,0.1,0,0.1,0,0.2
					v0.3c0,0.2,0,0.3,0.1,0.5H64.6z M92.4,55.6l-0.6,2.6l-2.4,10.5l-0.1,0.5c-0.1,0.3-0.4,0.5-0.7,0.5H66.6c-0.3,0-0.5-0.2-0.4-0.5
					l3-12.9l0.1-0.5l0.1-0.3c0.1-0.3,0.3-0.5,0.5-0.5c0,0,0.1,0,0.1,0H92C92.3,55.1,92.5,55.3,92.4,55.6z"/>
				<path class="st5" d="M92.4,55.6l-0.6,2.6l-2.4,10.5l-0.1,0.5c-0.1,0.3-0.4,0.5-0.7,0.5H66.6c-0.3,0-0.5-0.2-0.4-0.5l3-12.9
					l0.1-0.5l0.1-0.3c0.1-0.3,0.3-0.5,0.5-0.5c0,0,0.1,0,0.1,0H92C92.3,55.1,92.5,55.3,92.4,55.6z"/>
				<path class="st5" d="M64.6,69.8c-0.3,0-0.5-0.2-0.5-0.5v-21c0-0.3,0.2-0.5,0.5-0.5h6l0.2,0.1l1.6,2.4c0.3,0.4,0.7,0.6,1.1,0.6
					h3.1h1.2h4.2h1.2h3.6c0.3,0,0.5,0.2,0.5,0.5V54H70c-0.8,0-1.5,0.5-1.7,1.2l-3.1,13.6c0,0.1,0,0.1,0,0.2v0.3c0,0.2,0,0.3,0.1,0.5
					H64.6z"/>
			</g>
		</g>
	</g>
	<g class="st10">
		
			<image style="overflow:visible;opacity:0.3;" width="21" height="17" xlink:href="228A5E594A083F72.png"  transform="matrix(1 0 0 1 40.2524 33.4547)">
		</image>
		<g>
			<g>
				<path class="st4" d="M59.1,39.3c-0.2-0.2-0.4-0.2-0.7-0.2h-2.2v-1.5c0-0.5-0.4-0.9-0.9-0.9h-2.1h-0.7h-2.5h-0.7h-1.8l-0.1-0.1
					l-1-1.4c-0.1-0.2-0.4-0.3-0.6-0.3h-3.5c-0.5,0-0.9,0.4-0.9,0.9v12.3c0,0.5,0.4,0.9,0.9,0.9h14.1c0.5,0,0.9-0.4,1-0.8l1.8-8.1
					C59.3,39.7,59.3,39.5,59.1,39.3z M42.4,48.3c-0.2,0-0.3-0.1-0.3-0.3V35.6c0-0.2,0.1-0.3,0.3-0.3h3.5l0.1,0.1l1,1.4
					c0.1,0.2,0.4,0.3,0.6,0.3h1.8h0.7h2.5h0.7h2.1c0.2,0,0.3,0.1,0.3,0.3V39H45.5c-0.5,0-0.9,0.3-1,0.7l-1.8,7.9c0,0,0,0.1,0,0.1V48
					c0,0.1,0,0.2,0.1,0.3H42.4z M58.6,40l-0.4,1.5l-1.4,6.2l-0.1,0.3c0,0.2-0.2,0.3-0.4,0.3H43.5c-0.2,0-0.3-0.1-0.2-0.3l1.7-7.6
					l0.1-0.3l0-0.1c0-0.1,0.2-0.3,0.3-0.3c0,0,0,0,0.1,0h12.9C58.6,39.6,58.7,39.8,58.6,40z"/>
				<path class="st5" d="M58.6,40l-0.4,1.5l-1.4,6.2l-0.1,0.3c0,0.2-0.2,0.3-0.4,0.3H43.5c-0.2,0-0.3-0.1-0.2-0.3l1.7-7.6l0.1-0.3
					l0-0.1c0-0.1,0.2-0.3,0.3-0.3c0,0,0,0,0.1,0h12.9C58.6,39.6,58.7,39.8,58.6,40z"/>
				<path class="st5" d="M42.4,48.3c-0.2,0-0.3-0.1-0.3-0.3V35.6c0-0.2,0.1-0.3,0.3-0.3h3.5l0.1,0.1l1,1.4c0.1,0.2,0.4,0.3,0.6,0.3
					h1.8h0.7h2.5h0.7h2.1c0.2,0,0.3,0.1,0.3,0.3V39H45.5c-0.5,0-0.9,0.3-1,0.7l-1.8,7.9c0,0,0,0.1,0,0.1V48c0,0.1,0,0.2,0.1,0.3
					H42.4z"/>
			</g>
		</g>
	</g>
	<g class="st10">
		
			<image style="overflow:visible;opacity:0.3;" width="34" height="28" xlink:href="228A5E594A083F75.png"  transform="matrix(1 0 0 1 69.6311 79.8333)">
		</image>
		<g>
			<g>
				<path class="st4" d="M101.2,88.7c-0.3-0.3-0.7-0.4-1.2-0.4h-3.8v-2.6c0-0.9-0.7-1.6-1.6-1.6h-3.6h-1.2h-4.2h-1.2h-3.1L81.3,84
					l-1.6-2.4c-0.2-0.4-0.7-0.6-1.1-0.6h-6c-0.9,0-1.6,0.7-1.6,1.6v21c0,0.9,0.7,1.6,1.6,1.6h24c0.8,0,1.5-0.7,1.7-1.4l3.1-13.7
					C101.6,89.4,101.5,89,101.2,88.7z M72.6,104c-0.3,0-0.5-0.2-0.5-0.5v-21c0-0.3,0.2-0.5,0.5-0.5h6l0.2,0.1l1.6,2.4
					c0.3,0.4,0.7,0.6,1.1,0.6h3.1h1.2h4.2h1.2h3.6c0.3,0,0.5,0.2,0.5,0.5v2.6H78c-0.8,0-1.5,0.5-1.7,1.2l-3.1,13.6
					c0,0.1,0,0.1,0,0.2v0.3c0,0.2,0,0.3,0.1,0.5H72.6z M100.4,89.9l-0.6,2.6L97.4,103l-0.1,0.5c-0.1,0.3-0.4,0.5-0.7,0.5H74.5
					c-0.3,0-0.5-0.2-0.4-0.5l3-12.9l0.1-0.5l0.1-0.3c0.1-0.3,0.3-0.5,0.5-0.5c0,0,0.1,0,0.1,0H100C100.3,89.3,100.4,89.6,100.4,89.9
					z"/>
				<path class="st5" d="M100.4,89.9l-0.6,2.6L97.4,103l-0.1,0.5c-0.1,0.3-0.4,0.5-0.7,0.5H74.5c-0.3,0-0.5-0.2-0.4-0.5l3-12.9
					l0.1-0.5l0.1-0.3c0.1-0.3,0.3-0.5,0.5-0.5c0,0,0.1,0,0.1,0H100C100.3,89.3,100.4,89.6,100.4,89.9z"/>
				<path class="st5" d="M72.6,104c-0.3,0-0.5-0.2-0.5-0.5v-21c0-0.3,0.2-0.5,0.5-0.5h6l0.2,0.1l1.6,2.4c0.3,0.4,0.7,0.6,1.1,0.6
					h3.1h1.2h4.2h1.2h3.6c0.3,0,0.5,0.2,0.5,0.5v2.6H78c-0.8,0-1.5,0.5-1.7,1.2l-3.1,13.6c0,0.1,0,0.1,0,0.2v0.3
					c0,0.2,0,0.3,0.1,0.5H72.6z"/>
			</g>
		</g>
	</g>
	<g class="st10">
		
			<image style="overflow:visible;opacity:0.3;" width="26" height="24" xlink:href="228A5E594A083F76.png"  transform="matrix(1 0 0 1 105.9669 61.1692)">
		</image>
		<g>
			<g>
				<path class="st4" d="M129.1,69.1c-0.2-0.3-0.5-0.3-0.8-0.3h-2.8v-2.2c0-0.7-0.5-1.3-1.1-1.3h-2.6h-0.8h-3.1H117h-2.2l-0.2-0.1
					l-1.2-2c-0.2-0.3-0.5-0.5-0.8-0.5h-4.4c-0.6,0-1.1,0.6-1.1,1.3v17.3c0,0.7,0.5,1.3,1.1,1.3h17.5c0.6,0,1.1-0.6,1.2-1.2l2.3-11.4
					C129.4,69.7,129.3,69.4,129.1,69.1z M108.3,81.8c-0.2,0-0.4-0.2-0.4-0.4V64c0-0.2,0.2-0.4,0.4-0.4h4.4l0.2,0.1l1.2,2
					c0.2,0.3,0.5,0.5,0.8,0.5h2.2h0.8h3.1h0.8h2.6c0.2,0,0.4,0.2,0.4,0.4v2.2h-12.5c-0.6,0-1.1,0.4-1.2,1L108.7,81
					c0,0.1,0,0.1,0,0.1v0.2c0,0.1,0,0.3,0.1,0.4H108.3z M128.6,70.1l-0.4,2.2l-1.8,8.7l-0.1,0.4c-0.1,0.2-0.3,0.4-0.5,0.4h-16.1
					c-0.2,0-0.3-0.2-0.3-0.4l2.2-10.7l0.1-0.4l0-0.2c0-0.2,0.2-0.4,0.4-0.4c0,0,0.1,0,0.1,0h16.1C128.5,69.7,128.6,69.8,128.6,70.1z
					"/>
				<path class="st5" d="M128.6,70.1l-0.4,2.2l-1.8,8.7l-0.1,0.4c-0.1,0.2-0.3,0.4-0.5,0.4h-16.1c-0.2,0-0.3-0.2-0.3-0.4l2.2-10.7
					l0.1-0.4l0-0.2c0-0.2,0.2-0.4,0.4-0.4c0,0,0.1,0,0.1,0h16.1C128.5,69.7,128.6,69.8,128.6,70.1z"/>
				<path class="st5" d="M108.3,81.8c-0.2,0-0.4-0.2-0.4-0.4V64c0-0.2,0.2-0.4,0.4-0.4h4.4l0.2,0.1l1.2,2c0.2,0.3,0.5,0.5,0.8,0.5
					h2.2h0.8h3.1h0.8h2.6c0.2,0,0.4,0.2,0.4,0.4v2.2h-12.5c-0.6,0-1.1,0.4-1.2,1L108.7,81c0,0.1,0,0.1,0,0.1v0.2
					c0,0.1,0,0.3,0.1,0.4H108.3z"/>
			</g>
		</g>
	</g>
	<g class="st10">
		
			<image style="overflow:visible;opacity:0.3;" width="26" height="24" xlink:href="228A5E594A083F74.png"  transform="matrix(1 0 0 1 9.9669 49.1692)">
		</image>
		<g>
			<g>
				<path class="st4" d="M33.4,56.5c-0.2-0.3-0.5-0.3-0.8-0.3h-2.8V54c0-0.7-0.5-1.3-1.1-1.3h-2.6h-0.8h-3.1h-0.8h-2.2L19,52.6
					l-1.2-2c-0.2-0.3-0.5-0.5-0.8-0.5h-4.4c-0.6,0-1.1,0.6-1.1,1.3v17.3c0,0.7,0.5,1.3,1.1,1.3h17.5c0.6,0,1.1-0.6,1.2-1.2l2.3-11.4
					C33.7,57.1,33.6,56.8,33.4,56.5z M12.6,69.1c-0.2,0-0.4-0.2-0.4-0.4V51.4c0-0.2,0.2-0.4,0.4-0.4H17l0.2,0.1l1.2,2
					c0.2,0.3,0.5,0.5,0.8,0.5h2.2h0.8h3.1h0.8h2.6c0.2,0,0.4,0.2,0.4,0.4v2.2H16.5c-0.6,0-1.1,0.4-1.2,1L13,68.4c0,0.1,0,0.1,0,0.1
					v0.2c0,0.1,0,0.3,0.1,0.4H12.6z M32.9,57.4l-0.4,2.2l-1.8,8.7l-0.1,0.4c-0.1,0.2-0.3,0.4-0.5,0.4H14c-0.2,0-0.3-0.2-0.3-0.4
					L15.9,58l0.1-0.4l0-0.2c0-0.2,0.2-0.4,0.4-0.4c0,0,0.1,0,0.1,0h16.1C32.8,57,32.9,57.2,32.9,57.4z"/>
				<path class="st5" d="M32.9,57.4l-0.4,2.2l-1.8,8.7l-0.1,0.4c-0.1,0.2-0.3,0.4-0.5,0.4H14c-0.2,0-0.3-0.2-0.3-0.4L15.9,58
					l0.1-0.4l0-0.2c0-0.2,0.2-0.4,0.4-0.4c0,0,0.1,0,0.1,0h16.1C32.8,57,32.9,57.2,32.9,57.4z"/>
				<path class="st5" d="M12.6,69.1c-0.2,0-0.4-0.2-0.4-0.4V51.4c0-0.2,0.2-0.4,0.4-0.4H17l0.2,0.1l1.2,2c0.2,0.3,0.5,0.5,0.8,0.5
					h2.2h0.8h3.1h0.8h2.6c0.2,0,0.4,0.2,0.4,0.4v2.2H16.5c-0.6,0-1.1,0.4-1.2,1L13,68.4c0,0.1,0,0.1,0,0.1v0.2c0,0.1,0,0.3,0.1,0.4
					H12.6z"/>
			</g>
		</g>
	</g>
	<g class="st10">
		
			<image style="overflow:visible;opacity:0.3;" width="34" height="28" xlink:href="228A5E594A083F73.png"  transform="matrix(1 0 0 1 26.6311 79.8333)">
		</image>
		<g>
			<g>
				<path class="st4" d="M58.2,89.4C57.9,89.1,57.5,89,57,89h-3.8v-2.6c0-0.9-0.7-1.6-1.6-1.6h-3.6h-1.2h-4.2h-1.2h-3.1l-0.2-0.1
					l-1.6-2.4c-0.2-0.4-0.7-0.6-1.1-0.6h-6c-0.9,0-1.6,0.7-1.6,1.6v21c0,0.9,0.7,1.6,1.6,1.6h24c0.8,0,1.5-0.7,1.7-1.4l3.1-13.7
					C58.5,90.1,58.4,89.7,58.2,89.4z M29.6,104.7c-0.3,0-0.5-0.2-0.5-0.5v-21c0-0.3,0.2-0.5,0.5-0.5h6l0.2,0.1l1.6,2.4
					c0.3,0.4,0.7,0.6,1.1,0.6h3.1h1.2h4.2h1.2h3.6c0.3,0,0.5,0.2,0.5,0.5V89H35c-0.8,0-1.5,0.5-1.7,1.2l-3.1,13.6c0,0.1,0,0.1,0,0.2
					v0.3c0,0.2,0,0.3,0.1,0.5H29.6z M57.4,90.6l-0.6,2.6l-2.4,10.5l-0.1,0.5c-0.1,0.3-0.4,0.5-0.7,0.5H31.5c-0.3,0-0.5-0.2-0.4-0.5
					l3-12.9l0.1-0.5l0.1-0.3c0.1-0.3,0.3-0.5,0.5-0.5c0,0,0.1,0,0.1,0H57C57.2,90,57.4,90.3,57.4,90.6z"/>
				<path class="st5" d="M57.4,90.6l-0.6,2.6l-2.4,10.5l-0.1,0.5c-0.1,0.3-0.4,0.5-0.7,0.5H31.5c-0.3,0-0.5-0.2-0.4-0.5l3-12.9
					l0.1-0.5l0.1-0.3c0.1-0.3,0.3-0.5,0.5-0.5c0,0,0.1,0,0.1,0H57C57.2,90,57.4,90.3,57.4,90.6z"/>
				<path class="st5" d="M29.6,104.7c-0.3,0-0.5-0.2-0.5-0.5v-21c0-0.3,0.2-0.5,0.5-0.5h6l0.2,0.1l1.6,2.4c0.3,0.4,0.7,0.6,1.1,0.6
					h3.1h1.2h4.2h1.2h3.6c0.3,0,0.5,0.2,0.5,0.5V89H35c-0.8,0-1.5,0.5-1.7,1.2l-3.1,13.6c0,0.1,0,0.1,0,0.2v0.3c0,0.2,0,0.3,0.1,0.5
					H29.6z"/>
			</g>
		</g>
	</g>
	<g class="st10">
		
			<image style="overflow:visible;opacity:0.3;" width="29" height="24" xlink:href="228A5E594A083F7D.png"  transform="matrix(1 0 0 1 45.8789 114.0812)">
		</image>
		<g>
			<g>
				<path class="st4" d="M72.4,121.7c-0.2-0.3-0.6-0.3-1-0.3h-3.2v-2.2c0-0.7-0.6-1.3-1.3-1.3h-3h-1h-3.5h-1H56l-0.2-0.1l-1.4-2
					c-0.2-0.3-0.5-0.5-0.9-0.5h-5c-0.7,0-1.3,0.6-1.3,1.3V134c0,0.7,0.6,1.3,1.3,1.3h20.1c0.6,0,1.3-0.6,1.4-1.2l2.6-11.5
					C72.7,122.3,72.6,122,72.4,121.7z M48.5,134.5c-0.2,0-0.4-0.2-0.4-0.4v-17.5c0-0.2,0.2-0.4,0.4-0.4h5l0.2,0.1l1.4,2
					c0.2,0.3,0.6,0.5,0.9,0.5h2.6h1H63h1h3c0.2,0,0.4,0.2,0.4,0.4v2.2H53c-0.6,0-1.2,0.4-1.4,1L49,133.7c0,0.1,0,0.1,0,0.1v0.2
					c0,0.1,0,0.3,0.1,0.4H48.5z M71.7,122.6l-0.5,2.2l-2,8.8l-0.1,0.4c-0.1,0.2-0.3,0.4-0.5,0.4H50.1c-0.2,0-0.4-0.2-0.3-0.4
					l2.5-10.8l0.1-0.4l0-0.2c0-0.2,0.2-0.4,0.4-0.4c0,0,0.1,0,0.1,0h18.4C71.6,122.2,71.8,122.4,71.7,122.6z"/>
				<path class="st5" d="M71.7,122.6l-0.5,2.2l-2,8.8l-0.1,0.4c-0.1,0.2-0.3,0.4-0.5,0.4H50.1c-0.2,0-0.4-0.2-0.3-0.4l2.5-10.8
					l0.1-0.4l0-0.2c0-0.2,0.2-0.4,0.4-0.4c0,0,0.1,0,0.1,0h18.4C71.6,122.2,71.8,122.4,71.7,122.6z"/>
				<path class="st5" d="M48.5,134.5c-0.2,0-0.4-0.2-0.4-0.4v-17.5c0-0.2,0.2-0.4,0.4-0.4h5l0.2,0.1l1.4,2c0.2,0.3,0.6,0.5,0.9,0.5
					h2.6h1H63h1h3c0.2,0,0.4,0.2,0.4,0.4v2.2H53c-0.6,0-1.2,0.4-1.4,1L49,133.7c0,0.1,0,0.1,0,0.1v0.2c0,0.1,0,0.3,0.1,0.4H48.5z"/>
			</g>
		</g>
	</g>
</g>
</svg>
