<?xml version="1.0" encoding="utf-8"?>
<!-- Generator: Adobe Illustrator 18.0.0, SVG Export Plug-In . SVG Version: 6.00 Build 0)  -->
<!DOCTYPE svg PUBLIC "-//W3C//DTD SVG 1.1//EN" "http://www.w3.org/Graphics/SVG/1.1/DTD/svg11.dtd">
<svg version="1.1" id="Layer_1" xmlns="http://www.w3.org/2000/svg" xmlns:xlink="http://www.w3.org/1999/xlink" x="0px" y="0px"
	 viewBox="223 11 478 531" enable-background="new 223 11 478 531" xml:space="preserve">
<g id="A7hSGI_4_">
	<g>
		<g>
			<path fill="#FFFFFF" d="M332,506.4c110.8,0,221.6,0,332.3,0c0-107.1,0-214.3,0-321.4c-42.6,0-86.4,0-129,0c0-43.8,0-86.4,0-130.3
				c-68.2,0-135.1,0-202.1,0c0,21.9,0,42.6,0,64.5H332c-1.2-3.7-3.7-7.3-4.9-11c-4.9-11-9.7-21.9-13.4-34.1
				c-1.2-4.9-2.4-9.7-2.4-14.6c0-8.5,0-18.3,0-28c3.7,0,7.3,0,11,0c71.8,0,144.9,0,216.7,0c3.7,0,6.1,1.2,8.5,3.7
				c46.3,46.3,92.5,92.5,137.6,138.8c1.2,1.2,2.4,4.9,2.4,6.1c0,105.9,0,211.8,0,317.7c0,9.7,0,19.5,0,30.4
				c-125.4,0-250.8,0-376.2,0c0-77.9,0-154.6,0-232.5c0,0,0,0,1.2,0c1.2,2.4,2.4,3.7,2.4,6.1c6.1,13.4,11,28,17,41.4
				c1.2,2.4,1.2,4.9,1.2,7.3c0,48.7,0,98.6,0,147.3C332,501.6,332,504,332,506.4z"/>
			<path fill="#FFFFFF" d="M440.4,452.9c0,8.5,0,17,0,26.8c0,4.9-1.2,7.3-6.1,9.7c-3.7,1.2-7.3,0-9.7-3.7
				c-12.2-12.2-23.1-25.6-35.3-37.7c-1.2-1.2-2.4-3.7-3.7-6.1C338.1,325,289.4,207,241.9,90.1c-4.9-13.4-1.2-25.6,11-32.9
				c13.4-8.5,29.2-6.1,37.7,3.7c1.2,2.4,2.4,4.9,3.7,6.1c47.5,116.9,96.2,235,143.7,351.8c1.2,2.4,1.2,4.9,1.2,7.3
				C440.4,435.8,440.4,444.3,440.4,452.9L440.4,452.9z"/>
			<path fill="#FFFFFF" d="M455,448c49.9,0,101,0,151,0c0-17,0-34.1,0-51.1c-1.2,0-2.4,0-4.9,0c-51.1,0-101,0-152.2,0
				c-3.7,0-6.1-1.2-7.3-4.9c-1.2-4.9-3.7-9.7-6.1-15.8c63.3,0,126.6,0,189.9,0c0,30.4,0,59.7,0,90.1c-57.2,0-114.4,0-171.7,0
				C455,461.4,455,455.3,455,448z"/>
			<path fill="#FFFFFF" d="M373.4,95c41.4,0,81.6,0,121.7,0c0,19.5,0,40.2,0,60.9c-40.2,0-81.6,0-121.7,0
				C373.4,135.1,373.4,115.7,373.4,95z"/>
			<path fill="#FFFFFF" d="M378.3,236.2c82.8,0,164.3,0,247.1,0c0,6.1,0,13.4,0,19.5c-1.2,0-2.4,0-3.7,0c-76.7,0-153.4,0-228.9,0
				c-3.7,0-6.1-1.2-7.3-4.9C383.2,245.9,380.7,241,378.3,236.2z"/>
			<path fill="#FFFFFF" d="M625.4,326.3c-18.3,0-35.3,0-52.3,0c-51.1,0-101,0-152.2,0c-3.7,0-6.1-1.2-7.3-4.9
				c-1.2-4.9-3.7-9.7-6.1-15.8c73,0,144.9,0,217.9,0C625.4,312.9,625.4,319,625.4,326.3z"/>
		</g>
	</g>
</g>
</svg>
