<?xml version="1.0" encoding="utf-8"?>
<!-- Generator: Adobe Illustrator 18.1.0, SVG Export Plug-In . SVG Version: 6.00 Build 0)  -->
<!DOCTYPE svg PUBLIC "-//W3C//DTD SVG 1.1//EN" "http://www.w3.org/Graphics/SVG/1.1/DTD/svg11.dtd">
<svg version="1.1" id="Layer_1" xmlns="http://www.w3.org/2000/svg" xmlns:xlink="http://www.w3.org/1999/xlink" x="0px" y="0px"
	 viewBox="0 0 150 150" enable-background="new 0 0 150 150" xml:space="preserve">
<g>
	<g>
		<path fill="#FFFFFF" d="M41.7,71.8c-0.1,0.1-0.2,0.2-0.2,0.3c-0.1,0.1-0.1,0.3-0.2,0.4c0,0.1-0.1,0.1-0.1,0.2v0.1
			c-0.1,0.1-0.1,0.3-0.1,0.4S41,73.4,41,73.5c0,0.1,0,0.3-0.1,0.4c0,0.1,0,0.2,0,0.4c0,0.1,0,0.3,0,0.4s0,0.2,0,0.3
			c0,0.2,0,0.3,0.1,0.4c0,0.1,0,0.2,0,0.3c0,0.1,0.1,0.3,0.1,0.4s0.1,0.2,0.1,0.3c0,0,0,0.1,0,0.2s0.1,0.1,0.1,0.2s0.1,0.2,0.2,0.3
			c0.1,0.1,0.2,0.3,0.2,0.4c0.1,0.1,0.1,0.2,0.2,0.3c0.1,0.1,0.2,0.2,0.3,0.4c0,0.1,0.1,0.1,0.1,0.2l25.3,25.5
			c2.1,2.1,5.5,2.1,7.6,0s2.1-5.5,0-7.6l-16-16h50c1.9,0,3.5-0.9,4.5-2.4c0.6-0.9,0.9-1.9,0.9-3c0-1.5-0.6-2.8-1.6-3.8
			s-2.3-1.6-3.8-1.6l0,0h-50l16-16c2.1-2.1,2.1-5.5,0-7.6c-1.1-1.1-2.4-1.6-3.8-1.6s-2.7,0.5-3.8,1.6L42.3,71.2
			c0,0.1-0.1,0.1-0.1,0.2c-0.1,0.1-0.2,0.2-0.3,0.3C41.8,71.6,41.8,71.7,41.7,71.8z"/>
		<path fill="#FFFFFF" d="M74.4,138.4c35.1,0,63.6-28.5,63.6-63.6s-28.5-63.6-63.6-63.6S10.8,39.7,10.8,74.8S39.3,138.4,74.4,138.4z
			 M74.4,20.5c29.9,0,54.3,24.4,54.3,54.3s-24.4,54.3-54.3,54.3s-54.3-24.4-54.3-54.3S44.5,20.5,74.4,20.5z"/>
	</g>
</g>
</svg>
