<?xml version="1.0" encoding="utf-8"?>
<!-- Generator: Adobe Illustrator 18.1.0, SVG Export Plug-In . SVG Version: 6.00 Build 0)  -->
<!DOCTYPE svg PUBLIC "-//W3C//DTD SVG 1.1//EN" "http://www.w3.org/Graphics/SVG/1.1/DTD/svg11.dtd">
<svg version="1.1" id="Layer_1" xmlns="http://www.w3.org/2000/svg" xmlns:xlink="http://www.w3.org/1999/xlink" x="0px" y="0px"
	 viewBox="0 0 960 560" enable-background="new 0 0 960 560" xml:space="preserve">
<g>
	<path fill="#F6A01A" d="M399.4,144.5C399.4,166.2,399.4,144.5,399.4,144.5V188h43.5v-43.5h65.2V188h43.5v-43.5c0,0,0,21.7,0,0
		c0-43.5-21.7-43.5-43.5-43.5s-21.7,0-65.2,0S399.4,122.7,399.4,144.5z"/>
	<g>
		<path fill="#F6A01A" d="M616.9,177.1c0-5.9-5-10.9-10.9-10.9H345c-5.9,0-10.9,5-10.9,10.9v21.7c0,5.9,5,10.9,10.9,10.9
			c5.9,0,10.9,5,10.9,10.9V438c0,5.9,5,10.9,10.9,10.9h217.5c5.9,0,10.9-5,10.9-10.9V220.6c0-5.9,5-10.9,10.9-10.9s10.9-5,10.9-10.9
			V177.1z M421.2,394.6c0,5.9-5,10.9-10.9,10.9s-10.9-5-10.9-10.9V233.3c0-5.9,5-10.9,10.9-10.9s10.9,5,10.9,10.9V394.6z
			 M486.4,394.6c0,5.9-5,10.9-10.9,10.9s-10.9-5-10.9-10.9V233.3c0-5.9,5-10.9,10.9-10.9s10.9,5,10.9,10.9V394.6z M551.6,394.6
			c0,5.9-5,10.9-10.9,10.9s-10.9-5-10.9-10.9V233.3c0-5.9,5-10.9,10.9-10.9s10.9,5,10.9,10.9V394.6z"/>
	</g>
</g>
</svg>
