<?xml version="1.0" encoding="utf-8"?>
<!-- Generator: Adobe Illustrator 18.1.0, SVG Export Plug-In . SVG Version: 6.00 Build 0)  -->
<!DOCTYPE svg PUBLIC "-//W3C//DTD SVG 1.1//EN" "http://www.w3.org/Graphics/SVG/1.1/DTD/svg11.dtd">
<svg version="1.1" id="Layer_1" xmlns="http://www.w3.org/2000/svg" xmlns:xlink="http://www.w3.org/1999/xlink" x="0px" y="0px"
	 viewBox="0 0 960 560" enable-background="new 0 0 960 560" xml:space="preserve">
<g>
	<path fill="#F6A01A" d="M333.1,62.5c31.2,11.1,61.2,21.7,91.2,32.3c13.7,4.8,27.2,10,41,14.4c3.7,1.2,8.4,1.2,12,0
		C525.6,93,573.6,76.5,621.8,60c11.3-3.9,12.2-3.2,12.2,8.8c0,30.1,0.2,60.2-0.2,90.3c-0.1,5.9,2,8.3,7.4,9.8
		c8.1,2.2,16.2,4.7,24.1,7.8c2.2,0.9,4.9,4.1,4.9,6.3c0.2,86.6,0.1,173.1,0,259.7c0,0.2-0.2,0.5-0.6,1.7c-4.8-1.4-9.7-2.8-14.6-4.3
		c-56.2-17.8-112.4-35.8-168.7-53.4c-4.3-1.4-9.9-1.4-14.2,0c-56.8,18.8-113.4,37.9-170.1,56.9c-10.5,3.5-11.7,2.5-11.7-8.9
		c0-84.5,0.1-168.9-0.2-253.4c0-7.1,2.3-10.6,8.9-12.5c9.3-2.7,18.4-6.4,27.8-9c5.1-1.4,6.4-4,6.3-9
		C333,121.7,333.1,92.7,333.1,62.5z M299.7,434c3.8-1.1,6.6-1.8,9.3-2.7c51.2-17.1,102.3-34.4,153.7-51.3c6.9-2.3,9.3-5.1,9.3-12.6
		c-0.3-78.9-0.2-157.8-0.2-236.7c0-2.8,0-5.6,0-9.1c-2.5,0.6-3.8,0.8-5,1.2c-53.2,17.8-106.3,35.8-159.6,53.4
		c-6.4,2.1-7.6,5.2-7.6,11.2c0.2,79.2,0.1,158.4,0.1,237.5C299.7,427.5,299.7,430.2,299.7,434z M632.4,363.3
		c-13.7-49.9-27.6-98-39.9-146.4c-3.2-12.7-8.7-19.2-21.4-21.7c-6.3-1.2-9.1-1.1-11.6,5.4c-12.7,32.6-26.1,65-39.2,97.5
		c-3.6,8.9-7,18-10.9,27.7c8.8,2.7,16.7,5.1,25.1,7.6c3.9-9.2,7.5-17.9,11.3-27c16.6,5.1,32.7,9.8,48.7,15c2,0.6,3.9,3.4,4.6,5.6
		c2.5,7.8,4.3,15.8,6.7,23.6c0.7,2.2,2.3,5.2,4.3,5.9C616.8,359,624,360.8,632.4,363.3z M484.8,116.7c0,0.5,0,1.1-0.1,1.6
		C531,133.2,577.3,148,624,163c0-31.7,0-62.4,0-94C577.1,85.1,531,100.9,484.8,116.7z"/>
	<path fill="#F6A01A" d="M560.1,445.3c13.5,1.1,25.2,2,38.4,3c-4.3,13-8.3,25.1-12.9,38.9c-3.7-5.7-6.7-10.3-10-15.2
		c-9.8,4.9-19.1,10.3-28.9,14.3C488,510.6,431.3,504.6,376.2,475c-1.9-1-4-1.9-5.2-3.5c-1.5-2.1-2.1-4.7-3-7.2
		c2.5-0.2,5.4-1.4,7.5-0.6c16.3,6.7,31.9,15.3,48.6,20.5c51.5,16.1,99.8,6.4,146-20.8c-1.8-3.4-3.3-6.1-4.8-8.8
		C564,452.2,562.6,449.7,560.1,445.3z"/>
	<path fill="#F6A01A" d="M334.6,255.1c32.4-11.5,63.8-22.6,96.8-34.3c-1.3,4.7-1.8,9-3.7,12.7c-9.4,18.5-19.2,36.8-29.3,55.9
		c14.1,6,28.3,12.7,43.1,18.2c7.9,3,10.3,8,10.3,16.9c-22-5.6-38.9-18.7-56.1-32.2c-7.4,10.2-14.3,20.4-22,30
		c-9.6,11.9-19.6,23.5-29.8,34.9c-3.7,4.1-7.7,9.1-15.8,7.3c32.9-37.2,61.6-76.5,81-123.5c-15.5,4.6-30,8.8-44.5,13.2
		c-1.2,0.4-2.2,2-2.8,3.3c-3.3,7.6-10.2,6.5-16.2,6.3C339.6,263.6,335,260.8,334.6,255.1z"/>
	<path fill="#F6A01A" d="M357.4,209.2c11.1-2.7,21.9-5.5,32.8-7.6c3.3-0.6,7,1,10.5,1.7c-1.1,3.8-1,8.8-3.5,11.2
		c-7.3,7.1-16.7,10.1-26.8,7.9C363,220.7,358.3,215.4,357.4,209.2z"/>
	<path fill="#F6A01A" d="M589.7,292.1c-12-3.6-22.5-6.8-34.2-10.3c6-14.6,11.8-28.7,17.6-42.8c0.6,0.1,1.2,0.1,1.8,0.2
		C579.7,256.3,584.4,273.4,589.7,292.1z"/>
</g>
</svg>
