<?xml version="1.0" encoding="utf-8"?>
<!-- Generator: Adobe Illustrator 18.1.0, SVG Export Plug-In . SVG Version: 6.00 Build 0)  -->
<!DOCTYPE svg PUBLIC "-//W3C//DTD SVG 1.1//EN" "http://www.w3.org/Graphics/SVG/1.1/DTD/svg11.dtd">
<svg version="1.1" id="Layer_1" xmlns="http://www.w3.org/2000/svg" xmlns:xlink="http://www.w3.org/1999/xlink" x="0px" y="0px"
	 viewBox="0 0 1200 960" enable-background="new 0 0 1200 960" xml:space="preserve">
<g>
	<polygon fill="#D4D4D4" points="193,859.2 211.2,730.6 229.4,601.9 339.8,712.3 450.2,822.7 321.6,841 	"/>
	<polygon fill="#D4D4D4" points="817.9,381.1 486.7,712.3 450.2,674.9 780.5,344.6 707.5,270.7 376.3,601.9 339.8,564.5 
		670.1,234.2 633.6,196.8 265.9,564.5 486.7,785.3 854.4,417.6 	"/>
	<path fill="#D4D4D4" d="M969.6,308.2c19.2-19.2,19.2-51.8-1.9-72L821.8,89.3c-20.2-20.2-52.8-21.1-72-1c-1.9,1.9-1.9,3.8-3.8,5.8
		l-1-1l-71,71L894.7,385l71-71l-1-1.9C966.7,310.1,968.6,310.1,969.6,308.2z"/>
</g>
</svg>
