<?xml version="1.0" encoding="utf-8"?>
<!-- Generator: Adobe Illustrator 17.1.0, SVG Export Plug-In . SVG Version: 6.00 Build 0)  -->
<!DOCTYPE svg PUBLIC "-//W3C//DTD SVG 1.1//EN" "http://www.w3.org/Graphics/SVG/1.1/DTD/svg11.dtd">
<svg version="1.1" id="Layer_1" xmlns="http://www.w3.org/2000/svg" xmlns:xlink="http://www.w3.org/1999/xlink" x="0px" y="0px"
	 viewBox="0 0 100 100" enable-background="new 0 0 100 100" xml:space="preserve">
<path fill="#F6A01A" d="M51,58.2v-4.6h4.6h4.6V49v-4.6h4.6h9.2h4.6V30.7c0-2.5-2.1-4.6-4.6-4.6H46.4c-2.5,0-6-1.6-7.6-3.5l-2-2.3
	c-1.7-1.9-5.1-3.5-7.6-3.5H14.2c-2.5,0-4.6,2.1-4.6,4.6v46c0,2.5,2.1,4.6,4.6,4.6H51v-4.6V58.2z"/>
<polygon fill="#F6A01A" points="87.6,62.7 78.4,62.7 78.4,53.5 69.2,53.5 69.2,62.7 60.1,62.7 60.1,71.9 69.2,71.9 69.2,81.1 
	78.4,81.1 78.4,71.9 87.6,71.9 "/>
</svg>
