<?xml version="1.0" encoding="utf-8"?>
<!-- Generator: Adobe Illustrator 18.0.0, SVG Export Plug-In . SVG Version: 6.00 Build 0)  -->
<!DOCTYPE svg PUBLIC "-//W3C//DTD SVG 1.1//EN" "http://www.w3.org/Graphics/SVG/1.1/DTD/svg11.dtd">
<svg version="1.1" id="Layer_1" xmlns="http://www.w3.org/2000/svg" xmlns:xlink="http://www.w3.org/1999/xlink" x="0px" y="0px"
	 viewBox="0 0 960 560" enable-background="new 0 0 960 560" xml:space="preserve">
<path fill="#27AAE1" d="M698.1,47.3l-60.3,0.9c-6.2,0.1-12.1,2.6-16.5,7L418.8,257.5c-47.9-17.1-103.5-6.4-141.9,32
	c-53.1,53.1-53.1,139.3,0,192.4s139.3,53.1,192.4,0c38.4-38.4,49-94,32-141.9l45.7-45.7l3.1-50.3c0.2-3.1,2.6-5.6,5.7-5.8l52.4-5
	l4.4-52c0.2-2.9,2.5-5.3,5.4-5.7l45.9,2.1l0.9-39.8c-1.3-4.6,2.8-9,7.5-7.8l31.4,7.7c4.4-4.4,6.9-10.3,7-16.5l0.9-60.3
	C710.4,53.9,705,48.5,698.1,47.3z M418.2,454.2c6.5,6.5,5.4,17.2-2.1,22.4c-37.5,26-89.3,22.3-122.7-11.1s-37.1-85.2-11.1-122.7
	c5.2-7.5,15.9-8.5,22.4-2.1l21.6,21.6l70.4,70.4L418.2,454.2z"/>
</svg>
