<?xml version="1.0" encoding="utf-8"?>
<!-- Generator: Adobe Illustrator 17.1.0, SVG Export Plug-In . SVG Version: 6.00 Build 0)  -->
<!DOCTYPE svg PUBLIC "-//W3C//DTD SVG 1.1//EN" "http://www.w3.org/Graphics/SVG/1.1/DTD/svg11.dtd">
<svg version="1.1" id="Layer_1" xmlns="http://www.w3.org/2000/svg" xmlns:xlink="http://www.w3.org/1999/xlink" x="0px" y="0px"
	 viewBox="0 0 100 100" enable-background="new 0 0 100 100" xml:space="preserve">
<g>
	<polygon fill="#27AAE1" points="7.6,89.5 9.5,76.1 11.4,62.7 22.9,74.2 34.4,85.7 21,87.6 	"/>
	<polygon fill="#27AAE1" points="72.7,39.7 38.2,74.2 34.4,70.3 68.8,35.9 61.2,28.2 26.7,62.7 22.9,58.8 57.3,24.4 53.5,20.5 
		15.2,58.8 38.2,81.8 76.5,43.5 	"/>
	<path fill="#27AAE1" d="M88.5,32.1c2-2,2-5.4-0.2-7.5L73.1,9.3c-2.1-2.1-5.5-2.2-7.5-0.1c-0.2,0.2-0.2,0.4-0.4,0.6l-0.1-0.1
		l-7.4,7.4l23,23l7.4-7.4L88,32.5C88.2,32.3,88.4,32.3,88.5,32.1z"/>
</g>
</svg>
