<?xml version="1.0" encoding="utf-8"?>
<!-- Generator: Adobe Illustrator 18.1.0, SVG Export Plug-In . SVG Version: 6.00 Build 0)  -->
<!DOCTYPE svg PUBLIC "-//W3C//DTD SVG 1.1//EN" "http://www.w3.org/Graphics/SVG/1.1/DTD/svg11.dtd">
<svg version="1.1" id="Layer_1" xmlns="http://www.w3.org/2000/svg" xmlns:xlink="http://www.w3.org/1999/xlink" x="0px" y="0px"
	 viewBox="0 0 960 560" enable-background="new 0 0 960 560" xml:space="preserve">
<g>
	<path fill="#F6A01A" d="M633.9,118.7c0,0-64.1,64-132.8,73.2c-7.4,20.2-11.3,41.4-11.3,63.1s3.9,43,11.3,63.1
		c68.7,9.2,132.8,73.2,132.8,73.2C683.4,317,683.4,193,633.9,118.7z"/>
	<path fill="#F6A01A" d="M460.4,391.3c-12.9-12.9-19-45.7-18.5-74.4h18.5c0-23.5,0-57.7,0-74.4c0-14.1,0-33.9,0-49.6
		c-52,0-123.9,0-123.9,0c-27.4,0-49.6,27.8-49.6,62s22.2,62,49.6,62h35.9c6.6,16.1,13.7,36.3,13.7,49.6c0,24.8,24.8,74.4,49.6,74.4
		S485.2,416.1,460.4,391.3z M336.5,292.2c-13.7,0-24.8-13.9-24.8-31c0-17.1,11.1-31,24.8-31V292.2z"/>
</g>
</svg>
