<?xml version="1.0" encoding="utf-8"?>
<!-- Generator: Adobe Illustrator 18.1.0, SVG Export Plug-In . SVG Version: 6.00 Build 0)  -->
<!DOCTYPE svg PUBLIC "-//W3C//DTD SVG 1.1//EN" "http://www.w3.org/Graphics/SVG/1.1/DTD/svg11.dtd">
<svg version="1.1" id="Layer_1" xmlns="http://www.w3.org/2000/svg" xmlns:xlink="http://www.w3.org/1999/xlink" x="0px" y="0px"
	 viewBox="0 0 1900 1200" enable-background="new 0 0 1900 1200" xml:space="preserve">
<g>
	<path fill="#F6A01A" d="M728.4,225.5C728.4,286.2,728.4,225.5,728.4,225.5v121.5H850V225.5h182.2v121.5h121.5V225.5c0,0,0,60.6,0,0
		c0-121.5-60.6-121.5-121.5-121.5c-60.9,0-60.6,0-182.2,0S728.4,164.6,728.4,225.5z"/>
	<g>
		<path fill="#F6A01A" d="M1336.1,316.6c0-16.5-14-30.5-30.5-30.5H576.4c-16.5,0-30.5,14-30.5,30.5v60.6c0,16.5,14,30.5,30.5,30.5
			s30.5,14,30.5,30.5v607.4c0,16.5,14,30.5,30.5,30.5H1245c16.5,0,30.5-14,30.5-30.5V438.2c0-16.5,14-30.5,30.5-30.5
			s30.5-14,30.5-30.5v-60.6H1336.1z M789.3,924.3c0,16.5-14,30.5-30.5,30.5s-30.5-14-30.5-30.5V473.6c0-16.5,14-30.5,30.5-30.5
			s30.5,14,30.5,30.5V924.3z M971.5,924.3c0,16.5-14,30.5-30.5,30.5s-30.5-14-30.5-30.5V473.6c0-16.5,14-30.5,30.5-30.5
			s30.5,14,30.5,30.5V924.3z M1153.7,924.3c0,16.5-14,30.5-30.5,30.5c-16.5,0-30.5-14-30.5-30.5V473.6c0-16.5,14-30.5,30.5-30.5
			c16.5,0,30.5,14,30.5,30.5V924.3z"/>
	</g>
</g>
</svg>
