<?xml version="1.0" encoding="utf-8"?>
<!-- Generator: Adobe Illustrator 17.1.0, SVG Export Plug-In . SVG Version: 6.00 Build 0)  -->
<!DOCTYPE svg PUBLIC "-//W3C//DTD SVG 1.1//EN" "http://www.w3.org/Graphics/SVG/1.1/DTD/svg11.dtd">
<svg version="1.1" id="Layer_1" xmlns="http://www.w3.org/2000/svg" xmlns:xlink="http://www.w3.org/1999/xlink" x="0px" y="0px"
	 viewBox="0 0 100 100" enable-background="new 0 0 100 100" xml:space="preserve">
<g>
	<g>
		<path fill="#F6A01A" d="M6.5,47.3v3.3C26.6,84,73.4,84,93.5,50.6v-3.3C73.4,13.8,26.6,13.8,6.5,47.3z M50,69c-11.1,0-20-9-20-20.1
			c0-11.1,9-20.1,20-20.1c11.1,0,20,9,20,20.1C70,60,61.1,69,50,69z"/>
		<path fill="#F6A01A" d="M60,48.9c0,5.5-4.5,10-10,10c-5.5,0-10-4.5-10-10c0-5.6,4.5-10,10-10C55.5,38.9,60,43.4,60,48.9z"/>
	</g>
</g>
</svg>
