<?xml version="1.0" encoding="utf-8"?>
<!-- Generator: Adobe Illustrator 18.0.0, SVG Export Plug-In . SVG Version: 6.00 Build 0)  -->
<!DOCTYPE svg PUBLIC "-//W3C//DTD SVG 1.1//EN" "http://www.w3.org/Graphics/SVG/1.1/DTD/svg11.dtd">
<svg version="1.1" id="Layer_1" xmlns="http://www.w3.org/2000/svg" xmlns:xlink="http://www.w3.org/1999/xlink" x="0px" y="0px"
	 viewBox="452 252 56 56" enable-background="new 452 252 56 56" xml:space="preserve">
<g>
	<path d="M468,260.8C468,263.8,468,260.8,468,260.8v6h6v-6h9v6h6v-6c0,0,0,3,0,0c0-6-3-6-6-6s-3,0-9,0
		C468,254.9,468,257.9,468,260.8z"/>
	<g>
		<path d="M498,265.3c0-0.8-0.7-1.5-1.5-1.5h-35.9c-0.8,0-1.5,0.7-1.5,1.5v3c0,0.8,0.7,1.5,1.5,1.5s1.5,0.7,1.5,1.5v29.9
			c0,0.8,0.7,1.5,1.5,1.5h29.9c0.8,0,1.5-0.7,1.5-1.5v-29.9c0-0.8,0.7-1.5,1.5-1.5s1.5-0.7,1.5-1.5V265.3z M471,295.3
			c0,0.8-0.7,1.5-1.5,1.5s-1.5-0.7-1.5-1.5v-22.2c0-0.8,0.7-1.5,1.5-1.5s1.5,0.7,1.5,1.5V295.3z M480,295.3c0,0.8-0.7,1.5-1.5,1.5
			c-0.8,0-1.5-0.7-1.5-1.5v-22.2c0-0.8,0.7-1.5,1.5-1.5c0.8,0,1.5,0.7,1.5,1.5V295.3z M489,295.3c0,0.8-0.7,1.5-1.5,1.5
			c-0.8,0-1.5-0.7-1.5-1.5v-22.2c0-0.8,0.7-1.5,1.5-1.5c0.8,0,1.5,0.7,1.5,1.5V295.3z"/>
	</g>
</g>
</svg>
