<?xml version="1.0" encoding="utf-8"?>
<!-- Generator: Adobe Illustrator 18.1.0, SVG Export Plug-In . SVG Version: 6.00 Build 0)  -->
<!DOCTYPE svg PUBLIC "-//W3C//DTD SVG 1.1//EN" "http://www.w3.org/Graphics/SVG/1.1/DTD/svg11.dtd">
<svg version="1.1" id="Layer_1" xmlns="http://www.w3.org/2000/svg" xmlns:xlink="http://www.w3.org/1999/xlink" x="0px" y="0px"
	 viewBox="0 0 150 150" enable-background="new 0 0 150 150" xml:space="preserve">
<g>
	<g>
		<path fill="#FFFFFF" d="M107.1,77.8c0.1-0.1,0.2-0.2,0.2-0.3c0.1-0.1,0.1-0.3,0.2-0.4c0-0.1,0.1-0.1,0.1-0.2v-0.1
			c0.1-0.1,0.1-0.3,0.1-0.4s0.1-0.2,0.1-0.3c0-0.1,0-0.3,0.1-0.4c0-0.1,0-0.2,0-0.4c0-0.1,0-0.3,0-0.4s0-0.2,0-0.3
			c0-0.2,0-0.3-0.1-0.4c0-0.1,0-0.2,0-0.3c0-0.1-0.1-0.3-0.1-0.4s-0.1-0.2-0.1-0.3c0,0,0-0.1,0-0.2s-0.1-0.1-0.1-0.2
			s-0.1-0.2-0.2-0.3c-0.1-0.1-0.2-0.3-0.2-0.4c-0.1-0.1-0.1-0.2-0.2-0.3c-0.1-0.1-0.2-0.2-0.3-0.4c0-0.1-0.1-0.1-0.1-0.2L81.2,45.7
			c-2.1-2.1-5.5-2.1-7.6,0s-2.1,5.5,0,7.6l16,16h-50c-1.9,0-3.5,0.9-4.5,2.4c-0.6,0.9-0.9,1.9-0.9,3c0,1.5,0.6,2.8,1.6,3.8
			s2.3,1.6,3.8,1.6l0,0h50l-16,16c-2.1,2.1-2.1,5.5,0,7.6c1.1,1.1,2.4,1.6,3.8,1.6s2.7-0.5,3.8-1.6l25.3-25.3c0-0.1,0.1-0.1,0.1-0.2
			c0.1-0.1,0.2-0.2,0.3-0.3C107,78,107,77.9,107.1,77.8z"/>
		<path fill="#FFFFFF" d="M74.4,11.2c-35.1,0-63.6,28.5-63.6,63.6s28.5,63.6,63.6,63.6S138,109.9,138,74.8S109.5,11.2,74.4,11.2z
			 M74.4,129.1c-29.9,0-54.3-24.4-54.3-54.3s24.4-54.3,54.3-54.3s54.3,24.4,54.3,54.3S104.3,129.1,74.4,129.1z"/>
	</g>
</g>
</svg>
