<?xml version="1.0" encoding="utf-8"?>
<!-- Generator: Adobe Illustrator 17.1.0, SVG Export Plug-In . SVG Version: 6.00 Build 0)  -->
<!DOCTYPE svg PUBLIC "-//W3C//DTD SVG 1.1//EN" "http://www.w3.org/Graphics/SVG/1.1/DTD/svg11.dtd">
<svg version="1.1" id="Layer_1" xmlns="http://www.w3.org/2000/svg" xmlns:xlink="http://www.w3.org/1999/xlink" x="0px" y="0px"
	 viewBox="0 0 100 100" enable-background="new 0 0 100 100" xml:space="preserve">
<g>
	<path fill="#F6A01A" d="M32.4,20.3C32.4,25.1,32.4,20.3,32.4,20.3v9.6H42v-9.6h14.4v9.6H66v-9.6c0,0,0,4.8,0,0
		c0-9.6-4.8-9.6-9.6-9.6s-4.8,0-14.4,0S32.4,15.5,32.4,20.3z"/>
	<g>
		<path fill="#F6A01A" d="M80.4,27.5c0-1.3-1.1-2.4-2.4-2.4H20.4c-1.3,0-2.4,1.1-2.4,2.4v4.8c0,1.3,1.1,2.4,2.4,2.4s2.4,1.1,2.4,2.4
			v48c0,1.3,1.1,2.4,2.4,2.4h48c1.3,0,2.4-1.1,2.4-2.4v-48c0-1.3,1.1-2.4,2.4-2.4s2.4-1.1,2.4-2.4V27.5z M37.2,75.5
			c0,1.3-1.1,2.4-2.4,2.4s-2.4-1.1-2.4-2.4V39.9c0-1.3,1.1-2.4,2.4-2.4s2.4,1.1,2.4,2.4V75.5z M51.6,75.5c0,1.3-1.1,2.4-2.4,2.4
			s-2.4-1.1-2.4-2.4V39.9c0-1.3,1.1-2.4,2.4-2.4s2.4,1.1,2.4,2.4V75.5z M66,75.5c0,1.3-1.1,2.4-2.4,2.4s-2.4-1.1-2.4-2.4V39.9
			c0-1.3,1.1-2.4,2.4-2.4s2.4,1.1,2.4,2.4V75.5z"/>
	</g>
</g>
</svg>
