<?xml version="1.0" encoding="utf-8"?>
<!-- Generator: Adobe Illustrator 18.1.0, SVG Export Plug-In . SVG Version: 6.00 Build 0)  -->
<!DOCTYPE svg PUBLIC "-//W3C//DTD SVG 1.1//EN" "http://www.w3.org/Graphics/SVG/1.1/DTD/svg11.dtd">
<svg version="1.1" id="Layer_1" xmlns="http://www.w3.org/2000/svg" xmlns:xlink="http://www.w3.org/1999/xlink" x="0px" y="0px"
	 viewBox="0 0 960 560" enable-background="new 0 0 960 560" xml:space="preserve">
<g>
	<path fill="#F6A01A" d="M254.2,262.2v17.3c103.7,172.8,345.6,172.8,449.3,0v-17.3C599.9,89.4,357.9,89.4,254.2,262.2z M478.9,374.6
		c-57.3,0-103.7-46.5-103.7-103.7c0-57.3,46.4-103.7,103.7-103.7c57.2,0,103.7,46.4,103.7,103.7
		C582.6,328.1,536.1,374.6,478.9,374.6z"/>
	<path fill="#F6A01A" d="M530.7,270.9c0,28.6-23.2,51.8-51.9,51.8c-28.6,0-51.9-23.2-51.9-51.8c0-28.7,23.2-51.8,51.9-51.8
		C507.5,219,530.7,242.1,530.7,270.9z"/>
</g>
</svg>
