<?xml version="1.0" encoding="utf-8"?>
<!-- Generator: Adobe Illustrator 18.0.0, SVG Export Plug-In . SVG Version: 6.00 Build 0)  -->
<!DOCTYPE svg PUBLIC "-//W3C//DTD SVG 1.1//EN" "http://www.w3.org/Graphics/SVG/1.1/DTD/svg11.dtd">
<svg version="1.1" id="Layer_1" xmlns="http://www.w3.org/2000/svg" xmlns:xlink="http://www.w3.org/1999/xlink" x="0px" y="0px"
	 viewBox="456.6 257 42.9 46" enable-background="new 456.6 257 42.9 46" xml:space="preserve">
<g id="A7hSGI_4_">
	<g>
		<g>
			<path fill="#58595B" d="M467.9,298.5c9.1,0,18.2,0,27.3,0c0-8.8,0-17.6,0-26.4c-3.5,0-7.1,0-10.6,0c0-3.6,0-7.1,0-10.7
				c-5.6,0-11.1,0-16.6,0c0,1.8,0,3.5,0,5.3c0,0-0.1,0-0.1,0c-0.1-0.3-0.3-0.6-0.4-0.9c-0.4-0.9-0.8-1.8-1.1-2.8
				c-0.1-0.4-0.2-0.8-0.2-1.2c0-0.7,0-1.5,0-2.3c0.3,0,0.6,0,0.9,0c5.9,0,11.9,0,17.8,0c0.3,0,0.5,0.1,0.7,0.3
				c3.8,3.8,7.6,7.6,11.3,11.4c0.1,0.1,0.2,0.4,0.2,0.5c0,8.7,0,17.4,0,26.1c0,0.8,0,1.6,0,2.5c-10.3,0-20.6,0-30.9,0
				c0-6.4,0-12.7,0-19.1c0,0,0,0,0.1,0c0.1,0.2,0.2,0.3,0.2,0.5c0.5,1.1,0.9,2.3,1.4,3.4c0.1,0.2,0.1,0.4,0.1,0.6c0,4,0,8.1,0,12.1
				C467.9,298.1,467.9,298.3,467.9,298.5z"/>
			<path fill="#58595B" d="M476.8,294.1c0,0.7,0,1.4,0,2.2c0,0.4-0.1,0.6-0.5,0.8c-0.3,0.1-0.6,0-0.8-0.3c-1-1-1.9-2.1-2.9-3.1
				c-0.1-0.1-0.2-0.3-0.3-0.5c-3.9-9.6-7.9-19.3-11.8-28.9c-0.4-1.1-0.1-2.1,0.9-2.7c1.1-0.7,2.4-0.5,3.1,0.3
				c0.1,0.2,0.2,0.4,0.3,0.5c3.9,9.6,7.9,19.3,11.8,28.9c0.1,0.2,0.1,0.4,0.1,0.6C476.8,292.7,476.8,293.4,476.8,294.1
				C476.8,294.1,476.8,294.1,476.8,294.1z"/>
			<path fill="#58595B" d="M478,293.7c4.1,0,8.3,0,12.4,0c0-1.4,0-2.8,0-4.2c-0.1,0-0.2,0-0.4,0c-4.2,0-8.3,0-12.5,0
				c-0.3,0-0.5-0.1-0.6-0.4c-0.1-0.4-0.3-0.8-0.5-1.3c5.2,0,10.4,0,15.6,0c0,2.5,0,4.9,0,7.4c-4.7,0-9.4,0-14.1,0
				C478,294.8,478,294.3,478,293.7z"/>
			<path fill="#58595B" d="M471.3,264.7c3.4,0,6.7,0,10,0c0,1.6,0,3.3,0,5c-3.3,0-6.7,0-10,0C471.3,268,471.3,266.4,471.3,264.7z"/>
			<path fill="#58595B" d="M471.7,276.3c6.8,0,13.5,0,20.3,0c0,0.5,0,1.1,0,1.6c-0.1,0-0.2,0-0.3,0c-6.3,0-12.6,0-18.8,0
				c-0.3,0-0.5-0.1-0.6-0.4C472.1,277.1,471.9,276.7,471.7,276.3z"/>
			<path fill="#58595B" d="M492,283.7c-1.5,0-2.9,0-4.3,0c-4.2,0-8.3,0-12.5,0c-0.3,0-0.5-0.1-0.6-0.4c-0.1-0.4-0.3-0.8-0.5-1.3
				c6,0,11.9,0,17.9,0C492,282.6,492,283.1,492,283.7z"/>
		</g>
	</g>
</g>
</svg>
