<?xml version="1.0" encoding="utf-8"?>
<!-- Generator: Adobe Illustrator 18.0.0, SVG Export Plug-In . SVG Version: 6.00 Build 0)  -->
<!DOCTYPE svg PUBLIC "-//W3C//DTD SVG 1.1//EN" "http://www.w3.org/Graphics/SVG/1.1/DTD/svg11.dtd">
<svg version="1.1" id="Layer_1" xmlns="http://www.w3.org/2000/svg" xmlns:xlink="http://www.w3.org/1999/xlink" x="0px" y="0px"
	 viewBox="190 0 519 560" enable-background="new 190 0 519 560" xml:space="preserve">
<g opacity="0.2">
	<polygon points="211,510 222,431 234,351 302,420 370,488 291,499 	"/>
	<polygon points="597,215 392,420 370,396 574,193 529,147 324,351 302,328 506,125 483,102 256,328 392,465 619,238 	"/>
	<path d="M690,170c12-12,12-32-1-44l-90-91c-12-12-33-13-44-1c-1,1-1,2-2,4l-1-1l-44,44l136,136l44-44l-1-1C689,171,690,171,690,170
		z"/>
</g>
</svg>
