<?xml version="1.0" encoding="utf-8"?>
<!-- Generator: Adobe Illustrator 18.0.0, SVG Export Plug-In . SVG Version: 6.00 Build 0)  -->
<!DOCTYPE svg PUBLIC "-//W3C//DTD SVG 1.1//EN" "http://www.w3.org/Graphics/SVG/1.1/DTD/svg11.dtd">
<svg version="1.1" id="Layer_1" xmlns="http://www.w3.org/2000/svg" xmlns:xlink="http://www.w3.org/1999/xlink" x="0px" y="0px"
	 viewBox="0 0 960 560" enable-background="new 0 0 960 560" xml:space="preserve">
<g>
	<path fill="#F6A01A" d="M80.7,263.5v30.7c183.8,306.3,612.5,306.3,796.3,0v-30.7C693.4-42.7,264.5-42.7,80.7,263.5z M478.9,462.7
		c-101.6,0-183.8-82.4-183.8-183.8c0-101.6,82.2-183.8,183.8-183.8c101.4,0,183.8,82.2,183.8,183.8
		C662.7,380.3,580.3,462.7,478.9,462.7z"/>
	<path fill="#F6A01A" d="M570.7,278.9c0,50.7-41.1,91.8-92,91.8c-50.7,0-92-41.1-92-91.8c0-50.9,41.1-91.8,92-91.8
		C529.6,187,570.7,227.9,570.7,278.9z"/>
</g>
</svg>
