<?xml version="1.0" encoding="utf-8"?>
<!-- Generator: Adobe Illustrator 18.0.0, SVG Export Plug-In . SVG Version: 6.00 Build 0)  -->
<!DOCTYPE svg PUBLIC "-//W3C//DTD SVG 1.1//EN" "http://www.w3.org/Graphics/SVG/1.1/DTD/svg11.dtd">
<svg version="1.1" id="Layer_1" xmlns="http://www.w3.org/2000/svg" xmlns:xlink="http://www.w3.org/1999/xlink" x="0px" y="0px"
	 viewBox="452 252 56 56" enable-background="new 452 252 56 56" xml:space="preserve">
<g>
	<polygon points="455.8,303.3 456.9,295.4 458.1,287.4 464.9,294.3 471.7,301.1 463.8,302.2 	"/>
	<polygon points="494.4,273.8 473.9,294.3 471.7,291.9 492.1,271.6 487.6,267 467.1,287.4 464.9,285.1 485.3,264.8 483,262.5 
		460.3,285.1 473.9,298.8 496.6,276.1 	"/>
	<path d="M503.7,269.3c1.2-1.2,1.2-3.2-0.1-4.4l-9-9.1c-1.2-1.2-3.3-1.3-4.4-0.1c-0.1,0.1-0.1,0.2-0.2,0.4l-0.1-0.1l-4.4,4.4
		l13.6,13.6l4.4-4.4l-0.1-0.1C503.6,269.4,503.7,269.4,503.7,269.3z"/>
</g>
</svg>
