<svg id="Layer_1" data-name="Layer 1" xmlns="http://www.w3.org/2000/svg" viewBox="0 0 51.37 49.15"><defs><style>.cls-1{fill:#fff;}.cls-2{fill:#6bae3d;}</style></defs><title>Artboard 6</title><path class="cls-1" d="M20,32.93a4.61,4.61,0,0,0-.32-.44Q16.34,29.21,13,25.91c-.69-.68-1.37-1.39-2-2.09a2,2,0,0,0-2.87-.06c-1,1.08-2.1,2.12-3.16,3.18a2.82,2.82,0,0,0,0,3.82Q11.15,37,17.34,43.2a8,8,0,0,0,2.11,1.5,3.24,3.24,0,0,0,4.48-1.17l3.18-4.66,9-13.26Q41.47,17.78,46.79,10a1.71,1.71,0,0,0-.44-2.58c-.26-.2-.57-.35-.84-.55L42,4.31a1.47,1.47,0,0,0-.5-.25,2.5,2.5,0,0,0-2.77,1.07Q30.37,17.56,22,30Z"/><path class="cls-2" d="M20,32.93,22,30Q30.36,17.56,38.73,5.13A2.5,2.5,0,0,1,41.5,4.06a1.47,1.47,0,0,1,.5.25l3.51,2.51c.27.2.58.35.84.55A1.71,1.71,0,0,1,46.79,10Q41.47,17.8,36.13,25.61l-9,13.26-3.18,4.66a3.24,3.24,0,0,1-4.48,1.17,8,8,0,0,1-2.11-1.5Q11.16,37,4.92,30.76a2.82,2.82,0,0,1,0-3.82c1.06-1.06,2.13-2.1,3.16-3.18a2,2,0,0,1,2.87.06c.67.7,1.35,1.41,2,2.09q3.33,3.3,6.68,6.58A4.61,4.61,0,0,1,20,32.93Z"/></svg>