<?xml version="1.0" encoding="utf-8"?>
<!-- Generator: Adobe Illustrator 17.1.0, SVG Export Plug-In . SVG Version: 6.00 Build 0)  -->
<!DOCTYPE svg PUBLIC "-//W3C//DTD SVG 1.1//EN" "http://www.w3.org/Graphics/SVG/1.1/DTD/svg11.dtd">
<svg version="1.1" id="Layer_1" xmlns="http://www.w3.org/2000/svg" xmlns:xlink="http://www.w3.org/1999/xlink" x="0px" y="0px"
	 viewBox="0 0 100 100" enable-background="new 0 0 100 100" xml:space="preserve">
<g>
	<g>
		<path fill="#F6A01A" d="M70.4,14.6H41V8.8c0-3.2-2.6-5.9-5.9-5.9c-3.2,0-5.9,2.6-5.9,5.9v5.9c-6.5,0-11.7,5.3-11.7,11.7v58.7
			c0,6.5,5.3,11.7,11.7,11.7h41.1c6.5,0,11.7-5.3,11.7-11.7V26.4C82.1,19.9,76.8,14.6,70.4,14.6z M35.1,85.1h-5.9v-5.9h5.9V85.1z
			 M35.1,73.3h-5.9v-5.9h5.9V73.3z M35.1,61.6h-5.9v-5.9h5.9V61.6z M46.9,85.1H41v-5.9h5.9V85.1z M46.9,73.3H41v-5.9h5.9V73.3z
			 M46.9,61.6H41v-5.9h5.9V61.6z M58.6,85.1h-5.9v-5.9h5.9V85.1z M58.6,73.3h-5.9v-5.9h5.9V73.3z M58.6,61.6h-5.9v-5.9h5.9V61.6z
			 M70.4,85.1h-5.9v-5.9h5.9V85.1z M70.4,73.3h-5.9v-5.9h5.9V73.3z M70.4,61.6h-5.9v-5.9h5.9V61.6z M70.4,49.9H29.3V26.4h41.1V49.9z
			"/>
	</g>
</g>
</svg>
