<?xml version="1.0" encoding="utf-8"?>
<!-- Generator: Adobe Illustrator 17.1.0, SVG Export Plug-In . SVG Version: 6.00 Build 0)  -->
<!DOCTYPE svg PUBLIC "-//W3C//DTD SVG 1.1//EN" "http://www.w3.org/Graphics/SVG/1.1/DTD/svg11.dtd">
<svg version="1.1" id="Layer_1" xmlns="http://www.w3.org/2000/svg" xmlns:xlink="http://www.w3.org/1999/xlink" x="0px" y="0px"
	 viewBox="0 0 100 100" enable-background="new 0 0 100 100" xml:space="preserve">
<g>
	<path fill="#F6A01A" d="M78,36c-0.9,0-2.5,0-4.7,0v4.7c0,7.2-6.8,14-14,14H37.9l-6.6,6.6c0,1,0,1.9,0,2.7c0,4.7,4.7,9.3,9.3,9.3
		c2.3,0,15.2,0,23.3,0l14,14v-14c4.7,0,9.3-4.7,9.3-9.3c0-4.7,0-14,0-18.7C87.3,40.7,82.7,36,78,36z"/>
	<path fill="#F6A01A" d="M59.3,12.7c-4.7,0-32.7,0-37.3,0c-4.7,0-9.3,4.7-9.3,9.3c0,4.7,0,14,0,18.7c0,4.7,4.7,9.3,9.3,9.3
		c0.9,0-2.1,0,0,0v14l14-14c8.2,0,21,0,23.3,0c4.7,0,9.3-4.7,9.3-9.3c0-4.7,0-14,0-18.7C68.7,17.3,64,12.7,59.3,12.7z"/>
</g>
</svg>
