<?xml version="1.0" encoding="utf-8"?>
<!-- Generator: Adobe Illustrator 17.1.0, SVG Export Plug-In . SVG Version: 6.00 Build 0)  -->
<!DOCTYPE svg PUBLIC "-//W3C//DTD SVG 1.0//EN" "http://www.w3.org/TR/2001/REC-SVG-20010904/DTD/svg10.dtd">
<svg version="1.0" id="Layer_1" xmlns="http://www.w3.org/2000/svg" xmlns:xlink="http://www.w3.org/1999/xlink" x="0px" y="0px"
	 viewBox="0 0 100 100" enable-background="new 0 0 100 100" xml:space="preserve">
<g>
	<path fill="#F6A01A" d="M61.2,56.7H54c-0.4-1.4-1-2.7-1.8-3.9L57,48c1.1-1.1,1.1-2.9,0-4.1l-2-2c-1.1-1.1-3-1.1-4.1,0l-4.9,4.9
		c-1.3-0.7-2.7-1.3-4.3-1.7v-6.3c0-1.6-1.3-2.9-2.9-2.9h-2.9c-1.6,0-2.9,1.3-2.9,2.9v6.3c-1.7,0.4-3.2,1.1-4.6,1.9L24.5,43
		c-1.1-1.1-3-1.1-4.1,0l-2,2c-1.1,1.1-1.1,2.9,0,4.1l4.1,4.1c-0.9,1.5-1.5,3.2-1.9,5h-5.4c-1.6,0-2.9,1.3-2.9,2.9v2.9
		c0,1.6,1.3,2.9,2.9,2.9H21c0.5,1.7,1.3,3.3,2.3,4.8l-3.9,3.9c-1.1,1.1-1.1,3,0,4.1l2,2c1.1,1.1,2.9,1.1,4.1,0l4.4-4.4
		c1.5,0.7,3.1,1.3,4.7,1.5v6c0,1.6,1.3,2.9,2.9,2.9h2.9c1.6,0,2.9-1.3,2.9-2.9V78c1.4-0.5,2.8-1.2,4.1-2.1l4.6,4.6
		c1.1,1.1,2.9,1.1,4.1,0l2-2c1.1-1.1,1.1-2.9,0-4.1L53,69.4c0.6-1.3,1.1-2.6,1.4-4h6.8c1.6,0,2.9-1.3,2.9-2.9v-2.9
		C64.1,58,62.8,56.7,61.2,56.7z M37.5,69c-4,0-7.2-3.2-7.2-7.2c0-4,3.2-7.2,7.2-7.2c4,0,7.2,3.2,7.2,7.2C44.7,65.7,41.5,69,37.5,69z
		"/>
	<path fill="#F6A01A" d="M85.8,25.6h-4.6c-0.3-0.9-0.7-1.7-1.1-2.5l3-3.1c0.7-0.7,0.7-1.9,0-2.6l-1.3-1.3c-0.7-0.7-1.9-0.7-2.6,0
		l-3.1,3.1c-0.8-0.5-1.7-0.8-2.7-1.1v-4c0-1-0.8-1.8-1.8-1.8h-1.8c-1,0-1.8,0.8-1.8,1.8v4c-1.1,0.3-2,0.7-2.9,1.2l-2.6-2.6
		c-0.7-0.7-1.9-0.7-2.6,0l-1.3,1.3c-0.7,0.7-0.7,1.9,0,2.6l2.6,2.6c-0.6,1-1,2-1.2,3.2h-3.4c-1,0-1.8,0.8-1.8,1.8v1.8
		c0,1,0.8,1.8,1.8,1.8h3.7c0.3,1.1,0.8,2.1,1.5,3l-2.5,2.5c-0.7,0.7-0.7,1.9,0,2.6l1.3,1.3c0.7,0.7,1.9,0.7,2.6,0l2.8-2.8
		c0.9,0.5,2,0.8,3,1v3.8c0,1,0.8,1.8,1.8,1.8h1.8c1,0,1.8-0.8,1.8-1.8v-4.3c0.9-0.3,1.8-0.8,2.6-1.3l2.9,3c0.7,0.7,1.9,0.7,2.6,0
		l1.3-1.3c0.7-0.7,0.7-1.9,0-2.6l-3.2-3.2c0.4-0.8,0.7-1.7,0.9-2.6h4.4c1,0,1.8-0.8,1.8-1.8v-1.8C87.6,26.4,86.8,25.6,85.8,25.6z
		 M70.7,33.4c-2.5,0-4.6-2-4.6-4.6c0-2.5,2.1-4.6,4.6-4.6c2.5,0,4.6,2,4.6,4.6C75.3,31.3,73.3,33.4,70.7,33.4z"/>
</g>
</svg>
