<?xml version="1.0" encoding="utf-8"?>
<!-- Generator: Adobe Illustrator 17.1.0, SVG Export Plug-In . SVG Version: 6.00 Build 0)  -->
<!DOCTYPE svg PUBLIC "-//W3C//DTD SVG 1.0//EN" "http://www.w3.org/TR/2001/REC-SVG-20010904/DTD/svg10.dtd">
<svg version="1.0" id="Layer_1" xmlns="http://www.w3.org/2000/svg" xmlns:xlink="http://www.w3.org/1999/xlink" x="0px" y="0px"
	 viewBox="0 0 100 100" enable-background="new 0 0 100 100" xml:space="preserve">
<g>
	<path fill="#F6A01A" d="M22.2,53.9c0.6,0.2,1.4-0.1,1.6-0.8L27,44l7.2,11l7.3-11.4l7.5,12.1l6.8-21.2c0.2-0.7-0.1-1.4-0.8-1.6
		c-0.6-0.2-1.4,0.2-1.6,0.8l-5.2,16l-6.7-10.9l-7.3,11.5l-7.8-12l-4.8,13.9C21.3,52.9,21.6,53.6,22.2,53.9z"/>
	<path fill="#F6A01A" d="M57.5,14.2v-5h-9.9v5H12.7v6.2v3.7v39.8h34.8v9.4L27.8,88.8h4.9l14.8-10.2v0.2h9.9v-0.2l14.8,10.2h4.9
		L57.5,73.3v-9.4h29.8V24.1v-3.7v-6.2H57.5z M82.3,58.9H57.5h-9.9H17.7V25.4h64.6V58.9z"/>
	<path fill="#F6A01A" d="M69,44.7c3.6,0,6.5-2.9,6.5-6.5c0-3.6-2.9-6.5-6.5-6.5c-3.6,0-6.5,2.9-6.5,6.5C62.5,41.7,65.4,44.7,69,44.7
		z"/>
	<rect x="62.4" y="49" fill="#F6A01A" width="5" height="5"/>
	<rect x="72.4" y="49" fill="#F6A01A" width="5" height="5"/>
</g>
</svg>
