<?xml version="1.0" encoding="utf-8"?>
<!-- Generator: Adobe Illustrator 17.1.0, SVG Export Plug-In . SVG Version: 6.00 Build 0)  -->
<!DOCTYPE svg PUBLIC "-//W3C//DTD SVG 1.0//EN" "http://www.w3.org/TR/2001/REC-SVG-20010904/DTD/svg10.dtd">
<svg version="1.0" id="Layer_1" xmlns="http://www.w3.org/2000/svg" xmlns:xlink="http://www.w3.org/1999/xlink" x="0px" y="0px"
	 viewBox="0 0 100 100" enable-background="new 0 0 100 100" xml:space="preserve">
<g>
	<circle fill="#43B0D1" cx="50" cy="44.6" r="10.7"/>
	<path fill="#43B0D1" d="M60.7,60.7c-5.4,0-16.1,0-21.4,0c-10.7,0,0,32.1,5.4,32.1s0,0,10.7,0C60.7,92.9,71.4,60.7,60.7,60.7z"/>
	<path fill="#43B0D1" d="M87.5,44.6C87.5,23.9,70.7,7.1,50,7.1c-20.7,0-37.5,16.8-37.5,37.5c0,13.5,7.2,25.3,17.9,31.9
		c-0.6-2.7-0.9-5.2-1-7.3c-7-5.9-11.5-14.8-11.5-24.6c0-17.7,14.4-32.1,32.1-32.1c17.7,0,32.1,14.4,32.1,32.1
		c0,9.9-4.5,18.7-11.5,24.6c-0.1,2.1-0.4,4.6-1,7.3C80.3,70,87.5,58.2,87.5,44.6z"/>
	<path fill="#43B0D1" d="M50,21.2c-12.9,0-23.4,10.5-23.4,23.4c0,5.5,2,10.6,5.2,14.6c1.1-1.5,2.5-2.6,4.2-3.2
		c-2.5-3.1-4.1-7-4.1-11.3c0-10,8.1-18.1,18.1-18.1c10,0,18.1,8.1,18.1,18.1c0,4.3-1.6,8.2-4.1,11.3c1.7,0.6,3.1,1.7,4.2,3.2
		c3.2-4,5.2-9,5.2-14.6C73.4,31.7,62.9,21.2,50,21.2z"/>
</g>
</svg>
