<?xml version="1.0" encoding="utf-8"?>
<!-- Generator: Adobe Illustrator 17.1.0, SVG Export Plug-In . SVG Version: 6.00 Build 0)  -->
<!DOCTYPE svg PUBLIC "-//W3C//DTD SVG 1.0//EN" "http://www.w3.org/TR/2001/REC-SVG-20010904/DTD/svg10.dtd">
<svg version="1.0" id="Layer_1" xmlns="http://www.w3.org/2000/svg" xmlns:xlink="http://www.w3.org/1999/xlink" x="0px" y="0px"
	 viewBox="0 0 100 100" enable-background="new 0 0 100 100" xml:space="preserve">
<path fill="#F6A01A" d="M90.5,65.5c-1.6-2.4-1.6-3.9-6.6-6.1c-5.2-2.1-6.3-2.9-6.3-2.9v-4.9c0,0,1.9-1.5,2.5-6.1
	c1.2,0.3,2.5-1.8,2.5-2.9c0.1-1.1-0.1-4-1.7-3.8c0.3-2.2,0.6-4.3,0.4-5.4c-0.3-3.9-4.3-8.1-10.2-8.1c-6,0-9.9,4.2-10.2,8.1
	c-0.1,1.1,0.1,3.1,0.4,5.4c-1.5-0.3-1.7,2.7-1.6,3.8c0.1,1.1,1.3,3.3,2.5,2.9c0.6,4.6,2.5,6.1,2.5,6.1l-4.3,3.4
	c2.4,1.3,8.7,0.6,9.9,2.7C71,58.9,73,62,72.5,80.9h19C91.5,80.9,91.9,67.6,90.5,65.5z"/>
<path fill="#F6A01A" d="M64.4,63.7C62.7,61,57,59.4,51.2,57c-5.7-2.4-7.1-3.1-7.1-3.1v-5.5c0,0,2.1-1.7,2.8-6.7
	c1.3,0.3,2.7-2,2.8-3.3c0.1-1.2-0.2-4.5-1.8-4.2c0.3-2.5,0.6-4.8,0.4-6c-0.4-4.4-4.7-9-11.4-9s-11,4.6-11.4,9
	c-0.1,1.2,0.1,3.5,0.4,6c-1.7-0.3-1.9,3-1.8,4.2c0.1,1.2,1.5,3.6,2.8,3.3c0.7,5.2,2.8,6.7,2.8,6.7v5.5c0,0-1.3,0.8-7.1,3.1
	c-5.7,2.4-11.5,4-13.2,6.7c-1.6,2.4-1.1,17.2-1.1,17.2h28.6h28.4C65.5,80.9,66,66.1,64.4,63.7z"/>
</svg>
