<?xml version="1.0" encoding="utf-8"?>
<!-- Generator: Adobe Illustrator 22.0.1, SVG Export Plug-In . SVG Version: 6.00 Build 0)  -->
<svg version="1.1" id="Layer_1" xmlns="http://www.w3.org/2000/svg" xmlns:xlink="http://www.w3.org/1999/xlink" x="0px" y="0px"
	 viewBox="0 0 67.5 66.5" style="enable-background:new 0 0 67.5 66.5;" xml:space="preserve">
<style type="text/css">
	.st0{opacity:0.3;}
	.st1{fill:#FFFFFF;}
</style>
<title>Artboard 2</title>
<g>
	<g class="st0">
		<path d="M64.2,26.1v-5.6c0-1.9-1.5-3.4-3.4-3.4h-7.6h-2.5h-9h-2.5h-6.5l-0.4-0.2l-3.5-5.2c-0.5-0.8-1.4-1.3-2.3-1.3H13.6
			c-1.9,0-3.4,1.5-3.4,3.4v44.9c0,1.9,1.5,3.4,3.4,3.4h47c1.7,0,3.2-1.4,3.6-3.1V26.1z M62.2,57.6l-0.3,1.1
			c-0.2,0.6-0.8,1.1-1.4,1.1H17.8H15h-1.3c-0.6,0-1.1-0.5-1.1-1.1V13.7c0-0.6,0.5-1.1,1.1-1.1h12.8l0.5,0.2l3.5,5.2
			c0.5,0.8,1.4,1.3,2.3,1.3h6.5h2.5h9h2.5h7.6c0.6,0,1.1,0.5,1.1,1.1v5.6L62.2,57.6z"/>
		<path d="M62.2,57.6l-0.3,1.1c-0.2,0.6-0.8,1.1-1.4,1.1H17.8H15h-1.3c-0.6,0-1.1-0.5-1.1-1.1V13.7c0-0.6,0.5-1.1,1.1-1.1h12.8
			l0.5,0.2l3.5,5.2c0.5,0.8,1.4,1.3,2.3,1.3h6.5h2.5h9h2.5h7.6c0.6,0,1.1,0.5,1.1,1.1v5.6L62.2,57.6z"/>
		<g>
			<g>
				<path d="M22.7,45.9l6.2-11.2v-0.1h-5.2c-0.2,0-0.4-0.2-0.4-0.4v-1.7c0-0.2,0.2-0.4,0.4-0.4h8.7c0.2,0,0.4,0.2,0.4,0.4v0.3
					l-6.1,11.3v0H32c0.2,0,0.4,0.2,0.4,0.4v1.7c0,0.2-0.2,0.4-0.4,0.4h-8.9c-0.2,0-0.4-0.2-0.4-0.4V45.9z"/>
				<path d="M35.3,32.6c0-0.2,0.2-0.4,0.4-0.4h1.9c0.2,0,0.4,0.2,0.4,0.4v13.7c0,0.2-0.2,0.4-0.4,0.4h-1.9c-0.2,0-0.4-0.2-0.4-0.4
					V32.6z"/>
				<path d="M41.8,32.6c0-0.2,0.2-0.4,0.4-0.4h4.9c2.6,0,4.6,2.1,4.6,4.6c0,2.6-2.1,4.7-4.6,4.7h-2.6v4.9c0,0.2-0.2,0.4-0.4,0.4
					h-1.9c-0.2,0-0.4-0.2-0.4-0.4V32.6z M46.9,38.9c1.2,0,2.1-0.9,2.1-2.2c0-1.1-1-2-2.1-2h-2.4v4.2H46.9z"/>
			</g>
			<g>
				<path d="M22.7,45.9l6.2-11.2v-0.1h-5.2c-0.2,0-0.4-0.2-0.4-0.4v-1.7c0-0.2,0.2-0.4,0.4-0.4h8.7c0.2,0,0.4,0.2,0.4,0.4v0.3
					l-6.1,11.3v0H32c0.2,0,0.4,0.2,0.4,0.4v1.7c0,0.2-0.2,0.4-0.4,0.4h-8.9c-0.2,0-0.4-0.2-0.4-0.4V45.9z"/>
				<path d="M35.3,32.6c0-0.2,0.2-0.4,0.4-0.4h1.9c0.2,0,0.4,0.2,0.4,0.4v13.7c0,0.2-0.2,0.4-0.4,0.4h-1.9c-0.2,0-0.4-0.2-0.4-0.4
					V32.6z"/>
				<path d="M41.8,32.6c0-0.2,0.2-0.4,0.4-0.4h4.9c2.6,0,4.6,2.1,4.6,4.6c0,2.6-2.1,4.7-4.6,4.7h-2.6v4.9c0,0.2-0.2,0.4-0.4,0.4
					h-1.9c-0.2,0-0.4-0.2-0.4-0.4V32.6z M46.9,38.9c1.2,0,2.1-0.9,2.1-2.2c0-1.1-1-2-2.1-2h-2.4v4.2H46.9z"/>
			</g>
			<g>
				<path d="M22.7,45.9l6.2-11.2v-0.1h-5.2c-0.2,0-0.4-0.2-0.4-0.4v-1.7c0-0.2,0.2-0.4,0.4-0.4h8.7c0.2,0,0.4,0.2,0.4,0.4v0.3
					l-6.1,11.3v0H32c0.2,0,0.4,0.2,0.4,0.4v1.7c0,0.2-0.2,0.4-0.4,0.4h-8.9c-0.2,0-0.4-0.2-0.4-0.4V45.9z"/>
				<path d="M35.3,32.6c0-0.2,0.2-0.4,0.4-0.4h1.9c0.2,0,0.4,0.2,0.4,0.4v13.7c0,0.2-0.2,0.4-0.4,0.4h-1.9c-0.2,0-0.4-0.2-0.4-0.4
					V32.6z"/>
				<path d="M41.8,32.6c0-0.2,0.2-0.4,0.4-0.4h4.9c2.6,0,4.6,2.1,4.6,4.6c0,2.6-2.1,4.7-4.6,4.7h-2.6v4.9c0,0.2-0.2,0.4-0.4,0.4
					h-1.9c-0.2,0-0.4-0.2-0.4-0.4V32.6z M46.9,38.9c1.2,0,2.1-0.9,2.1-2.2c0-1.1-1-2-2.1-2h-2.4v4.2H46.9z"/>
			</g>
		</g>
		<path d="M60.7,22.6V17c0-1.9-1.5-3.4-3.4-3.4h-7.6h-2.5h-9h-2.5h-6.5l-0.4-0.2l-3.5-5.2c-0.5-0.8-1.4-1.3-2.3-1.3H10.1
			c-1.9,0-3.4,1.5-3.4,3.4v44.9c0,1.9,1.5,3.4,3.4,3.4h47c1.7,0,3.2-1.4,3.6-3.1V22.6z M58.6,54l-0.3,1.1c-0.2,0.6-0.8,1.1-1.4,1.1
			H14.3h-2.8h-1.3c-0.6,0-1.1-0.5-1.1-1.1V10.2c0-0.6,0.5-1.1,1.1-1.1h12.8l0.5,0.2l3.5,5.2c0.5,0.8,1.4,1.3,2.3,1.3h6.5h2.5h9h2.5
			h7.6c0.6,0,1.1,0.5,1.1,1.1v5.6L58.6,54z"/>
		<path d="M58.6,54l-0.3,1.1c-0.2,0.6-0.8,1.1-1.4,1.1H14.3h-2.8h-1.3c-0.6,0-1.1-0.5-1.1-1.1V10.2c0-0.6,0.5-1.1,1.1-1.1h12.8
			l0.5,0.2l3.5,5.2c0.5,0.8,1.4,1.3,2.3,1.3h6.5h2.5h9h2.5h7.6c0.6,0,1.1,0.5,1.1,1.1v5.6L58.6,54z"/>
		<path d="M63.9,47.9H5.5c-1.7,0-3-1.3-3-3V28.9c0-1.6,1.4-3,3-3h58.5c1.6,0,3,1.4,3,3v15.9C66.9,46.5,65.6,47.9,63.9,47.9z"/>
		<g>
			<g>
				<path d="M20.2,43.4l6.2-11.2v-0.1h-5.2c-0.2,0-0.4-0.2-0.4-0.4V30c0-0.2,0.2-0.4,0.4-0.4h8.7c0.2,0,0.4,0.2,0.4,0.4v0.3
					l-6.1,11.3v0h5.3c0.2,0,0.4,0.2,0.4,0.4v1.7c0,0.2-0.2,0.4-0.4,0.4h-8.9c-0.2,0-0.4-0.2-0.4-0.4V43.4z"/>
				<path d="M32.8,30c0-0.2,0.2-0.4,0.4-0.4h1.9c0.2,0,0.4,0.2,0.4,0.4v13.7c0,0.2-0.2,0.4-0.4,0.4h-1.9c-0.2,0-0.4-0.2-0.4-0.4V30z
					"/>
				<path d="M39.3,30c0-0.2,0.2-0.4,0.4-0.4h4.9c2.6,0,4.6,2.1,4.6,4.6c0,2.6-2.1,4.7-4.6,4.7H42v4.9c0,0.2-0.2,0.4-0.4,0.4h-1.9
					c-0.2,0-0.4-0.2-0.4-0.4V30z M44.4,36.4c1.2,0,2.1-0.9,2.1-2.2c0-1.1-1-2-2.1-2H42v4.2H44.4z"/>
			</g>
			<g>
				<path d="M20.2,43.4l6.2-11.2v-0.1h-5.2c-0.2,0-0.4-0.2-0.4-0.4V30c0-0.2,0.2-0.4,0.4-0.4h8.7c0.2,0,0.4,0.2,0.4,0.4v0.3
					l-6.1,11.3v0h5.3c0.2,0,0.4,0.2,0.4,0.4v1.7c0,0.2-0.2,0.4-0.4,0.4h-8.9c-0.2,0-0.4-0.2-0.4-0.4V43.4z"/>
				<path d="M32.8,30c0-0.2,0.2-0.4,0.4-0.4h1.9c0.2,0,0.4,0.2,0.4,0.4v13.7c0,0.2-0.2,0.4-0.4,0.4h-1.9c-0.2,0-0.4-0.2-0.4-0.4V30z
					"/>
				<path d="M39.3,30c0-0.2,0.2-0.4,0.4-0.4h4.9c2.6,0,4.6,2.1,4.6,4.6c0,2.6-2.1,4.7-4.6,4.7H42v4.9c0,0.2-0.2,0.4-0.4,0.4h-1.9
					c-0.2,0-0.4-0.2-0.4-0.4V30z M44.4,36.4c1.2,0,2.1-0.9,2.1-2.2c0-1.1-1-2-2.1-2H42v4.2H44.4z"/>
			</g>
			<g>
				<path d="M20.2,43.4l6.2-11.2v-0.1h-5.2c-0.2,0-0.4-0.2-0.4-0.4V30c0-0.2,0.2-0.4,0.4-0.4h8.7c0.2,0,0.4,0.2,0.4,0.4v0.3
					l-6.1,11.3v0h5.3c0.2,0,0.4,0.2,0.4,0.4v1.7c0,0.2-0.2,0.4-0.4,0.4h-8.9c-0.2,0-0.4-0.2-0.4-0.4V43.4z"/>
				<path d="M32.8,30c0-0.2,0.2-0.4,0.4-0.4h1.9c0.2,0,0.4,0.2,0.4,0.4v13.7c0,0.2-0.2,0.4-0.4,0.4h-1.9c-0.2,0-0.4-0.2-0.4-0.4V30z
					"/>
				<path d="M39.3,30c0-0.2,0.2-0.4,0.4-0.4h4.9c2.6,0,4.6,2.1,4.6,4.6c0,2.6-2.1,4.7-4.6,4.7H42v4.9c0,0.2-0.2,0.4-0.4,0.4h-1.9
					c-0.2,0-0.4-0.2-0.4-0.4V30z M44.4,36.4c1.2,0,2.1-0.9,2.1-2.2c0-1.1-1-2-2.1-2H42v4.2H44.4z"/>
			</g>
		</g>
	</g>
	<g>
		<path d="M62.2,24.1v-5.6c0-1.9-1.5-3.4-3.4-3.4h-7.6h-2.5h-9h-2.5h-6.5l-0.4-0.2l-3.5-5.2c-0.5-0.8-1.4-1.3-2.3-1.3H11.6
			c-1.9,0-3.4,1.5-3.4,3.4v44.9c0,1.9,1.5,3.4,3.4,3.4h47c1.7,0,3.2-1.4,3.6-3.1V24.1z M60.2,55.6l-0.3,1.1
			c-0.2,0.6-0.8,1.1-1.4,1.1H15.8H13h-1.3c-0.6,0-1.1-0.5-1.1-1.1V11.7c0-0.6,0.5-1.1,1.1-1.1h12.8l0.5,0.2l3.5,5.2
			c0.5,0.8,1.4,1.3,2.3,1.3h6.5h2.5h9h2.5h7.6c0.6,0,1.1,0.5,1.1,1.1v5.6L60.2,55.6z"/>
		<path class="st1" d="M60.2,55.6l-0.3,1.1c-0.2,0.6-0.8,1.1-1.4,1.1H15.8H13h-1.3c-0.6,0-1.1-0.5-1.1-1.1V11.7
			c0-0.6,0.5-1.1,1.1-1.1h12.8l0.5,0.2l3.5,5.2c0.5,0.8,1.4,1.3,2.3,1.3h6.5h2.5h9h2.5h7.6c0.6,0,1.1,0.5,1.1,1.1v5.6L60.2,55.6z"/>
		<g>
			<g>
				<path class="st1" d="M20.7,43.9l6.2-11.2v-0.1h-5.2c-0.2,0-0.4-0.2-0.4-0.4v-1.7c0-0.2,0.2-0.4,0.4-0.4h8.7
					c0.2,0,0.4,0.2,0.4,0.4v0.3l-6.1,11.3v0H30c0.2,0,0.4,0.2,0.4,0.4v1.7c0,0.2-0.2,0.4-0.4,0.4h-8.9c-0.2,0-0.4-0.2-0.4-0.4V43.9z
					"/>
				<path class="st1" d="M33.3,30.6c0-0.2,0.2-0.4,0.4-0.4h1.9c0.2,0,0.4,0.2,0.4,0.4v13.7c0,0.2-0.2,0.4-0.4,0.4h-1.9
					c-0.2,0-0.4-0.2-0.4-0.4V30.6z"/>
				<path class="st1" d="M39.8,30.6c0-0.2,0.2-0.4,0.4-0.4h4.9c2.6,0,4.6,2.1,4.6,4.6c0,2.6-2.1,4.7-4.6,4.7h-2.6v4.9
					c0,0.2-0.2,0.4-0.4,0.4h-1.9c-0.2,0-0.4-0.2-0.4-0.4V30.6z M44.9,36.9c1.2,0,2.1-0.9,2.1-2.2c0-1.1-1-2-2.1-2h-2.4v4.2H44.9z"/>
			</g>
		</g>
		<path d="M58.7,20.6V15c0-1.9-1.5-3.4-3.4-3.4h-7.6h-2.5h-9h-2.5h-6.5l-0.4-0.2l-3.5-5.2c-0.5-0.8-1.4-1.3-2.3-1.3H8.1
			c-1.9,0-3.4,1.5-3.4,3.4v44.9c0,1.9,1.5,3.4,3.4,3.4h47c1.7,0,3.2-1.4,3.6-3.1V20.6z M56.6,52l-0.3,1.1c-0.2,0.6-0.8,1.1-1.4,1.1
			H12.3H9.5H8.1c-0.6,0-1.1-0.5-1.1-1.1V8.2c0-0.6,0.5-1.1,1.1-1.1h12.8l0.5,0.2l3.5,5.2c0.5,0.8,1.4,1.3,2.3,1.3h6.5h2.5h9h2.5h7.6
			c0.6,0,1.1,0.5,1.1,1.1v5.6L56.6,52z"/>
		<path class="st1" d="M56.6,52l-0.3,1.1c-0.2,0.6-0.8,1.1-1.4,1.1H12.3H9.5H8.1c-0.6,0-1.1-0.5-1.1-1.1V8.2c0-0.6,0.5-1.1,1.1-1.1
			h12.8l0.5,0.2l3.5,5.2c0.5,0.8,1.4,1.3,2.3,1.3h6.5h2.5h9h2.5h7.6c0.6,0,1.1,0.5,1.1,1.1v5.6L56.6,52z"/>
		<path d="M61.9,45.9H3.5c-1.6,0-3-1.3-3-3V26.9c0-1.6,1.3-3,3-3h58.5c1.6,0,3,1.4,3,3v15.9C64.9,44.5,63.6,45.9,61.9,45.9z"/>
		<g>
			<g>
				<path class="st1" d="M18.2,41.4l6.2-11.2v-0.1h-5.2c-0.2,0-0.4-0.2-0.4-0.4V28c0-0.2,0.2-0.4,0.4-0.4h8.7c0.2,0,0.4,0.2,0.4,0.4
					v0.3l-6.1,11.3v0h5.3c0.2,0,0.4,0.2,0.4,0.4v1.7c0,0.2-0.2,0.4-0.4,0.4h-8.9c-0.2,0-0.4-0.2-0.4-0.4V41.4z"/>
				<path class="st1" d="M30.8,28c0-0.2,0.2-0.4,0.4-0.4h1.9c0.2,0,0.4,0.2,0.4,0.4v13.7c0,0.2-0.2,0.4-0.4,0.4h-1.9
					c-0.2,0-0.4-0.2-0.4-0.4V28z"/>
				<path class="st1" d="M37.3,28c0-0.2,0.2-0.4,0.4-0.4h4.9c2.6,0,4.6,2.1,4.6,4.6c0,2.6-2.1,4.7-4.6,4.7H40v4.9
					c0,0.2-0.2,0.4-0.4,0.4h-1.9c-0.2,0-0.4-0.2-0.4-0.4V28z M42.4,34.4c1.2,0,2.1-0.9,2.1-2.2c0-1.1-1-2-2.1-2H40v4.2H42.4z"/>
			</g>
		</g>
	</g>
</g>
</svg>
