<?xml version="1.0" encoding="utf-8"?>
<!-- Generator: Adobe Illustrator 22.1.0, SVG Export Plug-In . SVG Version: 6.00 Build 0)  -->
<svg version="1.1" id="Layer_1" xmlns="http://www.w3.org/2000/svg" xmlns:xlink="http://www.w3.org/1999/xlink" x="0px" y="0px"
	 viewBox="0 0 67.5 66.5" style="enable-background:new 0 0 67.5 66.5;" xml:space="preserve">
<style type="text/css">
	.st0{opacity:0.3;}
	.st1{fill:#004D8B;}
	.st2{fill:#FFFFFF;}
</style>
<title>Artboard 2</title>
<g>
	<g class="st0">
		<path class="st1" d="M63.3,27.3V22c0-1.7-1.4-3.2-3.2-3.2h-7.2h-2.3h-8.4h-2.3h-6.1l-0.4-0.2l-3.3-4.9c-0.5-0.7-1.3-1.2-2.2-1.2
			h-12c-1.7,0-3.2,1.4-3.2,3.2v42.1c0,1.7,1.4,3.2,3.2,3.2h44c1.6,0,3-1.3,3.4-2.9V27.3z M61.4,56.8l-0.3,1.1
			c-0.1,0.6-0.7,1.1-1.3,1.1H19.8h-2.6h-1.3c-0.6,0-1.1-0.5-1.1-1.1V15.7c0-0.6,0.5-1.1,1.1-1.1h12l0.4,0.2l3.3,4.9
			c0.5,0.7,1.3,1.2,2.2,1.2h6.1h2.3h8.4h2.3h7.2c0.6,0,1.1,0.5,1.1,1.1v5.3L61.4,56.8z"/>
		<path class="st1" d="M61.4,56.8l-0.3,1.1c-0.1,0.6-0.7,1.1-1.3,1.1H19.8h-2.6h-1.3c-0.6,0-1.1-0.5-1.1-1.1V15.7
			c0-0.6,0.5-1.1,1.1-1.1h12l0.4,0.2l3.3,4.9c0.5,0.7,1.3,1.2,2.2,1.2h6.1h2.3h8.4h2.3h7.2c0.6,0,1.1,0.5,1.1,1.1v5.3L61.4,56.8z"/>
		<g>
			<g>
				<path class="st1" d="M24.4,45.9l5.8-10.5v-0.1h-4.9c-0.2,0-0.4-0.2-0.4-0.4v-1.6c0-0.2,0.2-0.4,0.4-0.4h8.1
					c0.2,0,0.4,0.2,0.4,0.4v0.3l-5.7,10.6v0h5c0.2,0,0.4,0.2,0.4,0.4v1.6c0,0.2-0.2,0.4-0.4,0.4h-8.3c-0.2,0-0.4-0.2-0.4-0.4V45.9z"
					/>
				<path class="st1" d="M36.2,33.4c0-0.2,0.2-0.4,0.4-0.4h1.8c0.2,0,0.4,0.2,0.4,0.4v12.9c0,0.2-0.2,0.4-0.4,0.4h-1.8
					c-0.2,0-0.4-0.2-0.4-0.4V33.4z"/>
				<path class="st1" d="M42.3,33.4c0-0.2,0.2-0.4,0.4-0.4h4.6c2.4,0,4.4,1.9,4.4,4.3c0,2.4-2,4.4-4.3,4.4h-2.4v4.6
					c0,0.2-0.2,0.4-0.4,0.4h-1.8c-0.2,0-0.4-0.2-0.4-0.4V33.4z M47.1,39.3c1.1,0,2-0.9,2-2c0-1.1-0.9-1.9-2-1.9h-2.3v3.9H47.1z"/>
			</g>
			<g>
				<path class="st1" d="M24.4,45.9l5.8-10.5v-0.1h-4.9c-0.2,0-0.4-0.2-0.4-0.4v-1.6c0-0.2,0.2-0.4,0.4-0.4h8.1
					c0.2,0,0.4,0.2,0.4,0.4v0.3l-5.7,10.6v0h5c0.2,0,0.4,0.2,0.4,0.4v1.6c0,0.2-0.2,0.4-0.4,0.4h-8.3c-0.2,0-0.4-0.2-0.4-0.4V45.9z"
					/>
				<path class="st1" d="M36.2,33.4c0-0.2,0.2-0.4,0.4-0.4h1.8c0.2,0,0.4,0.2,0.4,0.4v12.9c0,0.2-0.2,0.4-0.4,0.4h-1.8
					c-0.2,0-0.4-0.2-0.4-0.4V33.4z"/>
				<path class="st1" d="M42.3,33.4c0-0.2,0.2-0.4,0.4-0.4h4.6c2.4,0,4.4,1.9,4.4,4.3c0,2.4-2,4.4-4.3,4.4h-2.4v4.6
					c0,0.2-0.2,0.4-0.4,0.4h-1.8c-0.2,0-0.4-0.2-0.4-0.4V33.4z M47.1,39.3c1.1,0,2-0.9,2-2c0-1.1-0.9-1.9-2-1.9h-2.3v3.9H47.1z"/>
			</g>
			<g>
				<path class="st1" d="M24.4,45.9l5.8-10.5v-0.1h-4.9c-0.2,0-0.4-0.2-0.4-0.4v-1.6c0-0.2,0.2-0.4,0.4-0.4h8.1
					c0.2,0,0.4,0.2,0.4,0.4v0.3l-5.7,10.6v0h5c0.2,0,0.4,0.2,0.4,0.4v1.6c0,0.2-0.2,0.4-0.4,0.4h-8.3c-0.2,0-0.4-0.2-0.4-0.4V45.9z"
					/>
				<path class="st1" d="M36.2,33.4c0-0.2,0.2-0.4,0.4-0.4h1.8c0.2,0,0.4,0.2,0.4,0.4v12.9c0,0.2-0.2,0.4-0.4,0.4h-1.8
					c-0.2,0-0.4-0.2-0.4-0.4V33.4z"/>
				<path class="st1" d="M42.3,33.4c0-0.2,0.2-0.4,0.4-0.4h4.6c2.4,0,4.4,1.9,4.4,4.3c0,2.4-2,4.4-4.3,4.4h-2.4v4.6
					c0,0.2-0.2,0.4-0.4,0.4h-1.8c-0.2,0-0.4-0.2-0.4-0.4V33.4z M47.1,39.3c1.1,0,2-0.9,2-2c0-1.1-0.9-1.9-2-1.9h-2.3v3.9H47.1z"/>
			</g>
		</g>
		<path class="st1" d="M60,24v-5.3c0-1.7-1.4-3.2-3.2-3.2h-7.2h-2.3h-8.4h-2.3h-6.1L30,15.3l-3.3-4.9c-0.5-0.7-1.3-1.2-2.2-1.2h-12
			c-1.7,0-3.2,1.4-3.2,3.2v42.1c0,1.7,1.4,3.2,3.2,3.2h44c1.6,0,3-1.3,3.4-2.9V24z M58.1,53.5l-0.3,1.1c-0.1,0.6-0.7,1.1-1.3,1.1
			H16.4h-2.6h-1.3c-0.6,0-1.1-0.5-1.1-1.1V12.4c0-0.6,0.5-1.1,1.1-1.1h12l0.4,0.2l3.3,4.9c0.5,0.7,1.3,1.2,2.2,1.2h6.1h2.3h8.4h2.3
			h7.2c0.6,0,1.1,0.5,1.1,1.1V24L58.1,53.5z"/>
		<path class="st1" d="M58.1,53.5l-0.3,1.1c-0.1,0.6-0.7,1.1-1.3,1.1H16.4h-2.6h-1.3c-0.6,0-1.1-0.5-1.1-1.1V12.4
			c0-0.6,0.5-1.1,1.1-1.1h12l0.4,0.2l3.3,4.9c0.5,0.7,1.3,1.2,2.2,1.2h6.1h2.3h8.4h2.3h7.2c0.6,0,1.1,0.5,1.1,1.1V24L58.1,53.5z"/>
		<path class="st1" d="M62.8,47.7H8.4c-1.6,0-3-1.3-3-3V30.1c0-1.7,1.3-3,3-3h54.4c1.7,0,3,1.3,3,3v14.6
			C65.8,46.4,64.5,47.7,62.8,47.7z"/>
		<g>
			<g>
				<path class="st1" d="M22,43.5l5.8-10.5V33H23c-0.2,0-0.4-0.2-0.4-0.4V31c0-0.2,0.2-0.4,0.4-0.4h8.1c0.2,0,0.4,0.2,0.4,0.4v0.3
					l-5.7,10.6v0h5c0.2,0,0.4,0.2,0.4,0.4v1.6c0,0.2-0.2,0.4-0.4,0.4h-8.3c-0.2,0-0.4-0.2-0.4-0.4V43.5z"/>
				<path class="st1" d="M33.8,31c0-0.2,0.2-0.4,0.4-0.4H36c0.2,0,0.4,0.2,0.4,0.4v12.9c0,0.2-0.2,0.4-0.4,0.4h-1.8
					c-0.2,0-0.4-0.2-0.4-0.4V31z"/>
				<path class="st1" d="M39.9,31c0-0.2,0.2-0.4,0.4-0.4h4.6c2.4,0,4.4,1.9,4.4,4.3c0,2.4-2,4.4-4.3,4.4h-2.4v4.6
					c0,0.2-0.2,0.4-0.4,0.4h-1.8c-0.2,0-0.4-0.2-0.4-0.4V31z M44.7,36.9c1.1,0,2-0.9,2-2c0-1.1-0.9-1.9-2-1.9h-2.3v3.9H44.7z"/>
			</g>
			<g>
				<path class="st1" d="M22,43.5l5.8-10.5V33H23c-0.2,0-0.4-0.2-0.4-0.4V31c0-0.2,0.2-0.4,0.4-0.4h8.1c0.2,0,0.4,0.2,0.4,0.4v0.3
					l-5.7,10.6v0h5c0.2,0,0.4,0.2,0.4,0.4v1.6c0,0.2-0.2,0.4-0.4,0.4h-8.3c-0.2,0-0.4-0.2-0.4-0.4V43.5z"/>
				<path class="st1" d="M33.8,31c0-0.2,0.2-0.4,0.4-0.4H36c0.2,0,0.4,0.2,0.4,0.4v12.9c0,0.2-0.2,0.4-0.4,0.4h-1.8
					c-0.2,0-0.4-0.2-0.4-0.4V31z"/>
				<path class="st1" d="M39.9,31c0-0.2,0.2-0.4,0.4-0.4h4.6c2.4,0,4.4,1.9,4.4,4.3c0,2.4-2,4.4-4.3,4.4h-2.4v4.6
					c0,0.2-0.2,0.4-0.4,0.4h-1.8c-0.2,0-0.4-0.2-0.4-0.4V31z M44.7,36.9c1.1,0,2-0.9,2-2c0-1.1-0.9-1.9-2-1.9h-2.3v3.9H44.7z"/>
			</g>
			<g>
				<path class="st1" d="M22,43.5l5.8-10.5V33H23c-0.2,0-0.4-0.2-0.4-0.4V31c0-0.2,0.2-0.4,0.4-0.4h8.1c0.2,0,0.4,0.2,0.4,0.4v0.3
					l-5.7,10.6v0h5c0.2,0,0.4,0.2,0.4,0.4v1.6c0,0.2-0.2,0.4-0.4,0.4h-8.3c-0.2,0-0.4-0.2-0.4-0.4V43.5z"/>
				<path class="st1" d="M33.8,31c0-0.2,0.2-0.4,0.4-0.4H36c0.2,0,0.4,0.2,0.4,0.4v12.9c0,0.2-0.2,0.4-0.4,0.4h-1.8
					c-0.2,0-0.4-0.2-0.4-0.4V31z"/>
				<path class="st1" d="M39.9,31c0-0.2,0.2-0.4,0.4-0.4h4.6c2.4,0,4.4,1.9,4.4,4.3c0,2.4-2,4.4-4.3,4.4h-2.4v4.6
					c0,0.2-0.2,0.4-0.4,0.4h-1.8c-0.2,0-0.4-0.2-0.4-0.4V31z M44.7,36.9c1.1,0,2-0.9,2-2c0-1.1-0.9-1.9-2-1.9h-2.3v3.9H44.7z"/>
			</g>
		</g>
	</g>
	<g>
		<path class="st1" d="M61.4,25.4v-5.3c0-1.7-1.4-3.2-3.2-3.2h-7.2h-2.3h-8.4H38h-6.1l-0.4-0.2l-3.3-4.9c-0.5-0.7-1.3-1.2-2.2-1.2
			H14c-1.7,0-3.2,1.4-3.2,3.2V56c0,1.7,1.4,3.2,3.2,3.2h44c1.6,0,3-1.3,3.4-2.9V25.4z M59.5,54.9L59.2,56c-0.1,0.6-0.7,1.1-1.3,1.1
			H17.9h-2.6H14C13.4,57,13,56.6,13,56V13.8c0-0.6,0.5-1.1,1.1-1.1h12l0.4,0.2l3.3,4.9c0.5,0.7,1.3,1.2,2.2,1.2H38h2.3h8.4h2.3h7.2
			c0.6,0,1.1,0.5,1.1,1.1v5.3L59.5,54.9z"/>
		<path class="st2" d="M59.5,54.9L59.2,56c-0.1,0.6-0.7,1.1-1.3,1.1H17.9h-2.6H14C13.4,57,13,56.6,13,56V13.8c0-0.6,0.5-1.1,1.1-1.1
			h12l0.4,0.2l3.3,4.9c0.5,0.7,1.3,1.2,2.2,1.2H38h2.3h8.4h2.3h7.2c0.6,0,1.1,0.5,1.1,1.1v5.3L59.5,54.9z"/>
		<g>
			<g>
				<path class="st2" d="M22.5,44l5.8-10.5v-0.1h-4.9c-0.2,0-0.4-0.2-0.4-0.4v-1.6c0-0.2,0.2-0.4,0.4-0.4h8.1c0.2,0,0.4,0.2,0.4,0.4
					v0.3l-5.7,10.6v0h5c0.2,0,0.4,0.2,0.4,0.4v1.6c0,0.2-0.2,0.4-0.4,0.4h-8.3c-0.2,0-0.4-0.2-0.4-0.4V44z"/>
				<path class="st2" d="M34.3,31.5c0-0.2,0.2-0.4,0.4-0.4h1.8c0.2,0,0.4,0.2,0.4,0.4v12.9c0,0.2-0.2,0.4-0.4,0.4h-1.8
					c-0.2,0-0.4-0.2-0.4-0.4V31.5z"/>
				<path class="st2" d="M40.4,31.5c0-0.2,0.2-0.4,0.4-0.4h4.6c2.4,0,4.4,1.9,4.4,4.3c0,2.4-2,4.4-4.3,4.4h-2.4v4.6
					c0,0.2-0.2,0.4-0.4,0.4h-1.8c-0.2,0-0.4-0.2-0.4-0.4V31.5z M45.2,37.4c1.1,0,2-0.9,2-2c0-1.1-0.9-1.9-2-1.9h-2.3v3.9H45.2z"/>
			</g>
		</g>
		<path class="st1" d="M58.1,22.1v-5.3c0-1.7-1.4-3.2-3.2-3.2h-7.2h-2.3H37h-2.3h-6.1l-0.4-0.2l-3.3-4.9c-0.5-0.7-1.3-1.2-2.2-1.2
			h-12c-1.7,0-3.2,1.4-3.2,3.2v42.1c0,1.7,1.4,3.2,3.2,3.2h44c1.6,0,3-1.3,3.4-2.9V22.1z M56.2,51.6l-0.3,1.1
			c-0.1,0.6-0.7,1.1-1.3,1.1H14.6H12h-1.3c-0.6,0-1.1-0.5-1.1-1.1V10.5c0-0.6,0.5-1.1,1.1-1.1h12l0.4,0.2l3.3,4.9
			c0.5,0.7,1.3,1.2,2.2,1.2h6.1H37h8.4h2.3h7.2c0.6,0,1.1,0.5,1.1,1.1v5.3L56.2,51.6z"/>
		<path class="st2" d="M56.2,51.6l-0.3,1.1c-0.1,0.6-0.7,1.1-1.3,1.1H14.6H12h-1.3c-0.6,0-1.1-0.5-1.1-1.1V10.5
			c0-0.6,0.5-1.1,1.1-1.1h12l0.4,0.2l3.3,4.9c0.5,0.7,1.3,1.2,2.2,1.2h6.1H37h8.4h2.3h7.2c0.6,0,1.1,0.5,1.1,1.1v5.3L56.2,51.6z"/>
		<path class="st1" d="M61,45.8H6.5c-1.6,0-3-1.4-3-3V28.3c0-1.7,1.4-3,3-3H61c1.7,0,3,1.3,3,3v14.6C64,44.5,62.6,45.8,61,45.8z"/>
		<g>
			<g>
				<path class="st2" d="M20.2,41.6L26,31.2v-0.1h-4.9c-0.2,0-0.4-0.2-0.4-0.4v-1.6c0-0.2,0.2-0.4,0.4-0.4h8.1
					c0.2,0,0.4,0.2,0.4,0.4v0.3L23.9,40v0h5c0.2,0,0.4,0.2,0.4,0.4V42c0,0.2-0.2,0.4-0.4,0.4h-8.3c-0.2,0-0.4-0.2-0.4-0.4V41.6z"/>
				<path class="st2" d="M31.9,29.1c0-0.2,0.2-0.4,0.4-0.4h1.8c0.2,0,0.4,0.2,0.4,0.4V42c0,0.2-0.2,0.4-0.4,0.4h-1.8
					c-0.2,0-0.4-0.2-0.4-0.4V29.1z"/>
				<path class="st2" d="M38,29.1c0-0.2,0.2-0.4,0.4-0.4H43c2.4,0,4.4,1.9,4.4,4.3c0,2.4-2,4.4-4.3,4.4h-2.4V42
					c0,0.2-0.2,0.4-0.4,0.4h-1.8c-0.2,0-0.4-0.2-0.4-0.4V29.1z M42.8,35c1.1,0,2-0.9,2-2c0-1.1-0.9-1.9-2-1.9h-2.3V35H42.8z"/>
			</g>
		</g>
	</g>
</g>
</svg>
