<svg width="100" height="21" viewBox="0 0 100 21" fill="none" xmlns="http://www.w3.org/2000/svg">
<path fill-rule="evenodd" clip-rule="evenodd" d="M11.2761 16.9386V9.68098C11.2761 6.76686 9.31288 5.44171 5.93252 5.44171C2.45399 5.44171 0.515337 6.84048 0.515337 8.97545C0.508107 9.50518 0.582602 10.0329 0.736196 10.5399L3.50307 10.3681C3.37446 9.99201 3.30009 9.59951 3.28221 9.20245C3.28221 8.34969 3.67485 7.44171 5.78528 7.44171C7.66871 7.44171 8.47853 8.37423 8.47853 10.135C8.25767 10.8466 6.46626 11.362 3.87117 12.0245C1.76687 12.5521 0 13.7485 0 16.0061C0 18.5337 1.27607 20.2454 4.21472 20.2454C5.98159 20.2454 7.64417 19.6319 8.5092 18.0429C8.73006 19.4356 9.3681 20.1227 10.546 20.1227C11.424 20.127 12.2896 19.9164 13.0675 19.5092V18.1166H12.6748C11.4417 18.1166 11.2761 17.6994 11.2761 16.9386ZM8.35583 15.0491C8.37392 15.8051 8.10697 16.5403 7.60802 17.1086C7.10906 17.6769 6.4146 18.0367 5.66258 18.1166C3.82209 18.2822 2.98773 17.3313 2.98773 16.1043C2.98773 14.7055 3.94478 13.9448 6.22699 13.4356C7.07975 13.2393 8.18405 12.8221 8.47853 12.3558L8.35583 15.0491Z" fill="#292929"/>
<path fill-rule="evenodd" clip-rule="evenodd" d="M25.0557 5.88339H21.8471L17.387 12.0184V1.12878H14.5771V19.9509H17.387V15.0429L19.0802 13.0674L23.3747 19.9631H26.5771L20.9882 11.1533L25.0557 5.88339Z" fill="#292929"/>
<path fill-rule="evenodd" clip-rule="evenodd" d="M32.2821 16.865L28.9079 5.88342H25.8711L30.5275 19.9509H32.6073C33.0728 19.9479 33.5228 19.7837 33.8808 19.4861C34.2388 19.1886 34.4825 18.7761 34.5705 18.319L38.7668 5.88342H35.9999L32.2821 16.865Z" fill="#292929"/>
<path fill-rule="evenodd" clip-rule="evenodd" d="M45.1475 5.44171C41.2456 5.44171 39.1904 7.8957 39.1904 13.1411C39.1904 18.2331 41.2272 20.2454 45.1475 20.2454C48.8714 20.2454 51.0984 18.2822 51.0984 13.1411C51.0984 8.16564 49.1168 5.44171 45.1475 5.44171ZM45.1475 17.8712C43.0616 17.8712 42.2027 16.5951 42.2027 13.0429C42.2027 9.14723 43.1107 7.69938 45.1475 7.69938C47.1843 7.69938 48.0861 9.14723 48.0861 13.0429C48.0861 16.5215 47.2395 17.8712 45.1475 17.8712Z" fill="#292929"/>
<path d="M58.1843 0.552124C55.8285 0.552124 54.7242 2.02452 54.7242 4.18403C54.7242 4.74844 54.7242 5.26378 54.7733 5.85274H52.5156V7.79139H54.7733V19.9386H57.669V7.79139H60.5402V5.85274H57.4727C57.3855 5.05347 57.3855 4.24709 57.4727 3.44783C57.506 3.18006 57.6372 2.9341 57.8412 2.75737C58.0451 2.58065 58.3072 2.48568 58.577 2.49077C59.2396 2.49077 59.5831 2.83433 59.5831 3.39875C59.5621 3.6997 59.5211 3.99893 59.4604 4.29446L61.6445 4.39261C61.7591 3.91854 61.8167 3.43249 61.8162 2.94476C61.8162 1.43556 60.5402 0.552124 58.1843 0.552124Z" fill="#FF7A00"/>
<path d="M66.5525 1.09198H63.5586V19.9386H66.5525V1.09198Z" fill="#FF7A00"/>
<path d="M74.7483 5.41101C70.8465 5.41101 68.7852 7.865 68.7852 13.1165C68.7852 18.2208 70.822 20.2331 74.7483 20.2331C78.4784 20.2331 80.7054 18.2699 80.7054 13.1165C80.7054 8.13494 78.7238 5.41101 74.7483 5.41101ZM74.7483 17.8527C72.6625 17.8527 71.8036 16.5767 71.8036 13.0184C71.8036 9.11653 72.7115 7.66868 74.7483 7.66868C76.7852 7.66868 77.6931 9.11653 77.6931 13.0184C77.6931 16.503 76.8342 17.8527 74.7483 17.8527Z" fill="#FF7A00"/>
<path d="M96.9756 5.85272L94.5523 15.6196L92.0247 5.85272H89.129L86.945 15.6196L84.2456 5.85272H81.3008L85.3499 19.9386H88.221L90.5523 10.3435L93.0063 19.9386H95.7486L99.7486 5.85272H96.9756Z" fill="#FF7A00"/>
</svg>
