<?xml version="1.0" encoding="utf-8"?>
<!-- Generator: Adobe Illustrator 18.0.0, SVG Export Plug-In . SVG Version: 6.00 Build 0)  -->
<!DOCTYPE svg PUBLIC "-//W3C//DTD SVG 1.1//EN" "http://www.w3.org/Graphics/SVG/1.1/DTD/svg11.dtd">
<svg version="1.1" id="Layer_1" xmlns="http://www.w3.org/2000/svg" xmlns:xlink="http://www.w3.org/1999/xlink" x="0px" y="0px"
	 viewBox="0 0 910.2 225.2" enable-background="new 0 0 910.2 225.2" xml:space="preserve">
<g>
	<path fill-rule="evenodd" clip-rule="evenodd" fill="#33156C" d="M81.4,158.6c2,12.6,7.7,18.7,18.3,18.7c9.9,0,17-2.6,22.7-5.5
		v-12.5c0,0-2.4,0-3.5,0c-11.2,0-12.8-3.7-12.8-10.6V83.5c0-26.2-17.6-38.1-48-38.1c-31.5,0-48.7,12.5-48.7,31.7c0,6.2,0.7,9,2,14.1
		l24.9-1.5c-0.9-3.8-2-5.9-2-10.4c0-7.7,3.5-15.9,22.5-15.9c17,0,24.2,8.4,24.2,24.2c-2,6.4-18.1,11.2-41.4,17
		C20.6,109.2,4.8,120,4.8,140.3c0,22.7,11.4,38.1,37.9,38.1C58.5,178.4,73.5,172.9,81.4,158.6L81.4,158.6z M81,107.7l-1.1,24
		c-0.4,16.5-11.7,26.6-24.2,27.7c-16.7,1.5-24-7-24-18.1c0-12.6,8.6-19.4,29.1-24C68.4,115.6,78.3,111.9,81,107.7L81,107.7z
		 M161,131.4v44.3h-25.3V6.6H161v98l40.1-55.3h28.9l-36.6,47.3l50.5,79.1c0,0-28.8,0-28.8-0.1l-38.8-62L161,131.4L161,131.4z
		 M279.1,175.7L237.2,49.3h27.3l30.3,98.7l33.4-98.7h24.9l-37.7,111.7c-2.8,8.9-8.5,14.7-17.7,14.7H279.1L279.1,175.7z M463.9,114.5
		c0-44.7-17.8-69.1-53.5-69.1c-35,0-53.5,22-53.5,69.1c0,45.8,18.3,63.9,53.5,63.9C443.9,178.4,463.9,160.8,463.9,114.5L463.9,114.5
		z M384,113.6c0-35,8.1-48,26.4-48c17.8,0,26.4,13,26.4,48c0,31.3-7.7,43.4-26.4,43.4C391.7,157,384,145.6,384,113.6L384,113.6z"/>
	<path fill="#5ED1EC" d="M510.3,141.2c17.2,0,25.9,7.3,25.9,19.3c0,11.9-8.6,19.1-25.9,19.1c-17.2,0-25.9-7.2-25.9-19.1
		C484.4,148.6,493.4,141.2,510.3,141.2L510.3,141.2z M664.4,114.5c0,46.2-20,63.9-53.5,63.9c-35.2,0-53.5-18.1-53.5-63.9
		c0-47.1,18.5-69.1,53.5-69.1C646.6,45.4,664.4,69.8,664.4,114.5L664.4,114.5z M584.5,113.6c0,31.9,7.7,43.4,26.4,43.4
		c18.7,0,26.4-12.1,26.4-43.4c0-35-8.6-48-26.4-48C592.6,65.6,584.5,78.6,584.5,113.6L584.5,113.6z M709,175.7v-68.5
		c0-22,10.7-38.3,25-38.3c11.8,0,18.5,5.9,18.5,17.4c0,4.1-0.6,8.4-1.7,12.4l22.1-2.1c1.5-6.8,2.3-13.5,2.3-21.3
		c0-17.4-13.2-28.8-31.9-28.8c-16.7,0-30,13.2-34.9,31.7c0-7.7,0-28.8,0-28.8h-25.2v126.4H709L709,175.7z M803.1,186.1
		c0,10.8,10.6,14.5,31.7,14.5c28.6,0,38.3-7.9,38.3-18c0-11.9-8.1-16.6-27.5-16.6c-9.2,0-14.4,2.1-25.1,3.6
		C811.7,172.9,803.1,179,803.1,186.1L803.1,186.1z M814.1,87.9c0,18.3,8.8,24.9,22.2,24.9c15,0,22.5-6.6,22.5-24.9
		c0-16.5-7.7-25.3-22.5-25.3C820.9,62.5,814.1,71.4,814.1,87.9L814.1,87.9z M807.7,122.9c-13.6-5.9-20.5-20.7-20.5-35
		c0-24.7,17.6-40.7,49.1-40.7c9.7,0,16.2,1.3,20.1,2.6c2.2-4.7,4.7-8,8.4-11.2c4.8-4.2,12.6-6.6,19.8-6.6c7.1,0,12.7,1.2,19.2,4.6
		l-5.3,21.7c-3.6-5.8-9.3-7.5-15.8-7.5c-6,0-10.9,1.8-13.3,5.6c8.6,5.1,16.1,15,16.1,31.5c0,23.6-16.7,40.7-44.3,40.7
		c-9.9,0-16.1-0.9-20.9-2.2c-8.6,0.9-14.8,4.2-14.8,9.7c0,5.9,2.6,7.9,23.3,7.1l21.1-1.3c29.1-1.8,44,10.1,44,36.1
		c0,24.4-16.7,39.2-60.3,39.2c-37.6,0-54.9-9.9-54.9-26.2c0-11.2,9.1-18.9,29.8-22c-20.9-0.4-26.4-11.9-26.4-21.1
		C782.4,136.3,789.6,126.2,807.7,122.9L807.7,122.9z"/>
</g>
</svg>
