<?xml version="1.0" encoding="utf-8"?>
<!-- Generator: Adobe Illustrator 22.0.1, SVG Export Plug-In . SVG Version: 6.00 Build 0)  -->
<svg version="1.1" id="Layer_1" xmlns="http://www.w3.org/2000/svg" xmlns:xlink="http://www.w3.org/1999/xlink" x="0px" y="0px"
	 viewBox="0 0 292.8 157.7" style="enable-background:new 0 0 292.8 157.7;" xml:space="preserve">
<style type="text/css">
	.st0{fill:#FFD561;}
	.st1{opacity:0.3;}
	.st2{fill:#2380AF;}
	.st3{fill:#F5F5F5;}
	.st4{fill:#396680;}
	.st5{fill:#004D8B;}
	.st6{fill:#FFFFFF;}
</style>
<path class="st0" d="M145.9,145.5c-0.1,0.5-0.1,0.9-0.2,1L145.9,145.5z"/>
<path class="st0" d="M145.9,146.4c-0.1,0.5-0.1,0.9-0.2,1L145.9,146.4z"/>
<g>
	<g class="st1">
		<path class="st2" d="M287.7,156.8H5.8c-1.8,0-3.2-1.4-3.2-3.2V7.4c0-1.8,1.4-3.2,3.2-3.2h281.9c1.8,0,3.2,1.4,3.2,3.2v146.2
			C291,155.4,289.5,156.8,287.7,156.8z"/>
	</g>
	<g>
		<path class="st3" d="M286.7,155.8H4.8c-1.8,0-3.2-1.4-3.2-3.2V6.4c0-1.8,1.4-3.2,3.2-3.2h281.9c1.8,0,3.2,1.4,3.2,3.2v146.2
			C290,154.4,288.5,155.8,286.7,155.8z"/>
	</g>
</g>
<g>
	<g>
		<path class="st4" d="M241.1,94.7c0-1.5,0-2.9,0-4.4c0.1,0,0.3,0,0.4,0c3.5,0,6.9,0,10.4,0c4.4-0.1,7.9-3.4,8.4-7.8
			c0.5-4.2-2.3-8.2-6.4-9.3c-0.1,0-0.2-0.1-0.3-0.1c0.6-4.8-0.6-9.1-3.8-12.7c-2.3-2.6-5.3-4.2-8.7-4.8c-8.1-1.4-15.2,3.7-17.2,10.6
			c-0.1-0.1-0.2-0.1-0.3-0.2c-6-4.4-14.5-0.8-15.6,6.5c0,0.3-0.2,0.3-0.4,0.3c-3.9,0.1-7.3,2.8-8.2,6.6c-1.4,5.6,2.8,10.8,8.5,10.8
			c3.3,0,6.7,0,10,0c0.1,0,0.3,0,0.4,0c0,1.5,0,2.9,0,4.4c-0.1,0-0.2,0-0.3,0c-3.4,0-6.9,0-10.3,0c-6.3,0-11.8-4.7-12.8-10.9
			c-1.1-6.6,2.8-12.9,9.2-14.8c0.1,0,0.3-0.2,0.3-0.3c1.6-3.9,4.4-6.6,8.3-8.1c2.8-1.1,5.7-1.2,8.6-0.4c0.3,0.1,0.4,0,0.5-0.2
			c3.5-5.3,8.4-8.3,14.8-8.9c10.3-0.9,19.4,6.2,21.1,16.3c0.1,0.8,0.2,1.7,0.3,2.5c0,0.2,0.1,0.3,0.3,0.5c3.3,2.1,5.4,5,6.1,8.9
			c1.3,6.8-3.2,13.6-10,15.1c-1,0.2-2,0.3-2.9,0.3c-3.3,0-6.7,0-10,0C241.4,94.7,241.2,94.7,241.1,94.7z"/>
		<path class="st4" d="M232.5,87.8c0,0.2,0,0.3,0,0.4c0,4,0,7.9,0,11.9c0,0.7-0.2,0.9-0.9,0.9c-2,0-1.7,0-3.7,0
			c-0.7,0-0.9-0.2-0.9-0.9c0-4,0-7.9,0-11.9c0-0.1,0-0.2,0-0.4c-0.1,0-0.2,0-0.3,0c-1.8,0-3.6,0-5.3,0c-0.3,0-0.5,0-0.7-0.3
			c-0.1-0.3,0-0.5,0.2-0.8c3.2-3.3,5.2-6.6,8.4-9.9c0.3-0.3,0.6-0.3,0.9,0c3.2,3.3,5.2,6.6,8.4,9.9c0.2,0.2,0.3,0.5,0.2,0.7
			c-0.1,0.3-0.4,0.3-0.6,0.3c-1.8,0-3.6,0-5.3,0C232.8,87.8,232.7,87.8,232.5,87.8z"/>
	</g>
	<g class="st1">
		<path class="st4" d="M243.1,96.7c0-1.5,0-2.9,0-4.4c0.1,0,0.3,0,0.4,0c3.5,0,6.9,0,10.4,0c4.4-0.1,7.9-3.4,8.4-7.8
			c0.5-4.2-2.3-8.2-6.4-9.3c-0.1,0-0.2-0.1-0.3-0.1c0.6-4.8-0.6-9.1-3.8-12.7c-2.3-2.6-5.3-4.2-8.7-4.8c-8.1-1.4-15.2,3.7-17.2,10.6
			c-0.1-0.1-0.2-0.1-0.3-0.2c-6-4.4-14.5-0.8-15.6,6.5c0,0.3-0.2,0.3-0.4,0.3c-3.9,0.1-7.3,2.8-8.2,6.6c-1.4,5.6,2.8,10.8,8.5,10.8
			c3.3,0,6.7,0,10,0c0.1,0,0.3,0,0.4,0c0,1.5,0,2.9,0,4.4c-0.1,0-0.2,0-0.3,0c-3.4,0-6.9,0-10.3,0c-6.3,0-11.8-4.7-12.8-10.9
			c-1.1-6.6,2.8-12.9,9.2-14.8c0.1,0,0.3-0.2,0.3-0.3c1.6-3.9,4.4-6.6,8.3-8.1c2.8-1.1,5.7-1.2,8.6-0.4c0.3,0.1,0.4,0,0.5-0.2
			c3.5-5.3,8.4-8.3,14.8-8.9c10.3-0.9,19.4,6.2,21.1,16.3c0.1,0.8,0.2,1.7,0.3,2.5c0,0.2,0.1,0.3,0.3,0.5c3.3,2.1,5.4,5,6.1,8.9
			c1.3,6.8-3.2,13.6-10,15.1c-1,0.2-2,0.3-2.9,0.3c-3.3,0-6.7,0-10,0C243.4,96.7,243.2,96.7,243.1,96.7z"/>
		<path class="st4" d="M234.5,89.8c0,0.2,0,0.3,0,0.4c0,4,0,7.9,0,11.9c0,0.7-0.2,0.9-0.9,0.9c-2,0-1.7,0-3.7,0
			c-0.7,0-0.9-0.2-0.9-0.9c0-4,0-7.9,0-11.9c0-0.1,0-0.2,0-0.4c-0.1,0-0.2,0-0.3,0c-1.8,0-3.6,0-5.3,0c-0.3,0-0.5,0-0.7-0.3
			c-0.1-0.3,0-0.5,0.2-0.8c3.2-3.3,5.2-6.6,8.4-9.9c0.3-0.3,0.6-0.3,0.9,0c3.2,3.3,5.2,6.6,8.4,9.9c0.2,0.2,0.3,0.5,0.2,0.7
			c-0.1,0.3-0.4,0.3-0.6,0.3c-1.8,0-3.6,0-5.3,0C234.8,89.8,234.7,89.8,234.5,89.8z"/>
	</g>
	<g>
		<path class="st4" d="M241.1,94.7c0-1.5,0-2.9,0-4.4c0.1,0,0.3,0,0.4,0c3.5,0,6.9,0,10.4,0c4.4-0.1,7.9-3.4,8.4-7.8
			c0.5-4.2-2.3-8.2-6.4-9.3c-0.1,0-0.2-0.1-0.3-0.1c0.6-4.8-0.6-9.1-3.8-12.7c-2.3-2.6-5.3-4.2-8.7-4.8c-8.1-1.4-15.2,3.7-17.2,10.6
			c-0.1-0.1-0.2-0.1-0.3-0.2c-6-4.4-14.5-0.8-15.6,6.5c0,0.3-0.2,0.3-0.4,0.3c-3.9,0.1-7.3,2.8-8.2,6.6c-1.4,5.6,2.8,10.8,8.5,10.8
			c3.3,0,6.7,0,10,0c0.1,0,0.3,0,0.4,0c0,1.5,0,2.9,0,4.4c-0.1,0-0.2,0-0.3,0c-3.4,0-6.9,0-10.3,0c-6.3,0-11.8-4.7-12.8-10.9
			c-1.1-6.6,2.8-12.9,9.2-14.8c0.1,0,0.3-0.2,0.3-0.3c1.6-3.9,4.4-6.6,8.3-8.1c2.8-1.1,5.7-1.2,8.6-0.4c0.3,0.1,0.4,0,0.5-0.2
			c3.5-5.3,8.4-8.3,14.8-8.9c10.3-0.9,19.4,6.2,21.1,16.3c0.1,0.8,0.2,1.7,0.3,2.5c0,0.2,0.1,0.3,0.3,0.5c3.3,2.1,5.4,5,6.1,8.9
			c1.3,6.8-3.2,13.6-10,15.1c-1,0.2-2,0.3-2.9,0.3c-3.3,0-6.7,0-10,0C241.4,94.7,241.2,94.7,241.1,94.7z"/>
		<path class="st4" d="M232.5,87.8c0,0.2,0,0.3,0,0.4c0,4,0,7.9,0,11.9c0,0.7-0.2,0.9-0.9,0.9c-2,0-1.7,0-3.7,0
			c-0.7,0-0.9-0.2-0.9-0.9c0-4,0-7.9,0-11.9c0-0.1,0-0.2,0-0.4c-0.1,0-0.2,0-0.3,0c-1.8,0-3.6,0-5.3,0c-0.3,0-0.5,0-0.7-0.3
			c-0.1-0.3,0-0.5,0.2-0.8c3.2-3.3,5.2-6.6,8.4-9.9c0.3-0.3,0.6-0.3,0.9,0c3.2,3.3,5.2,6.6,8.4,9.9c0.2,0.2,0.3,0.5,0.2,0.7
			c-0.1,0.3-0.4,0.3-0.6,0.3c-1.8,0-3.6,0-5.3,0C232.8,87.8,232.7,87.8,232.5,87.8z"/>
	</g>
</g>
<g>
	<path class="st4" d="M177.1,93.2l-3.3,2.4l0.8-4.7c-33.6,21.8-63.2-2.9-63.5-3.2c-0.6-0.5-0.7-1.4-0.2-2c0.3-0.3,0.7-0.5,1.1-0.5
		c0.3,0,0.6,0.1,0.9,0.3c0.1,0.1,7.4,6.3,18.7,9.5c14.3,4.2,28.2,2,41.3-6.5l-4.6-0.7l3.3-2.4l6.6,1.1L177.1,93.2z"/>
</g>
<g>
	<g class="st1">
		<path class="st5" d="M90.1,69.1v-5.6c0-1.9-1.5-3.4-3.4-3.4h-7.6h-2.5h-9h-2.5h-6.5l-0.4-0.2l-3.5-5.2c-0.5-0.8-1.4-1.3-2.3-1.3
			H39.6c-1.9,0-3.4,1.5-3.4,3.4v44.9c0,1.9,1.5,3.4,3.4,3.4h47c1.7,0,3.2-1.4,3.6-3.1V69.1z M88.1,100.6l-0.3,1.1
			c-0.2,0.6-0.8,1.1-1.4,1.1H43.7h-2.8h-1.3c-0.6,0-1.1-0.5-1.1-1.1V56.7c0-0.6,0.5-1.1,1.1-1.1h12.8l0.5,0.2l3.5,5.2
			c0.5,0.8,1.4,1.3,2.3,1.3h6.5h2.5h9h2.5h7.6c0.6,0,1.1,0.5,1.1,1.1v5.6L88.1,100.6z"/>
		<path class="st5" d="M88.1,100.6l-0.3,1.1c-0.2,0.6-0.8,1.1-1.4,1.1H43.7h-2.8h-1.3c-0.6,0-1.1-0.5-1.1-1.1V56.7
			c0-0.6,0.5-1.1,1.1-1.1h12.8l0.5,0.2l3.5,5.2c0.5,0.8,1.4,1.3,2.3,1.3h6.5h2.5h9h2.5h7.6c0.6,0,1.1,0.5,1.1,1.1v5.6L88.1,100.6z"
			/>
		<g>
			<g>
				<path class="st5" d="M48.7,88.9l6.2-11.2v-0.1h-5.2c-0.2,0-0.4-0.2-0.4-0.4v-1.7c0-0.2,0.2-0.4,0.4-0.4h8.7
					c0.2,0,0.4,0.2,0.4,0.4v0.3l-6.1,11.3v0h5.3c0.2,0,0.4,0.2,0.4,0.4v1.7c0,0.2-0.2,0.4-0.4,0.4h-8.9c-0.2,0-0.4-0.2-0.4-0.4V88.9
					z"/>
				<path class="st5" d="M61.2,75.6c0-0.2,0.2-0.4,0.4-0.4h1.9c0.2,0,0.4,0.2,0.4,0.4v13.7c0,0.2-0.2,0.4-0.4,0.4h-1.9
					c-0.2,0-0.4-0.2-0.4-0.4V75.6z"/>
				<path class="st5" d="M67.7,75.6c0-0.2,0.2-0.4,0.4-0.4H73c2.6,0,4.6,2.1,4.6,4.6c0,2.6-2.1,4.7-4.6,4.7h-2.6v4.9
					c0,0.2-0.2,0.4-0.4,0.4h-1.9c-0.2,0-0.4-0.2-0.4-0.4V75.6z M72.8,81.9c1.2,0,2.1-0.9,2.1-2.2c0-1.1-1-2-2.1-2h-2.4v4.2H72.8z"/>
			</g>
			<g>
				<path class="st5" d="M48.7,88.9l6.2-11.2v-0.1h-5.2c-0.2,0-0.4-0.2-0.4-0.4v-1.7c0-0.2,0.2-0.4,0.4-0.4h8.7
					c0.2,0,0.4,0.2,0.4,0.4v0.3l-6.1,11.3v0h5.3c0.2,0,0.4,0.2,0.4,0.4v1.7c0,0.2-0.2,0.4-0.4,0.4h-8.9c-0.2,0-0.4-0.2-0.4-0.4V88.9
					z"/>
				<path class="st5" d="M61.2,75.6c0-0.2,0.2-0.4,0.4-0.4h1.9c0.2,0,0.4,0.2,0.4,0.4v13.7c0,0.2-0.2,0.4-0.4,0.4h-1.9
					c-0.2,0-0.4-0.2-0.4-0.4V75.6z"/>
				<path class="st5" d="M67.7,75.6c0-0.2,0.2-0.4,0.4-0.4H73c2.6,0,4.6,2.1,4.6,4.6c0,2.6-2.1,4.7-4.6,4.7h-2.6v4.9
					c0,0.2-0.2,0.4-0.4,0.4h-1.9c-0.2,0-0.4-0.2-0.4-0.4V75.6z M72.8,81.9c1.2,0,2.1-0.9,2.1-2.2c0-1.1-1-2-2.1-2h-2.4v4.2H72.8z"/>
			</g>
			<g>
				<path class="st5" d="M48.7,88.9l6.2-11.2v-0.1h-5.2c-0.2,0-0.4-0.2-0.4-0.4v-1.7c0-0.2,0.2-0.4,0.4-0.4h8.7
					c0.2,0,0.4,0.2,0.4,0.4v0.3l-6.1,11.3v0h5.3c0.2,0,0.4,0.2,0.4,0.4v1.7c0,0.2-0.2,0.4-0.4,0.4h-8.9c-0.2,0-0.4-0.2-0.4-0.4V88.9
					z"/>
				<path class="st5" d="M61.2,75.6c0-0.2,0.2-0.4,0.4-0.4h1.9c0.2,0,0.4,0.2,0.4,0.4v13.7c0,0.2-0.2,0.4-0.4,0.4h-1.9
					c-0.2,0-0.4-0.2-0.4-0.4V75.6z"/>
				<path class="st5" d="M67.7,75.6c0-0.2,0.2-0.4,0.4-0.4H73c2.6,0,4.6,2.1,4.6,4.6c0,2.6-2.1,4.7-4.6,4.7h-2.6v4.9
					c0,0.2-0.2,0.4-0.4,0.4h-1.9c-0.2,0-0.4-0.2-0.4-0.4V75.6z M72.8,81.9c1.2,0,2.1-0.9,2.1-2.2c0-1.1-1-2-2.1-2h-2.4v4.2H72.8z"/>
			</g>
		</g>
		<path class="st5" d="M86.6,65.6V60c0-1.9-1.5-3.4-3.4-3.4h-7.6h-2.5h-9h-2.5h-6.5l-0.4-0.2l-3.5-5.2c-0.5-0.8-1.4-1.3-2.3-1.3H36
			c-1.9,0-3.4,1.5-3.4,3.4v44.9c0,1.9,1.5,3.4,3.4,3.4h47c1.7,0,3.2-1.4,3.6-3.1V65.6z M84.6,97l-0.3,1.1c-0.2,0.6-0.8,1.1-1.4,1.1
			H40.2h-2.8H36c-0.6,0-1.1-0.5-1.1-1.1V53.2c0-0.6,0.5-1.1,1.1-1.1h12.8l0.5,0.2l3.5,5.2c0.5,0.8,1.4,1.3,2.3,1.3h6.5h2.5h9h2.5
			h7.6c0.6,0,1.1,0.5,1.1,1.1v5.6L84.6,97z"/>
		<path class="st5" d="M84.6,97l-0.3,1.1c-0.2,0.6-0.8,1.1-1.4,1.1H40.2h-2.8H36c-0.6,0-1.1-0.5-1.1-1.1V53.2c0-0.6,0.5-1.1,1.1-1.1
			h12.8l0.5,0.2l3.5,5.2c0.5,0.8,1.4,1.3,2.3,1.3h6.5h2.5h9h2.5h7.6c0.6,0,1.1,0.5,1.1,1.1v5.6L84.6,97z"/>
		<path class="st5" d="M89.9,90.9H31.4c-1.6,0-3-1.4-3-3V71.9c0-1.7,1.4-3,3-3h58.5c1.6,0,3,1.3,3,3v15.9
			C92.9,89.5,91.5,90.9,89.9,90.9z"/>
		<g>
			<g>
				<path class="st5" d="M46.1,86.4l6.2-11.2v-0.1h-5.2c-0.2,0-0.4-0.2-0.4-0.4V73c0-0.2,0.2-0.4,0.4-0.4h8.7c0.2,0,0.4,0.2,0.4,0.4
					v0.3l-6.1,11.3v0h5.3c0.2,0,0.4,0.2,0.4,0.4v1.7c0,0.2-0.2,0.4-0.4,0.4h-8.9c-0.2,0-0.4-0.2-0.4-0.4V86.4z"/>
				<path class="st5" d="M58.7,73c0-0.2,0.2-0.4,0.4-0.4H61c0.2,0,0.4,0.2,0.4,0.4v13.7c0,0.2-0.2,0.4-0.4,0.4h-1.9
					c-0.2,0-0.4-0.2-0.4-0.4V73z"/>
				<path class="st5" d="M65.2,73c0-0.2,0.2-0.4,0.4-0.4h4.9c2.6,0,4.6,2.1,4.6,4.6c0,2.6-2.1,4.7-4.6,4.7h-2.6v4.9
					c0,0.2-0.2,0.4-0.4,0.4h-1.9c-0.2,0-0.4-0.2-0.4-0.4V73z M70.3,79.4c1.2,0,2.1-0.9,2.1-2.2c0-1.1-1-2-2.1-2h-2.4v4.2H70.3z"/>
			</g>
			<g>
				<path class="st5" d="M46.1,86.4l6.2-11.2v-0.1h-5.2c-0.2,0-0.4-0.2-0.4-0.4V73c0-0.2,0.2-0.4,0.4-0.4h8.7c0.2,0,0.4,0.2,0.4,0.4
					v0.3l-6.1,11.3v0h5.3c0.2,0,0.4,0.2,0.4,0.4v1.7c0,0.2-0.2,0.4-0.4,0.4h-8.9c-0.2,0-0.4-0.2-0.4-0.4V86.4z"/>
				<path class="st5" d="M58.7,73c0-0.2,0.2-0.4,0.4-0.4H61c0.2,0,0.4,0.2,0.4,0.4v13.7c0,0.2-0.2,0.4-0.4,0.4h-1.9
					c-0.2,0-0.4-0.2-0.4-0.4V73z"/>
				<path class="st5" d="M65.2,73c0-0.2,0.2-0.4,0.4-0.4h4.9c2.6,0,4.6,2.1,4.6,4.6c0,2.6-2.1,4.7-4.6,4.7h-2.6v4.9
					c0,0.2-0.2,0.4-0.4,0.4h-1.9c-0.2,0-0.4-0.2-0.4-0.4V73z M70.3,79.4c1.2,0,2.1-0.9,2.1-2.2c0-1.1-1-2-2.1-2h-2.4v4.2H70.3z"/>
			</g>
			<g>
				<path class="st5" d="M46.1,86.4l6.2-11.2v-0.1h-5.2c-0.2,0-0.4-0.2-0.4-0.4V73c0-0.2,0.2-0.4,0.4-0.4h8.7c0.2,0,0.4,0.2,0.4,0.4
					v0.3l-6.1,11.3v0h5.3c0.2,0,0.4,0.2,0.4,0.4v1.7c0,0.2-0.2,0.4-0.4,0.4h-8.9c-0.2,0-0.4-0.2-0.4-0.4V86.4z"/>
				<path class="st5" d="M58.7,73c0-0.2,0.2-0.4,0.4-0.4H61c0.2,0,0.4,0.2,0.4,0.4v13.7c0,0.2-0.2,0.4-0.4,0.4h-1.9
					c-0.2,0-0.4-0.2-0.4-0.4V73z"/>
				<path class="st5" d="M65.2,73c0-0.2,0.2-0.4,0.4-0.4h4.9c2.6,0,4.6,2.1,4.6,4.6c0,2.6-2.1,4.7-4.6,4.7h-2.6v4.9
					c0,0.2-0.2,0.4-0.4,0.4h-1.9c-0.2,0-0.4-0.2-0.4-0.4V73z M70.3,79.4c1.2,0,2.1-0.9,2.1-2.2c0-1.1-1-2-2.1-2h-2.4v4.2H70.3z"/>
			</g>
		</g>
	</g>
	<g>
		<path class="st4" d="M88.1,67.1v-5.6c0-1.9-1.5-3.4-3.4-3.4h-7.6h-2.5h-9h-2.5h-6.5l-0.4-0.2l-3.5-5.2c-0.5-0.8-1.4-1.3-2.3-1.3
			H37.6c-1.9,0-3.4,1.5-3.4,3.4v44.9c0,1.9,1.5,3.4,3.4,3.4h47c1.7,0,3.2-1.4,3.6-3.1V67.1z M86.1,98.6l-0.3,1.1
			c-0.2,0.6-0.8,1.1-1.4,1.1H41.7h-2.8h-1.3c-0.6,0-1.1-0.5-1.1-1.1V54.7c0-0.6,0.5-1.1,1.1-1.1h12.8l0.5,0.2l3.5,5.2
			c0.5,0.8,1.4,1.3,2.3,1.3h6.5h2.5h9h2.5h7.6c0.6,0,1.1,0.5,1.1,1.1v5.6L86.1,98.6z"/>
		<path class="st6" d="M86.1,98.6l-0.3,1.1c-0.2,0.6-0.8,1.1-1.4,1.1H41.7h-2.8h-1.3c-0.6,0-1.1-0.5-1.1-1.1V54.7
			c0-0.6,0.5-1.1,1.1-1.1h12.8l0.5,0.2l3.5,5.2c0.5,0.8,1.4,1.3,2.3,1.3h6.5h2.5h9h2.5h7.6c0.6,0,1.1,0.5,1.1,1.1v5.6L86.1,98.6z"/>
		<g>
			<g>
				<path class="st6" d="M46.7,86.9l6.2-11.2v-0.1h-5.2c-0.2,0-0.4-0.2-0.4-0.4v-1.7c0-0.2,0.2-0.4,0.4-0.4h8.7
					c0.2,0,0.4,0.2,0.4,0.4v0.3l-6.1,11.3v0h5.3c0.2,0,0.4,0.2,0.4,0.4v1.7c0,0.2-0.2,0.4-0.4,0.4h-8.9c-0.2,0-0.4-0.2-0.4-0.4V86.9
					z"/>
				<path class="st6" d="M59.2,73.6c0-0.2,0.2-0.4,0.4-0.4h1.9c0.2,0,0.4,0.2,0.4,0.4v13.7c0,0.2-0.2,0.4-0.4,0.4h-1.9
					c-0.2,0-0.4-0.2-0.4-0.4V73.6z"/>
				<path class="st6" d="M65.7,73.6c0-0.2,0.2-0.4,0.4-0.4H71c2.6,0,4.6,2.1,4.6,4.6c0,2.6-2.1,4.7-4.6,4.7h-2.6v4.9
					c0,0.2-0.2,0.4-0.4,0.4h-1.9c-0.2,0-0.4-0.2-0.4-0.4V73.6z M70.8,79.9c1.2,0,2.1-0.9,2.1-2.2c0-1.1-1-2-2.1-2h-2.4v4.2H70.8z"/>
			</g>
		</g>
		<path class="st4" d="M84.6,63.6V58c0-1.9-1.5-3.4-3.4-3.4h-7.6h-2.5h-9h-2.5h-6.5l-0.4-0.2l-3.5-5.2c-0.5-0.8-1.4-1.3-2.3-1.3H34
			c-1.9,0-3.4,1.5-3.4,3.4v44.9c0,1.9,1.5,3.4,3.4,3.4h47c1.7,0,3.2-1.4,3.6-3.1V63.6z M82.6,95l-0.3,1.1c-0.2,0.6-0.8,1.1-1.4,1.1
			H38.2h-2.8H34c-0.6,0-1.1-0.5-1.1-1.1V51.2c0-0.6,0.5-1.1,1.1-1.1h12.8l0.5,0.2l3.5,5.2c0.5,0.8,1.4,1.3,2.3,1.3h6.5h2.5h9h2.5
			h7.6c0.6,0,1.1,0.5,1.1,1.1v5.6L82.6,95z"/>
		<path class="st6" d="M82.6,95l-0.3,1.1c-0.2,0.6-0.8,1.1-1.4,1.1H38.2h-2.8H34c-0.6,0-1.1-0.5-1.1-1.1V51.2c0-0.6,0.5-1.1,1.1-1.1
			h12.8l0.5,0.2l3.5,5.2c0.5,0.8,1.4,1.3,2.3,1.3h6.5h2.5h9h2.5h7.6c0.6,0,1.1,0.5,1.1,1.1v5.6L82.6,95z"/>
		<path class="st4" d="M87.9,88.9H29.4c-1.6,0-3-1.4-3-3V69.9c0-1.7,1.4-3,3-3h58.5c1.6,0,3,1.3,3,3v15.9
			C90.9,87.5,89.5,88.9,87.9,88.9z"/>
		<g>
			<g>
				<path class="st6" d="M44.1,84.4l6.2-11.2v-0.1h-5.2c-0.2,0-0.4-0.2-0.4-0.4V71c0-0.2,0.2-0.4,0.4-0.4h8.7c0.2,0,0.4,0.2,0.4,0.4
					v0.3l-6.1,11.3v0h5.3c0.2,0,0.4,0.2,0.4,0.4v1.7c0,0.2-0.2,0.4-0.4,0.4h-8.9c-0.2,0-0.4-0.2-0.4-0.4V84.4z"/>
				<path class="st6" d="M56.7,71c0-0.2,0.2-0.4,0.4-0.4H59c0.2,0,0.4,0.2,0.4,0.4v13.7c0,0.2-0.2,0.4-0.4,0.4h-1.9
					c-0.2,0-0.4-0.2-0.4-0.4V71z"/>
				<path class="st6" d="M63.2,71c0-0.2,0.2-0.4,0.4-0.4h4.9c2.6,0,4.6,2.1,4.6,4.6c0,2.6-2.1,4.7-4.6,4.7h-2.6v4.9
					c0,0.2-0.2,0.4-0.4,0.4h-1.9c-0.2,0-0.4-0.2-0.4-0.4V71z M68.3,77.4c1.2,0,2.1-0.9,2.1-2.2c0-1.1-1-2-2.1-2h-2.4v4.2H68.3z"/>
			</g>
		</g>
	</g>
</g>
</svg>
