<?xml version="1.0" encoding="utf-8"?>
<!-- Generator: Adobe Illustrator 17.1.0, SVG Export Plug-In . SVG Version: 6.00 Build 0)  -->
<!DOCTYPE svg PUBLIC "-//W3C//DTD SVG 1.0//EN" "http://www.w3.org/TR/2001/REC-SVG-20010904/DTD/svg10.dtd">
<svg version="1.0" id="Layer_1" xmlns="http://www.w3.org/2000/svg" xmlns:xlink="http://www.w3.org/1999/xlink" x="0px" y="0px"
	 viewBox="0 0 100 100" enable-background="new 0 0 100 100" xml:space="preserve">
<g>
	<g>
		<path fill="#43B0D1" d="M50,12.1c-20.9,0-37.9,17-37.9,37.9s17,37.9,37.9,37.9c20.9,0,37.9-17,37.9-37.9S70.9,12.1,50,12.1z
			 M60.3,69.7C60.3,69.7,60.3,69.7,60.3,69.7c0.2,0,0.3,0,0.5-0.3c0,0.5,0.1,0.9,0.3,1.3c-0.5-2.1,1.6-2.1,2.5-3.4
			c0.4-0.5,1-1.8,1.4-2c0.2,0.4,0.3,0.8,0.2,1.2c0.1-0.3,0,0,0,0.1c0,0.4-0.1,0.8-0.3,1.2c-0.1-0.1-0.1-0.1-0.1-0.2
			c-1.7,1.4-1.7,5.2-3.9,6.2c-1.2,0.5-1.1-1.1-0.6-1.7C60.9,71.2,60,70.6,60.3,69.7C60.4,69.8,60.4,69.7,60.3,69.7
			C60.3,69.7,60.3,69.7,60.3,69.7C60.3,69.7,60.3,69.7,60.3,69.7c-0.4-0.1-0.8-1.1-0.8-1.7c0.5-0.1,0.7-0.4,0.8-0.2
			c0.1-0.2,0.7-1.2,0.7-1.3C61.2,67.4,59.9,69,60.3,69.7z M77.4,45.5c-0.6-1.2-1.2-2.6-1.6-3.3c-0.8-1.3-1.3-3.3-2.5-4.3
			c0.3,0.3,0.3,0.7,0.1,1.1c-0.6-0.2-1.1-0.5-1.5-1.1c-0.1-0.3,0.6,0.3,0.2-0.4c-1,0.1-1.7-0.9-2.5-1.4c-1.4-0.2-2.9,1-4.3,0.2
			c-0.3-0.2-0.6-1.3-1.2-0.7c-0.3,0.4-0.6,0.4-1,0.2c-1.6-0.5-2.3-1.8-3.7-1.9c0,0.6,1,1.5,1.5,1.8c0.6,0.4,1.1,2,1.2,0.5
			c0.9,0.5,0.3,1.7,1.6,1.3c1,0.4,0.7-1.2,0.9-1.7c0.3,0.2,0.5,1,0.7,1.2c0.5,0.5,1.3,0.3,1.7,0.8c0.6,0.6,1,1.5,0.8,2.3
			c-0.6,0-0.1,0.7-0.5,1.2c-0.4,0.6-0.3,0.7-0.6,1.3c-0.7,0.2-1.5,0.5-1.3,1.3c-0.5,0.6-4.6,3.6-5.2,2.8c-0.7-1-0.9-2.5-1.4-3.5
			c-0.8-0.3-2.5-2.3-2.9-3.2c0.2-1.4-3.5-4.2-4.1-4.2c0.4,1.9,2.1,2.9,2.9,4.4c0.6,1.3,1.8,4.3,2.8,4.7c1.7-0.2,2.7,2.8,3.6,3.5
			c1.1,0.8,3.5-1.8,4.5-1.5c0.1,1.4,0.1,1.8-0.3,3.3c-0.8,3.1-2.3,4.4-4.1,6.9c-1,1.4-1.7,2.4-2.5,4c-0.6,1.2,1.2,3.8,0.7,4.6
			c0.3,2-0.2,3.2-2,4.2c-1.3,0.7-2.4,1.5-2,2.9c0.4,1.4-1.3,1.6-1.5,2.4c-0.5,1.3-1.3,2-2.2,2.5c-0.6,0-1.2,0.1-1.8,0.1
			c-1.1,0-2.2-0.1-3.3-0.2c-1.4-1.8-2.9-3.7-4.4-5.5c-0.9-1.1-2.2-3-0.8-4.4c0.2-0.9-0.9-2.9-1.4-3.7c-0.8-1.3-4.5-4.2-3-5.7
			c0.2-1-0.7-2-0.7-2.8c-0.8-0.6-1.6,0.8-2.3-0.5c-0.8-1.4-2.3-1-3.5-0.2c-0.3,0.2-3.7,0.7-4,0.4c-2.6-2.3-3.4-5.9-2.5-9
			c0.4-1.3,0.4-3.6,1.4-4.4c0.3-1.3,1.9-2.6,2.7-3.7c0.4-0.6,1.1-0.6,1.6-1.2c0.8-0.9,1.1-2,2.1-2.8c1-0.8,3.1-2.1,1.3-2.4
			c0.7-1.1,1.9-2.2,2.3-3.5c0.6-0.5,1.8-0.3,2.5-0.6c0.6-1.2,0.8-1.2,0.6-2c0.1-0.5,1.7-0.9,2.1-1c0.6-0.2,1.2-0.8,1.8-1.3
			c2.4-0.7,4.9-1.1,7.5-1.1C63.8,22.2,75.2,32.3,77.4,45.5z"/>
		<path fill="#43B0D1" d="M50.9,27c0,0.5,1.8,0.4,2,0.5c-0.5-0.1,0.2-0.1,0,0c1.6-1-3.3-2-3.4-2c0.1-0.1,0.2-0.2,0.3-0.3
			c-0.9,0.3-0.3-0.6-1.1,0.3c0.2,0.7-0.8,1.2-0.3,2C49.2,28.3,50,27.2,50.9,27z"/>
		<path fill="#43B0D1" d="M44.3,29c-0.9-0.5-0.2,0.2-0.8,0.8c-0.8,0.9-0.7,1.2-1.9,0.7c0-1,2.2-0.1,1.2-1.9c-0.5-0.9-1-1.9-2-1.3
			c-0.9,0.6-2.6,1-3.3,2.3c-0.4,0.4-3.4,2.7-3.4,2.9c1.1,0.9,5.7-2.8,6.8-1.7c-0.1,0.8-1,1.4-1,2.1c0.3,0.1,0.4,0.5,0.8,0.5
			c1.5-0.3,1.1,0.7,2.2,1c1.9,0.5,0.4,0.1,1.6-1c0.4-0.4,2.4-0.3,2.5,0.3c-0.1-0.4,0.9-0.2,0,0c0.9-0.2,1.8,0.7,2.5,0.1
			c0.5-0.5,0.9-0.4,1.2-0.1c1.6,1.2,1.1-3.5,1.1-3.7c-0.6,0.4-3.9,0.7-3.9,0.4c0.1-0.4-0.4-0.4-0.6-0.9c0.6-0.8-0.6-0.4,0.1-1.2
			c-0.3-0.2-0.7-0.2-1,0c-0.1,0.6,0.3,0.4-0.5,0.2c-0.2,0.6,0.6,1,0.5,1.6c-0.1-0.1-0.2-0.1-0.3-0.1c-0.1,0.4,0,0.3,0,0.9
			c-1.1-0.2-0.5-1.1-1.5-2.3c0.9-0.7-1.8-2.1-1.4-2.5C41.5,26.5,44.9,28.5,44.3,29z M40.9,29.7c-0.2,0.1-0.4,0.1-0.6,0.1
			c0.2-0.5,0.8-2.2,1.3-2.3C41.5,28.2,41,29.1,40.9,29.7z"/>
		<path fill="#43B0D1" d="M40.9,29.7C40.9,29.2,40.6,29.6,40.9,29.7L40.9,29.7z"/>
		<path fill="#43B0D1" d="M57,27.6c-0.4,0.2,0.1,1.5,0.8,1.5c0.5,0.4,1.1,0.5,1.7,0.3c-0.2-1.1-3-3.4-4-3.9c0.1-0.1,0.2-0.5,0.5-0.5
			c-0.3-1.2-1.6-0.2-1.6,0.5C54.9,26.1,56.9,27.1,57,27.6z"/>
		<path fill="#43B0D1" d="M57.8,29.1C57.3,29.1,58.1,29.5,57.8,29.1L57.8,29.1z"/>
		<path fill="#43B0D1" d="M59.2,25.6c-0.5-0.1-0.9-1.1-1.4-1.3c-0.1,0.3,0,0.2-0.1,0.4c0-0.1,0.2,0.3,0,0
			C57.9,25,58.7,26.2,59.2,25.6z"/>
		<path fill="#43B0D1" d="M38.5,27.2c-0.1,0.2-0.3,0.2-0.4,0.3c0,0,0,0,0,0.1C38.2,27.7,38.4,27.2,38.5,27.2z"/>
	</g>
</g>
</svg>
