<svg width="15" height="16" viewBox="0 0 15 16" fill="none" xmlns="http://www.w3.org/2000/svg">
<path d="M2.1907 2.93226C2.3079 2.81509 2.46684 2.74927 2.63257 2.74927C2.7983 2.74927 2.95724 2.81509 3.07445 2.93226L11.8244 11.6823C11.9383 11.8001 12.0013 11.958 11.9999 12.1219C11.9984 12.2858 11.9327 12.4425 11.8168 12.5584C11.701 12.6743 11.5442 12.74 11.3803 12.7414C11.2165 12.7429 11.0586 12.6799 10.9407 12.566L2.1907 3.81601C2.07353 3.6988 2.00771 3.53986 2.00771 3.37413C2.00771 3.20841 2.07353 3.04946 2.1907 2.93226V2.93226Z" fill="#292929"/>
<path d="M11.8244 2.93226C11.7072 2.81509 11.5483 2.74927 11.3826 2.74927C11.2168 2.74927 11.0579 2.81509 10.9407 2.93226L2.1907 11.6823C2.131 11.7399 2.08339 11.8089 2.05063 11.8851C2.01788 11.9614 2.00064 12.0434 1.99992 12.1264C1.9992 12.2094 2.01501 12.2917 2.04643 12.3685C2.07786 12.4453 2.12427 12.5151 2.18295 12.5738C2.24163 12.6324 2.31142 12.6788 2.38823 12.7103C2.46504 12.7417 2.54734 12.7575 2.63032 12.7568C2.71331 12.7561 2.79532 12.7388 2.87158 12.7061C2.94783 12.6733 3.01679 12.6257 3.07445 12.566L11.8244 3.81601C11.9416 3.6988 12.0074 3.53986 12.0074 3.37413C12.0074 3.20841 11.9416 3.04946 11.8244 2.93226V2.93226Z" fill="#292929"/>
</svg>
