<svg width="18" height="14" viewBox="0 0 18 14" fill="none" xmlns="http://www.w3.org/2000/svg">
<path d="M1.69479 7.54194C1.50619 7.35978 1.25358 7.25899 0.991387 7.26127C0.72919 7.26355 0.478378 7.36872 0.29297 7.55412C0.107561 7.73953 0.00239252 7.99035 0.000114097 8.25254C-0.00216432 8.51474 0.09863 8.76734 0.280788 8.95594L4.78079 13.4559C4.96832 13.6434 5.22262 13.7487 5.48779 13.7487C5.75295 13.7487 6.00726 13.6434 6.19479 13.4559L17.1948 2.45594C17.3769 2.26734 17.4777 2.01474 17.4755 1.75254C17.4732 1.49034 17.368 1.23953 17.1826 1.05412C16.9972 0.868716 16.7464 0.763547 16.4842 0.761268C16.222 0.75899 15.9694 0.859785 15.7808 1.04194L5.48779 11.3349L1.69479 7.54194Z" fill="#fff"/>
</svg>
