<svg width="115" height="115" viewBox="0 0 115 115" fill="none" xmlns="http://www.w3.org/2000/svg">
<circle cx="57.5" cy="57.5" r="57.5" fill="#F5A01A" fill-opacity="0.3"/>
<rect x="29" y="28" width="59.6362" height="58.9875" rx="29.4937" fill="#FF7A00"/>
<path d="M50.6947 57.7807C50.5061 57.5986 50.2535 57.4978 49.9913 57.5C49.7291 57.5023 49.4783 57.6075 49.2929 57.7929C49.1075 57.9783 49.0023 58.2291 49 58.4913C48.9978 58.7535 49.0986 59.0061 49.2807 59.1947L53.7807 63.6947C53.9682 63.8822 54.2225 63.9875 54.4877 63.9875C54.7529 63.9875 55.0072 63.8822 55.1947 63.6947L66.1947 52.6947C66.3769 52.5061 66.4777 52.2535 66.4754 51.9913C66.4731 51.7291 66.3679 51.4783 66.1825 51.2929C65.9971 51.1075 65.7463 51.0023 65.4841 51C65.2219 50.9978 64.9693 51.0986 64.7807 51.2807L54.4877 61.5737L50.6947 57.7807Z" fill="white"/>
</svg>
