<svg width="12" height="16" viewBox="0 0 12 16" fill="none" xmlns="http://www.w3.org/2000/svg">
<path d="M6 0.5C3.0975 0.5 0.75 2.8475 0.75 5.75C0.75 7.055 1.125 8.2775 1.8075 9.38C2.52 10.535 3.4575 11.525 4.1775 12.68C4.53 13.2425 4.785 13.7675 5.055 14.375C5.25 14.7875 5.4075 15.5 6 15.5C6.5925 15.5 6.75 14.7875 6.9375 14.375C7.215 13.7675 7.4625 13.2425 7.815 12.68C8.535 11.5325 9.4725 10.5425 10.185 9.38C10.875 8.2775 11.25 7.055 11.25 5.75C11.25 2.8475 8.9025 0.5 6 0.5ZM6 7.8125C4.965 7.8125 4.125 6.9725 4.125 5.9375C4.125 4.9025 4.965 4.0625 6 4.0625C7.035 4.0625 7.875 4.9025 7.875 5.9375C7.875 6.9725 7.035 7.8125 6 7.8125Z" fill="#FF7A00"/>
</svg>
