<svg width="15" height="10" viewBox="0 0 15 10" fill="none" xmlns="http://www.w3.org/2000/svg">
<path d="M2.55311 8.72985C2.3001 8.98286 1.95694 9.125 1.59913 9.125C1.24132 9.125 0.898162 8.98286 0.645151 8.72985C0.39214 8.47684 0.25 8.13368 0.25 7.77587C0.25 7.41806 0.39214 7.0749 0.645151 6.82189L6.54665 0.921603C6.79953 0.668807 7.14246 0.526794 7.50003 0.526794C7.85759 0.526794 8.20052 0.668807 8.4534 0.921603L14.3549 6.82189C14.6079 7.0749 14.7501 7.41806 14.7501 7.77587C14.7501 8.13368 14.6079 8.47684 14.3549 8.72985C14.1019 8.98286 13.7587 9.125 13.4009 9.125C13.0431 9.125 12.7 8.98286 12.4469 8.72985L7.50003 3.78294L2.55311 8.72985Z" fill="#292929"/>
</svg>
