<svg width="24" height="23" viewBox="0 0 24 23" fill="none" xmlns="http://www.w3.org/2000/svg">
<path d="M0 2.12484C0 1.5723 0.210714 1.0424 0.585786 0.651698C0.960859 0.260997 1.46957 0.0415039 2 0.0415039H12C12.5304 0.0415039 13.0391 0.260997 13.4142 0.651698C13.7893 1.0424 14 1.5723 14 2.12484H12C10.52 2.12484 9.227 2.96234 8.535 4.20817H8V3.1665C8 2.89024 7.89464 2.62528 7.70711 2.42993C7.51957 2.23458 7.26522 2.12484 7 2.12484C6.73478 2.12484 6.48043 2.23458 6.29289 2.42993C6.10536 2.62528 6 2.89024 6 3.1665V4.20817H3C2.73478 4.20817 2.48043 4.31792 2.29289 4.51327C2.10536 4.70862 2 4.97357 2 5.24984C2 5.5261 2.10536 5.79106 2.29289 5.98641C2.48043 6.18176 2.73478 6.2915 3 6.2915H8V9.4165C8 10.1905 7.642 11.0519 7 11.8675C6.358 11.0519 6 10.1905 6 9.4165C6 9.14024 5.89464 8.87528 5.70711 8.67993C5.51957 8.48458 5.26522 8.37484 5 8.37484C4.73478 8.37484 4.48043 8.48458 4.29289 8.67993C4.10536 8.87528 4 9.14024 4 9.4165C4 10.8394 4.63 12.1707 5.525 13.2769C4.712 13.8738 3.818 14.2998 2.99 14.4988C2.452 14.628 2 15.0915 2 15.6665C2 16.2415 2.45 16.7134 2.995 16.6207C4.392 16.3811 5.821 15.6707 7 14.7321C7.317 14.9853 7.652 15.2217 8 15.4353V18.7915H2C1.46957 18.7915 0.960859 18.572 0.585786 18.1813C0.210714 17.7906 0 17.2607 0 16.7082V2.12484ZM18.333 14.6248L17 10.4582L15.667 14.6248H18.333Z" fill="#292929"/>
<path d="M10 20.8747C10 21.4272 10.2107 21.9571 10.5858 22.3478C10.9609 22.7385 11.4696 22.958 12 22.958H22C22.5304 22.958 23.0391 22.7385 23.4142 22.3478C23.7893 21.9571 24 21.4272 24 20.8747V6.29134C24 5.73881 23.7893 5.2089 23.4142 4.8182C23.0391 4.4275 22.5304 4.20801 22 4.20801H12C11.7373 4.20787 11.4772 4.26166 11.2345 4.36631C10.9918 4.47096 10.7712 4.62441 10.5855 4.8179C10.3997 5.01138 10.2524 5.2411 10.152 5.49392C10.0515 5.74675 9.99987 6.01772 10 6.29134V20.8747ZM16.72 7.33301H17.28C17.4898 7.33317 17.6942 7.40207 17.8644 7.52993C18.0345 7.6578 18.1617 7.83817 18.228 8.04551L21.584 18.532C21.6562 18.7785 21.633 19.0447 21.5195 19.2737C21.406 19.5027 21.2111 19.6765 20.9763 19.7581C20.7416 19.8396 20.4856 19.8223 20.2628 19.7101C20.0401 19.5978 19.8683 19.3993 19.784 19.157L19 16.708H15L14.216 19.157C14.1791 19.2832 14.1182 19.4004 14.0371 19.5018C13.956 19.6031 13.8562 19.6865 13.7436 19.7471C13.631 19.8076 13.5079 19.8441 13.3816 19.8543C13.2553 19.8645 13.1283 19.8482 13.0081 19.8065C12.888 19.7648 12.777 19.6984 12.6818 19.6113C12.5867 19.5242 12.5092 19.4181 12.454 19.2993C12.3988 19.1805 12.367 19.0514 12.3605 18.9196C12.354 18.7879 12.3728 18.656 12.416 18.532L15.772 8.04551C15.8383 7.838 15.9657 7.65751 16.136 7.52963C16.3064 7.40175 16.511 7.33296 16.721 7.33301H16.72Z" fill="#292929"/>
</svg>
